%TF.GenerationSoftware,KiCad,Pcbnew,(5.1.10)-1*%
%TF.CreationDate,2022-09-29T16:57:17+02:00*%
%TF.ProjectId,Arduino Quantizer TK V1,41726475-696e-46f2-9051-75616e74697a,rev?*%
%TF.SameCoordinates,Original*%
%TF.FileFunction,Paste,Top*%
%TF.FilePolarity,Positive*%
%FSLAX46Y46*%
G04 Gerber Fmt 4.6, Leading zero omitted, Abs format (unit mm)*
G04 Created by KiCad (PCBNEW (5.1.10)-1) date 2022-09-29 16:57:17*
%MOMM*%
%LPD*%
G01*
G04 APERTURE LIST*
G04 APERTURE END LIST*
G36*
G01*
X193726900Y-90751800D02*
X193726900Y-90451800D01*
G75*
G02*
X193876900Y-90301800I150000J0D01*
G01*
X195376900Y-90301800D01*
G75*
G02*
X195526900Y-90451800I0J-150000D01*
G01*
X195526900Y-90751800D01*
G75*
G02*
X195376900Y-90901800I-150000J0D01*
G01*
X193876900Y-90901800D01*
G75*
G02*
X193726900Y-90751800I0J150000D01*
G01*
G37*
G36*
G01*
X193726900Y-92021800D02*
X193726900Y-91721800D01*
G75*
G02*
X193876900Y-91571800I150000J0D01*
G01*
X195376900Y-91571800D01*
G75*
G02*
X195526900Y-91721800I0J-150000D01*
G01*
X195526900Y-92021800D01*
G75*
G02*
X195376900Y-92171800I-150000J0D01*
G01*
X193876900Y-92171800D01*
G75*
G02*
X193726900Y-92021800I0J150000D01*
G01*
G37*
G36*
G01*
X193726900Y-93291800D02*
X193726900Y-92991800D01*
G75*
G02*
X193876900Y-92841800I150000J0D01*
G01*
X195376900Y-92841800D01*
G75*
G02*
X195526900Y-92991800I0J-150000D01*
G01*
X195526900Y-93291800D01*
G75*
G02*
X195376900Y-93441800I-150000J0D01*
G01*
X193876900Y-93441800D01*
G75*
G02*
X193726900Y-93291800I0J150000D01*
G01*
G37*
G36*
G01*
X193726900Y-94561800D02*
X193726900Y-94261800D01*
G75*
G02*
X193876900Y-94111800I150000J0D01*
G01*
X195376900Y-94111800D01*
G75*
G02*
X195526900Y-94261800I0J-150000D01*
G01*
X195526900Y-94561800D01*
G75*
G02*
X195376900Y-94711800I-150000J0D01*
G01*
X193876900Y-94711800D01*
G75*
G02*
X193726900Y-94561800I0J150000D01*
G01*
G37*
G36*
G01*
X193726900Y-95831800D02*
X193726900Y-95531800D01*
G75*
G02*
X193876900Y-95381800I150000J0D01*
G01*
X195376900Y-95381800D01*
G75*
G02*
X195526900Y-95531800I0J-150000D01*
G01*
X195526900Y-95831800D01*
G75*
G02*
X195376900Y-95981800I-150000J0D01*
G01*
X193876900Y-95981800D01*
G75*
G02*
X193726900Y-95831800I0J150000D01*
G01*
G37*
G36*
G01*
X193726900Y-97101800D02*
X193726900Y-96801800D01*
G75*
G02*
X193876900Y-96651800I150000J0D01*
G01*
X195376900Y-96651800D01*
G75*
G02*
X195526900Y-96801800I0J-150000D01*
G01*
X195526900Y-97101800D01*
G75*
G02*
X195376900Y-97251800I-150000J0D01*
G01*
X193876900Y-97251800D01*
G75*
G02*
X193726900Y-97101800I0J150000D01*
G01*
G37*
G36*
G01*
X193726900Y-98371800D02*
X193726900Y-98071800D01*
G75*
G02*
X193876900Y-97921800I150000J0D01*
G01*
X195376900Y-97921800D01*
G75*
G02*
X195526900Y-98071800I0J-150000D01*
G01*
X195526900Y-98371800D01*
G75*
G02*
X195376900Y-98521800I-150000J0D01*
G01*
X193876900Y-98521800D01*
G75*
G02*
X193726900Y-98371800I0J150000D01*
G01*
G37*
G36*
G01*
X193726900Y-99641800D02*
X193726900Y-99341800D01*
G75*
G02*
X193876900Y-99191800I150000J0D01*
G01*
X195376900Y-99191800D01*
G75*
G02*
X195526900Y-99341800I0J-150000D01*
G01*
X195526900Y-99641800D01*
G75*
G02*
X195376900Y-99791800I-150000J0D01*
G01*
X193876900Y-99791800D01*
G75*
G02*
X193726900Y-99641800I0J150000D01*
G01*
G37*
G36*
G01*
X193726900Y-100911800D02*
X193726900Y-100611800D01*
G75*
G02*
X193876900Y-100461800I150000J0D01*
G01*
X195376900Y-100461800D01*
G75*
G02*
X195526900Y-100611800I0J-150000D01*
G01*
X195526900Y-100911800D01*
G75*
G02*
X195376900Y-101061800I-150000J0D01*
G01*
X193876900Y-101061800D01*
G75*
G02*
X193726900Y-100911800I0J150000D01*
G01*
G37*
G36*
G01*
X193726900Y-102181800D02*
X193726900Y-101881800D01*
G75*
G02*
X193876900Y-101731800I150000J0D01*
G01*
X195376900Y-101731800D01*
G75*
G02*
X195526900Y-101881800I0J-150000D01*
G01*
X195526900Y-102181800D01*
G75*
G02*
X195376900Y-102331800I-150000J0D01*
G01*
X193876900Y-102331800D01*
G75*
G02*
X193726900Y-102181800I0J150000D01*
G01*
G37*
G36*
G01*
X193726900Y-103451800D02*
X193726900Y-103151800D01*
G75*
G02*
X193876900Y-103001800I150000J0D01*
G01*
X195376900Y-103001800D01*
G75*
G02*
X195526900Y-103151800I0J-150000D01*
G01*
X195526900Y-103451800D01*
G75*
G02*
X195376900Y-103601800I-150000J0D01*
G01*
X193876900Y-103601800D01*
G75*
G02*
X193726900Y-103451800I0J150000D01*
G01*
G37*
G36*
G01*
X193726900Y-104721800D02*
X193726900Y-104421800D01*
G75*
G02*
X193876900Y-104271800I150000J0D01*
G01*
X195376900Y-104271800D01*
G75*
G02*
X195526900Y-104421800I0J-150000D01*
G01*
X195526900Y-104721800D01*
G75*
G02*
X195376900Y-104871800I-150000J0D01*
G01*
X193876900Y-104871800D01*
G75*
G02*
X193726900Y-104721800I0J150000D01*
G01*
G37*
G36*
G01*
X193726900Y-105991800D02*
X193726900Y-105691800D01*
G75*
G02*
X193876900Y-105541800I150000J0D01*
G01*
X195376900Y-105541800D01*
G75*
G02*
X195526900Y-105691800I0J-150000D01*
G01*
X195526900Y-105991800D01*
G75*
G02*
X195376900Y-106141800I-150000J0D01*
G01*
X193876900Y-106141800D01*
G75*
G02*
X193726900Y-105991800I0J150000D01*
G01*
G37*
G36*
G01*
X193726900Y-107261800D02*
X193726900Y-106961800D01*
G75*
G02*
X193876900Y-106811800I150000J0D01*
G01*
X195376900Y-106811800D01*
G75*
G02*
X195526900Y-106961800I0J-150000D01*
G01*
X195526900Y-107261800D01*
G75*
G02*
X195376900Y-107411800I-150000J0D01*
G01*
X193876900Y-107411800D01*
G75*
G02*
X193726900Y-107261800I0J150000D01*
G01*
G37*
G36*
G01*
X184126900Y-107261800D02*
X184126900Y-106961800D01*
G75*
G02*
X184276900Y-106811800I150000J0D01*
G01*
X185776900Y-106811800D01*
G75*
G02*
X185926900Y-106961800I0J-150000D01*
G01*
X185926900Y-107261800D01*
G75*
G02*
X185776900Y-107411800I-150000J0D01*
G01*
X184276900Y-107411800D01*
G75*
G02*
X184126900Y-107261800I0J150000D01*
G01*
G37*
G36*
G01*
X184126900Y-105991800D02*
X184126900Y-105691800D01*
G75*
G02*
X184276900Y-105541800I150000J0D01*
G01*
X185776900Y-105541800D01*
G75*
G02*
X185926900Y-105691800I0J-150000D01*
G01*
X185926900Y-105991800D01*
G75*
G02*
X185776900Y-106141800I-150000J0D01*
G01*
X184276900Y-106141800D01*
G75*
G02*
X184126900Y-105991800I0J150000D01*
G01*
G37*
G36*
G01*
X184126900Y-104721800D02*
X184126900Y-104421800D01*
G75*
G02*
X184276900Y-104271800I150000J0D01*
G01*
X185776900Y-104271800D01*
G75*
G02*
X185926900Y-104421800I0J-150000D01*
G01*
X185926900Y-104721800D01*
G75*
G02*
X185776900Y-104871800I-150000J0D01*
G01*
X184276900Y-104871800D01*
G75*
G02*
X184126900Y-104721800I0J150000D01*
G01*
G37*
G36*
G01*
X184126900Y-103451800D02*
X184126900Y-103151800D01*
G75*
G02*
X184276900Y-103001800I150000J0D01*
G01*
X185776900Y-103001800D01*
G75*
G02*
X185926900Y-103151800I0J-150000D01*
G01*
X185926900Y-103451800D01*
G75*
G02*
X185776900Y-103601800I-150000J0D01*
G01*
X184276900Y-103601800D01*
G75*
G02*
X184126900Y-103451800I0J150000D01*
G01*
G37*
G36*
G01*
X184126900Y-102181800D02*
X184126900Y-101881800D01*
G75*
G02*
X184276900Y-101731800I150000J0D01*
G01*
X185776900Y-101731800D01*
G75*
G02*
X185926900Y-101881800I0J-150000D01*
G01*
X185926900Y-102181800D01*
G75*
G02*
X185776900Y-102331800I-150000J0D01*
G01*
X184276900Y-102331800D01*
G75*
G02*
X184126900Y-102181800I0J150000D01*
G01*
G37*
G36*
G01*
X184126900Y-100911800D02*
X184126900Y-100611800D01*
G75*
G02*
X184276900Y-100461800I150000J0D01*
G01*
X185776900Y-100461800D01*
G75*
G02*
X185926900Y-100611800I0J-150000D01*
G01*
X185926900Y-100911800D01*
G75*
G02*
X185776900Y-101061800I-150000J0D01*
G01*
X184276900Y-101061800D01*
G75*
G02*
X184126900Y-100911800I0J150000D01*
G01*
G37*
G36*
G01*
X184126900Y-99641800D02*
X184126900Y-99341800D01*
G75*
G02*
X184276900Y-99191800I150000J0D01*
G01*
X185776900Y-99191800D01*
G75*
G02*
X185926900Y-99341800I0J-150000D01*
G01*
X185926900Y-99641800D01*
G75*
G02*
X185776900Y-99791800I-150000J0D01*
G01*
X184276900Y-99791800D01*
G75*
G02*
X184126900Y-99641800I0J150000D01*
G01*
G37*
G36*
G01*
X184126900Y-98371800D02*
X184126900Y-98071800D01*
G75*
G02*
X184276900Y-97921800I150000J0D01*
G01*
X185776900Y-97921800D01*
G75*
G02*
X185926900Y-98071800I0J-150000D01*
G01*
X185926900Y-98371800D01*
G75*
G02*
X185776900Y-98521800I-150000J0D01*
G01*
X184276900Y-98521800D01*
G75*
G02*
X184126900Y-98371800I0J150000D01*
G01*
G37*
G36*
G01*
X184126900Y-97101800D02*
X184126900Y-96801800D01*
G75*
G02*
X184276900Y-96651800I150000J0D01*
G01*
X185776900Y-96651800D01*
G75*
G02*
X185926900Y-96801800I0J-150000D01*
G01*
X185926900Y-97101800D01*
G75*
G02*
X185776900Y-97251800I-150000J0D01*
G01*
X184276900Y-97251800D01*
G75*
G02*
X184126900Y-97101800I0J150000D01*
G01*
G37*
G36*
G01*
X184126900Y-95831800D02*
X184126900Y-95531800D01*
G75*
G02*
X184276900Y-95381800I150000J0D01*
G01*
X185776900Y-95381800D01*
G75*
G02*
X185926900Y-95531800I0J-150000D01*
G01*
X185926900Y-95831800D01*
G75*
G02*
X185776900Y-95981800I-150000J0D01*
G01*
X184276900Y-95981800D01*
G75*
G02*
X184126900Y-95831800I0J150000D01*
G01*
G37*
G36*
G01*
X184126900Y-94561800D02*
X184126900Y-94261800D01*
G75*
G02*
X184276900Y-94111800I150000J0D01*
G01*
X185776900Y-94111800D01*
G75*
G02*
X185926900Y-94261800I0J-150000D01*
G01*
X185926900Y-94561800D01*
G75*
G02*
X185776900Y-94711800I-150000J0D01*
G01*
X184276900Y-94711800D01*
G75*
G02*
X184126900Y-94561800I0J150000D01*
G01*
G37*
G36*
G01*
X184126900Y-93291800D02*
X184126900Y-92991800D01*
G75*
G02*
X184276900Y-92841800I150000J0D01*
G01*
X185776900Y-92841800D01*
G75*
G02*
X185926900Y-92991800I0J-150000D01*
G01*
X185926900Y-93291800D01*
G75*
G02*
X185776900Y-93441800I-150000J0D01*
G01*
X184276900Y-93441800D01*
G75*
G02*
X184126900Y-93291800I0J150000D01*
G01*
G37*
G36*
G01*
X184126900Y-92021800D02*
X184126900Y-91721800D01*
G75*
G02*
X184276900Y-91571800I150000J0D01*
G01*
X185776900Y-91571800D01*
G75*
G02*
X185926900Y-91721800I0J-150000D01*
G01*
X185926900Y-92021800D01*
G75*
G02*
X185776900Y-92171800I-150000J0D01*
G01*
X184276900Y-92171800D01*
G75*
G02*
X184126900Y-92021800I0J150000D01*
G01*
G37*
G36*
G01*
X184126900Y-90751800D02*
X184126900Y-90451800D01*
G75*
G02*
X184276900Y-90301800I150000J0D01*
G01*
X185776900Y-90301800D01*
G75*
G02*
X185926900Y-90451800I0J-150000D01*
G01*
X185926900Y-90751800D01*
G75*
G02*
X185776900Y-90901800I-150000J0D01*
G01*
X184276900Y-90901800D01*
G75*
G02*
X184126900Y-90751800I0J150000D01*
G01*
G37*
M02*
