%TF.GenerationSoftware,KiCad,Pcbnew,(5.1.10)-1*%
%TF.CreationDate,2022-09-29T16:57:17+02:00*%
%TF.ProjectId,Arduino Quantizer TK V1,41726475-696e-46f2-9051-75616e74697a,rev?*%
%TF.SameCoordinates,Original*%
%TF.FileFunction,Paste,Bot*%
%TF.FilePolarity,Positive*%
%FSLAX46Y46*%
G04 Gerber Fmt 4.6, Leading zero omitted, Abs format (unit mm)*
G04 Created by KiCad (PCBNEW (5.1.10)-1) date 2022-09-29 16:57:17*
%MOMM*%
%LPD*%
G01*
G04 APERTURE LIST*
G04 APERTURE END LIST*
G36*
G01*
X187727300Y-94252400D02*
X187727300Y-94452400D01*
G75*
G02*
X187627300Y-94552400I-100000J0D01*
G01*
X186352300Y-94552400D01*
G75*
G02*
X186252300Y-94452400I0J100000D01*
G01*
X186252300Y-94252400D01*
G75*
G02*
X186352300Y-94152400I100000J0D01*
G01*
X187627300Y-94152400D01*
G75*
G02*
X187727300Y-94252400I0J-100000D01*
G01*
G37*
G36*
G01*
X187727300Y-94902400D02*
X187727300Y-95102400D01*
G75*
G02*
X187627300Y-95202400I-100000J0D01*
G01*
X186352300Y-95202400D01*
G75*
G02*
X186252300Y-95102400I0J100000D01*
G01*
X186252300Y-94902400D01*
G75*
G02*
X186352300Y-94802400I100000J0D01*
G01*
X187627300Y-94802400D01*
G75*
G02*
X187727300Y-94902400I0J-100000D01*
G01*
G37*
G36*
G01*
X187727300Y-95552400D02*
X187727300Y-95752400D01*
G75*
G02*
X187627300Y-95852400I-100000J0D01*
G01*
X186352300Y-95852400D01*
G75*
G02*
X186252300Y-95752400I0J100000D01*
G01*
X186252300Y-95552400D01*
G75*
G02*
X186352300Y-95452400I100000J0D01*
G01*
X187627300Y-95452400D01*
G75*
G02*
X187727300Y-95552400I0J-100000D01*
G01*
G37*
G36*
G01*
X187727300Y-96202400D02*
X187727300Y-96402400D01*
G75*
G02*
X187627300Y-96502400I-100000J0D01*
G01*
X186352300Y-96502400D01*
G75*
G02*
X186252300Y-96402400I0J100000D01*
G01*
X186252300Y-96202400D01*
G75*
G02*
X186352300Y-96102400I100000J0D01*
G01*
X187627300Y-96102400D01*
G75*
G02*
X187727300Y-96202400I0J-100000D01*
G01*
G37*
G36*
G01*
X187727300Y-96852400D02*
X187727300Y-97052400D01*
G75*
G02*
X187627300Y-97152400I-100000J0D01*
G01*
X186352300Y-97152400D01*
G75*
G02*
X186252300Y-97052400I0J100000D01*
G01*
X186252300Y-96852400D01*
G75*
G02*
X186352300Y-96752400I100000J0D01*
G01*
X187627300Y-96752400D01*
G75*
G02*
X187727300Y-96852400I0J-100000D01*
G01*
G37*
G36*
G01*
X187727300Y-97502400D02*
X187727300Y-97702400D01*
G75*
G02*
X187627300Y-97802400I-100000J0D01*
G01*
X186352300Y-97802400D01*
G75*
G02*
X186252300Y-97702400I0J100000D01*
G01*
X186252300Y-97502400D01*
G75*
G02*
X186352300Y-97402400I100000J0D01*
G01*
X187627300Y-97402400D01*
G75*
G02*
X187727300Y-97502400I0J-100000D01*
G01*
G37*
G36*
G01*
X187727300Y-98152400D02*
X187727300Y-98352400D01*
G75*
G02*
X187627300Y-98452400I-100000J0D01*
G01*
X186352300Y-98452400D01*
G75*
G02*
X186252300Y-98352400I0J100000D01*
G01*
X186252300Y-98152400D01*
G75*
G02*
X186352300Y-98052400I100000J0D01*
G01*
X187627300Y-98052400D01*
G75*
G02*
X187727300Y-98152400I0J-100000D01*
G01*
G37*
G36*
G01*
X187727300Y-98802400D02*
X187727300Y-99002400D01*
G75*
G02*
X187627300Y-99102400I-100000J0D01*
G01*
X186352300Y-99102400D01*
G75*
G02*
X186252300Y-99002400I0J100000D01*
G01*
X186252300Y-98802400D01*
G75*
G02*
X186352300Y-98702400I100000J0D01*
G01*
X187627300Y-98702400D01*
G75*
G02*
X187727300Y-98802400I0J-100000D01*
G01*
G37*
G36*
G01*
X187727300Y-99452400D02*
X187727300Y-99652400D01*
G75*
G02*
X187627300Y-99752400I-100000J0D01*
G01*
X186352300Y-99752400D01*
G75*
G02*
X186252300Y-99652400I0J100000D01*
G01*
X186252300Y-99452400D01*
G75*
G02*
X186352300Y-99352400I100000J0D01*
G01*
X187627300Y-99352400D01*
G75*
G02*
X187727300Y-99452400I0J-100000D01*
G01*
G37*
G36*
G01*
X187727300Y-100102400D02*
X187727300Y-100302400D01*
G75*
G02*
X187627300Y-100402400I-100000J0D01*
G01*
X186352300Y-100402400D01*
G75*
G02*
X186252300Y-100302400I0J100000D01*
G01*
X186252300Y-100102400D01*
G75*
G02*
X186352300Y-100002400I100000J0D01*
G01*
X187627300Y-100002400D01*
G75*
G02*
X187727300Y-100102400I0J-100000D01*
G01*
G37*
G36*
G01*
X187727300Y-100752400D02*
X187727300Y-100952400D01*
G75*
G02*
X187627300Y-101052400I-100000J0D01*
G01*
X186352300Y-101052400D01*
G75*
G02*
X186252300Y-100952400I0J100000D01*
G01*
X186252300Y-100752400D01*
G75*
G02*
X186352300Y-100652400I100000J0D01*
G01*
X187627300Y-100652400D01*
G75*
G02*
X187727300Y-100752400I0J-100000D01*
G01*
G37*
G36*
G01*
X187727300Y-101402400D02*
X187727300Y-101602400D01*
G75*
G02*
X187627300Y-101702400I-100000J0D01*
G01*
X186352300Y-101702400D01*
G75*
G02*
X186252300Y-101602400I0J100000D01*
G01*
X186252300Y-101402400D01*
G75*
G02*
X186352300Y-101302400I100000J0D01*
G01*
X187627300Y-101302400D01*
G75*
G02*
X187727300Y-101402400I0J-100000D01*
G01*
G37*
G36*
G01*
X187727300Y-102052400D02*
X187727300Y-102252400D01*
G75*
G02*
X187627300Y-102352400I-100000J0D01*
G01*
X186352300Y-102352400D01*
G75*
G02*
X186252300Y-102252400I0J100000D01*
G01*
X186252300Y-102052400D01*
G75*
G02*
X186352300Y-101952400I100000J0D01*
G01*
X187627300Y-101952400D01*
G75*
G02*
X187727300Y-102052400I0J-100000D01*
G01*
G37*
G36*
G01*
X187727300Y-102702400D02*
X187727300Y-102902400D01*
G75*
G02*
X187627300Y-103002400I-100000J0D01*
G01*
X186352300Y-103002400D01*
G75*
G02*
X186252300Y-102902400I0J100000D01*
G01*
X186252300Y-102702400D01*
G75*
G02*
X186352300Y-102602400I100000J0D01*
G01*
X187627300Y-102602400D01*
G75*
G02*
X187727300Y-102702400I0J-100000D01*
G01*
G37*
G36*
G01*
X193452300Y-102702400D02*
X193452300Y-102902400D01*
G75*
G02*
X193352300Y-103002400I-100000J0D01*
G01*
X192077300Y-103002400D01*
G75*
G02*
X191977300Y-102902400I0J100000D01*
G01*
X191977300Y-102702400D01*
G75*
G02*
X192077300Y-102602400I100000J0D01*
G01*
X193352300Y-102602400D01*
G75*
G02*
X193452300Y-102702400I0J-100000D01*
G01*
G37*
G36*
G01*
X193452300Y-102052400D02*
X193452300Y-102252400D01*
G75*
G02*
X193352300Y-102352400I-100000J0D01*
G01*
X192077300Y-102352400D01*
G75*
G02*
X191977300Y-102252400I0J100000D01*
G01*
X191977300Y-102052400D01*
G75*
G02*
X192077300Y-101952400I100000J0D01*
G01*
X193352300Y-101952400D01*
G75*
G02*
X193452300Y-102052400I0J-100000D01*
G01*
G37*
G36*
G01*
X193452300Y-101402400D02*
X193452300Y-101602400D01*
G75*
G02*
X193352300Y-101702400I-100000J0D01*
G01*
X192077300Y-101702400D01*
G75*
G02*
X191977300Y-101602400I0J100000D01*
G01*
X191977300Y-101402400D01*
G75*
G02*
X192077300Y-101302400I100000J0D01*
G01*
X193352300Y-101302400D01*
G75*
G02*
X193452300Y-101402400I0J-100000D01*
G01*
G37*
G36*
G01*
X193452300Y-100752400D02*
X193452300Y-100952400D01*
G75*
G02*
X193352300Y-101052400I-100000J0D01*
G01*
X192077300Y-101052400D01*
G75*
G02*
X191977300Y-100952400I0J100000D01*
G01*
X191977300Y-100752400D01*
G75*
G02*
X192077300Y-100652400I100000J0D01*
G01*
X193352300Y-100652400D01*
G75*
G02*
X193452300Y-100752400I0J-100000D01*
G01*
G37*
G36*
G01*
X193452300Y-100102400D02*
X193452300Y-100302400D01*
G75*
G02*
X193352300Y-100402400I-100000J0D01*
G01*
X192077300Y-100402400D01*
G75*
G02*
X191977300Y-100302400I0J100000D01*
G01*
X191977300Y-100102400D01*
G75*
G02*
X192077300Y-100002400I100000J0D01*
G01*
X193352300Y-100002400D01*
G75*
G02*
X193452300Y-100102400I0J-100000D01*
G01*
G37*
G36*
G01*
X193452300Y-99452400D02*
X193452300Y-99652400D01*
G75*
G02*
X193352300Y-99752400I-100000J0D01*
G01*
X192077300Y-99752400D01*
G75*
G02*
X191977300Y-99652400I0J100000D01*
G01*
X191977300Y-99452400D01*
G75*
G02*
X192077300Y-99352400I100000J0D01*
G01*
X193352300Y-99352400D01*
G75*
G02*
X193452300Y-99452400I0J-100000D01*
G01*
G37*
G36*
G01*
X193452300Y-98802400D02*
X193452300Y-99002400D01*
G75*
G02*
X193352300Y-99102400I-100000J0D01*
G01*
X192077300Y-99102400D01*
G75*
G02*
X191977300Y-99002400I0J100000D01*
G01*
X191977300Y-98802400D01*
G75*
G02*
X192077300Y-98702400I100000J0D01*
G01*
X193352300Y-98702400D01*
G75*
G02*
X193452300Y-98802400I0J-100000D01*
G01*
G37*
G36*
G01*
X193452300Y-98152400D02*
X193452300Y-98352400D01*
G75*
G02*
X193352300Y-98452400I-100000J0D01*
G01*
X192077300Y-98452400D01*
G75*
G02*
X191977300Y-98352400I0J100000D01*
G01*
X191977300Y-98152400D01*
G75*
G02*
X192077300Y-98052400I100000J0D01*
G01*
X193352300Y-98052400D01*
G75*
G02*
X193452300Y-98152400I0J-100000D01*
G01*
G37*
G36*
G01*
X193452300Y-97502400D02*
X193452300Y-97702400D01*
G75*
G02*
X193352300Y-97802400I-100000J0D01*
G01*
X192077300Y-97802400D01*
G75*
G02*
X191977300Y-97702400I0J100000D01*
G01*
X191977300Y-97502400D01*
G75*
G02*
X192077300Y-97402400I100000J0D01*
G01*
X193352300Y-97402400D01*
G75*
G02*
X193452300Y-97502400I0J-100000D01*
G01*
G37*
G36*
G01*
X193452300Y-96852400D02*
X193452300Y-97052400D01*
G75*
G02*
X193352300Y-97152400I-100000J0D01*
G01*
X192077300Y-97152400D01*
G75*
G02*
X191977300Y-97052400I0J100000D01*
G01*
X191977300Y-96852400D01*
G75*
G02*
X192077300Y-96752400I100000J0D01*
G01*
X193352300Y-96752400D01*
G75*
G02*
X193452300Y-96852400I0J-100000D01*
G01*
G37*
G36*
G01*
X193452300Y-96202400D02*
X193452300Y-96402400D01*
G75*
G02*
X193352300Y-96502400I-100000J0D01*
G01*
X192077300Y-96502400D01*
G75*
G02*
X191977300Y-96402400I0J100000D01*
G01*
X191977300Y-96202400D01*
G75*
G02*
X192077300Y-96102400I100000J0D01*
G01*
X193352300Y-96102400D01*
G75*
G02*
X193452300Y-96202400I0J-100000D01*
G01*
G37*
G36*
G01*
X193452300Y-95552400D02*
X193452300Y-95752400D01*
G75*
G02*
X193352300Y-95852400I-100000J0D01*
G01*
X192077300Y-95852400D01*
G75*
G02*
X191977300Y-95752400I0J100000D01*
G01*
X191977300Y-95552400D01*
G75*
G02*
X192077300Y-95452400I100000J0D01*
G01*
X193352300Y-95452400D01*
G75*
G02*
X193452300Y-95552400I0J-100000D01*
G01*
G37*
G36*
G01*
X193452300Y-94902400D02*
X193452300Y-95102400D01*
G75*
G02*
X193352300Y-95202400I-100000J0D01*
G01*
X192077300Y-95202400D01*
G75*
G02*
X191977300Y-95102400I0J100000D01*
G01*
X191977300Y-94902400D01*
G75*
G02*
X192077300Y-94802400I100000J0D01*
G01*
X193352300Y-94802400D01*
G75*
G02*
X193452300Y-94902400I0J-100000D01*
G01*
G37*
G36*
G01*
X193452300Y-94252400D02*
X193452300Y-94452400D01*
G75*
G02*
X193352300Y-94552400I-100000J0D01*
G01*
X192077300Y-94552400D01*
G75*
G02*
X191977300Y-94452400I0J100000D01*
G01*
X191977300Y-94252400D01*
G75*
G02*
X192077300Y-94152400I100000J0D01*
G01*
X193352300Y-94152400D01*
G75*
G02*
X193452300Y-94252400I0J-100000D01*
G01*
G37*
G36*
G01*
X186877300Y-94252400D02*
X186877300Y-94452400D01*
G75*
G02*
X186777300Y-94552400I-100000J0D01*
G01*
X185502300Y-94552400D01*
G75*
G02*
X185402300Y-94452400I0J100000D01*
G01*
X185402300Y-94252400D01*
G75*
G02*
X185502300Y-94152400I100000J0D01*
G01*
X186777300Y-94152400D01*
G75*
G02*
X186877300Y-94252400I0J-100000D01*
G01*
G37*
G36*
G01*
X186877300Y-94902400D02*
X186877300Y-95102400D01*
G75*
G02*
X186777300Y-95202400I-100000J0D01*
G01*
X185502300Y-95202400D01*
G75*
G02*
X185402300Y-95102400I0J100000D01*
G01*
X185402300Y-94902400D01*
G75*
G02*
X185502300Y-94802400I100000J0D01*
G01*
X186777300Y-94802400D01*
G75*
G02*
X186877300Y-94902400I0J-100000D01*
G01*
G37*
G36*
G01*
X186877300Y-95552400D02*
X186877300Y-95752400D01*
G75*
G02*
X186777300Y-95852400I-100000J0D01*
G01*
X185502300Y-95852400D01*
G75*
G02*
X185402300Y-95752400I0J100000D01*
G01*
X185402300Y-95552400D01*
G75*
G02*
X185502300Y-95452400I100000J0D01*
G01*
X186777300Y-95452400D01*
G75*
G02*
X186877300Y-95552400I0J-100000D01*
G01*
G37*
G36*
G01*
X186877300Y-96202400D02*
X186877300Y-96402400D01*
G75*
G02*
X186777300Y-96502400I-100000J0D01*
G01*
X185502300Y-96502400D01*
G75*
G02*
X185402300Y-96402400I0J100000D01*
G01*
X185402300Y-96202400D01*
G75*
G02*
X185502300Y-96102400I100000J0D01*
G01*
X186777300Y-96102400D01*
G75*
G02*
X186877300Y-96202400I0J-100000D01*
G01*
G37*
G36*
G01*
X186877300Y-96852400D02*
X186877300Y-97052400D01*
G75*
G02*
X186777300Y-97152400I-100000J0D01*
G01*
X185502300Y-97152400D01*
G75*
G02*
X185402300Y-97052400I0J100000D01*
G01*
X185402300Y-96852400D01*
G75*
G02*
X185502300Y-96752400I100000J0D01*
G01*
X186777300Y-96752400D01*
G75*
G02*
X186877300Y-96852400I0J-100000D01*
G01*
G37*
G36*
G01*
X186877300Y-97502400D02*
X186877300Y-97702400D01*
G75*
G02*
X186777300Y-97802400I-100000J0D01*
G01*
X185502300Y-97802400D01*
G75*
G02*
X185402300Y-97702400I0J100000D01*
G01*
X185402300Y-97502400D01*
G75*
G02*
X185502300Y-97402400I100000J0D01*
G01*
X186777300Y-97402400D01*
G75*
G02*
X186877300Y-97502400I0J-100000D01*
G01*
G37*
G36*
G01*
X186877300Y-98152400D02*
X186877300Y-98352400D01*
G75*
G02*
X186777300Y-98452400I-100000J0D01*
G01*
X185502300Y-98452400D01*
G75*
G02*
X185402300Y-98352400I0J100000D01*
G01*
X185402300Y-98152400D01*
G75*
G02*
X185502300Y-98052400I100000J0D01*
G01*
X186777300Y-98052400D01*
G75*
G02*
X186877300Y-98152400I0J-100000D01*
G01*
G37*
G36*
G01*
X186877300Y-98802400D02*
X186877300Y-99002400D01*
G75*
G02*
X186777300Y-99102400I-100000J0D01*
G01*
X185502300Y-99102400D01*
G75*
G02*
X185402300Y-99002400I0J100000D01*
G01*
X185402300Y-98802400D01*
G75*
G02*
X185502300Y-98702400I100000J0D01*
G01*
X186777300Y-98702400D01*
G75*
G02*
X186877300Y-98802400I0J-100000D01*
G01*
G37*
G36*
G01*
X186877300Y-99452400D02*
X186877300Y-99652400D01*
G75*
G02*
X186777300Y-99752400I-100000J0D01*
G01*
X185502300Y-99752400D01*
G75*
G02*
X185402300Y-99652400I0J100000D01*
G01*
X185402300Y-99452400D01*
G75*
G02*
X185502300Y-99352400I100000J0D01*
G01*
X186777300Y-99352400D01*
G75*
G02*
X186877300Y-99452400I0J-100000D01*
G01*
G37*
G36*
G01*
X186877300Y-100102400D02*
X186877300Y-100302400D01*
G75*
G02*
X186777300Y-100402400I-100000J0D01*
G01*
X185502300Y-100402400D01*
G75*
G02*
X185402300Y-100302400I0J100000D01*
G01*
X185402300Y-100102400D01*
G75*
G02*
X185502300Y-100002400I100000J0D01*
G01*
X186777300Y-100002400D01*
G75*
G02*
X186877300Y-100102400I0J-100000D01*
G01*
G37*
G36*
G01*
X186877300Y-100752400D02*
X186877300Y-100952400D01*
G75*
G02*
X186777300Y-101052400I-100000J0D01*
G01*
X185502300Y-101052400D01*
G75*
G02*
X185402300Y-100952400I0J100000D01*
G01*
X185402300Y-100752400D01*
G75*
G02*
X185502300Y-100652400I100000J0D01*
G01*
X186777300Y-100652400D01*
G75*
G02*
X186877300Y-100752400I0J-100000D01*
G01*
G37*
G36*
G01*
X186877300Y-101402400D02*
X186877300Y-101602400D01*
G75*
G02*
X186777300Y-101702400I-100000J0D01*
G01*
X185502300Y-101702400D01*
G75*
G02*
X185402300Y-101602400I0J100000D01*
G01*
X185402300Y-101402400D01*
G75*
G02*
X185502300Y-101302400I100000J0D01*
G01*
X186777300Y-101302400D01*
G75*
G02*
X186877300Y-101402400I0J-100000D01*
G01*
G37*
G36*
G01*
X186877300Y-102052400D02*
X186877300Y-102252400D01*
G75*
G02*
X186777300Y-102352400I-100000J0D01*
G01*
X185502300Y-102352400D01*
G75*
G02*
X185402300Y-102252400I0J100000D01*
G01*
X185402300Y-102052400D01*
G75*
G02*
X185502300Y-101952400I100000J0D01*
G01*
X186777300Y-101952400D01*
G75*
G02*
X186877300Y-102052400I0J-100000D01*
G01*
G37*
G36*
G01*
X186877300Y-102702400D02*
X186877300Y-102902400D01*
G75*
G02*
X186777300Y-103002400I-100000J0D01*
G01*
X185502300Y-103002400D01*
G75*
G02*
X185402300Y-102902400I0J100000D01*
G01*
X185402300Y-102702400D01*
G75*
G02*
X185502300Y-102602400I100000J0D01*
G01*
X186777300Y-102602400D01*
G75*
G02*
X186877300Y-102702400I0J-100000D01*
G01*
G37*
G36*
G01*
X194302300Y-102702400D02*
X194302300Y-102902400D01*
G75*
G02*
X194202300Y-103002400I-100000J0D01*
G01*
X192927300Y-103002400D01*
G75*
G02*
X192827300Y-102902400I0J100000D01*
G01*
X192827300Y-102702400D01*
G75*
G02*
X192927300Y-102602400I100000J0D01*
G01*
X194202300Y-102602400D01*
G75*
G02*
X194302300Y-102702400I0J-100000D01*
G01*
G37*
G36*
G01*
X194302300Y-102052400D02*
X194302300Y-102252400D01*
G75*
G02*
X194202300Y-102352400I-100000J0D01*
G01*
X192927300Y-102352400D01*
G75*
G02*
X192827300Y-102252400I0J100000D01*
G01*
X192827300Y-102052400D01*
G75*
G02*
X192927300Y-101952400I100000J0D01*
G01*
X194202300Y-101952400D01*
G75*
G02*
X194302300Y-102052400I0J-100000D01*
G01*
G37*
G36*
G01*
X194302300Y-101402400D02*
X194302300Y-101602400D01*
G75*
G02*
X194202300Y-101702400I-100000J0D01*
G01*
X192927300Y-101702400D01*
G75*
G02*
X192827300Y-101602400I0J100000D01*
G01*
X192827300Y-101402400D01*
G75*
G02*
X192927300Y-101302400I100000J0D01*
G01*
X194202300Y-101302400D01*
G75*
G02*
X194302300Y-101402400I0J-100000D01*
G01*
G37*
G36*
G01*
X194302300Y-100752400D02*
X194302300Y-100952400D01*
G75*
G02*
X194202300Y-101052400I-100000J0D01*
G01*
X192927300Y-101052400D01*
G75*
G02*
X192827300Y-100952400I0J100000D01*
G01*
X192827300Y-100752400D01*
G75*
G02*
X192927300Y-100652400I100000J0D01*
G01*
X194202300Y-100652400D01*
G75*
G02*
X194302300Y-100752400I0J-100000D01*
G01*
G37*
G36*
G01*
X194302300Y-100102400D02*
X194302300Y-100302400D01*
G75*
G02*
X194202300Y-100402400I-100000J0D01*
G01*
X192927300Y-100402400D01*
G75*
G02*
X192827300Y-100302400I0J100000D01*
G01*
X192827300Y-100102400D01*
G75*
G02*
X192927300Y-100002400I100000J0D01*
G01*
X194202300Y-100002400D01*
G75*
G02*
X194302300Y-100102400I0J-100000D01*
G01*
G37*
G36*
G01*
X194302300Y-99452400D02*
X194302300Y-99652400D01*
G75*
G02*
X194202300Y-99752400I-100000J0D01*
G01*
X192927300Y-99752400D01*
G75*
G02*
X192827300Y-99652400I0J100000D01*
G01*
X192827300Y-99452400D01*
G75*
G02*
X192927300Y-99352400I100000J0D01*
G01*
X194202300Y-99352400D01*
G75*
G02*
X194302300Y-99452400I0J-100000D01*
G01*
G37*
G36*
G01*
X194302300Y-98802400D02*
X194302300Y-99002400D01*
G75*
G02*
X194202300Y-99102400I-100000J0D01*
G01*
X192927300Y-99102400D01*
G75*
G02*
X192827300Y-99002400I0J100000D01*
G01*
X192827300Y-98802400D01*
G75*
G02*
X192927300Y-98702400I100000J0D01*
G01*
X194202300Y-98702400D01*
G75*
G02*
X194302300Y-98802400I0J-100000D01*
G01*
G37*
G36*
G01*
X194302300Y-98152400D02*
X194302300Y-98352400D01*
G75*
G02*
X194202300Y-98452400I-100000J0D01*
G01*
X192927300Y-98452400D01*
G75*
G02*
X192827300Y-98352400I0J100000D01*
G01*
X192827300Y-98152400D01*
G75*
G02*
X192927300Y-98052400I100000J0D01*
G01*
X194202300Y-98052400D01*
G75*
G02*
X194302300Y-98152400I0J-100000D01*
G01*
G37*
G36*
G01*
X194302300Y-97502400D02*
X194302300Y-97702400D01*
G75*
G02*
X194202300Y-97802400I-100000J0D01*
G01*
X192927300Y-97802400D01*
G75*
G02*
X192827300Y-97702400I0J100000D01*
G01*
X192827300Y-97502400D01*
G75*
G02*
X192927300Y-97402400I100000J0D01*
G01*
X194202300Y-97402400D01*
G75*
G02*
X194302300Y-97502400I0J-100000D01*
G01*
G37*
G36*
G01*
X194302300Y-96852400D02*
X194302300Y-97052400D01*
G75*
G02*
X194202300Y-97152400I-100000J0D01*
G01*
X192927300Y-97152400D01*
G75*
G02*
X192827300Y-97052400I0J100000D01*
G01*
X192827300Y-96852400D01*
G75*
G02*
X192927300Y-96752400I100000J0D01*
G01*
X194202300Y-96752400D01*
G75*
G02*
X194302300Y-96852400I0J-100000D01*
G01*
G37*
G36*
G01*
X194302300Y-96202400D02*
X194302300Y-96402400D01*
G75*
G02*
X194202300Y-96502400I-100000J0D01*
G01*
X192927300Y-96502400D01*
G75*
G02*
X192827300Y-96402400I0J100000D01*
G01*
X192827300Y-96202400D01*
G75*
G02*
X192927300Y-96102400I100000J0D01*
G01*
X194202300Y-96102400D01*
G75*
G02*
X194302300Y-96202400I0J-100000D01*
G01*
G37*
G36*
G01*
X194302300Y-95552400D02*
X194302300Y-95752400D01*
G75*
G02*
X194202300Y-95852400I-100000J0D01*
G01*
X192927300Y-95852400D01*
G75*
G02*
X192827300Y-95752400I0J100000D01*
G01*
X192827300Y-95552400D01*
G75*
G02*
X192927300Y-95452400I100000J0D01*
G01*
X194202300Y-95452400D01*
G75*
G02*
X194302300Y-95552400I0J-100000D01*
G01*
G37*
G36*
G01*
X194302300Y-94902400D02*
X194302300Y-95102400D01*
G75*
G02*
X194202300Y-95202400I-100000J0D01*
G01*
X192927300Y-95202400D01*
G75*
G02*
X192827300Y-95102400I0J100000D01*
G01*
X192827300Y-94902400D01*
G75*
G02*
X192927300Y-94802400I100000J0D01*
G01*
X194202300Y-94802400D01*
G75*
G02*
X194302300Y-94902400I0J-100000D01*
G01*
G37*
G36*
G01*
X194302300Y-94252400D02*
X194302300Y-94452400D01*
G75*
G02*
X194202300Y-94552400I-100000J0D01*
G01*
X192927300Y-94552400D01*
G75*
G02*
X192827300Y-94452400I0J100000D01*
G01*
X192827300Y-94252400D01*
G75*
G02*
X192927300Y-94152400I100000J0D01*
G01*
X194202300Y-94152400D01*
G75*
G02*
X194302300Y-94252400I0J-100000D01*
G01*
G37*
M02*
