M48
; DRILL file {KiCad (5.1.10)-1} date 09/29/22 16:57:20
; FORMAT={-:-/ absolute / metric / decimal}
; #@! TF.CreationDate,2022-09-29T16:57:20+02:00
; #@! TF.GenerationSoftware,Kicad,Pcbnew,(5.1.10)-1
; #@! TF.FileFunction,Plated,1,2,PTH
FMAT,2
METRIC
T1C0.400
T2C0.800
T3C1.000
T4C1.100
T5C1.400
%
G90
G05
T1
X106.718Y-78.181
X109.207Y-77.013
X117.945Y-94.463
X121.272Y-93.904
X121.755Y-122.174
X128.892Y-93.472
X134.023Y-95.402
X137.782Y-131.724
X137.808Y-75.921
X137.935Y-124.155
X138.316Y-115.087
X141.237Y-136.804
X144.894Y-134.214
X148.069Y-81.28
X149.034Y-80.264
X160.591Y-68.961
X163.335Y-86.639
X170.421Y-124.638
X188.404Y-105.842
X188.633Y-92.532
X189.268Y-104.572
X190.513Y-103.759
X190.97Y-92.558
X191.478Y-105.842
T2
X115.545Y-128.867
X115.545Y-139.027
X115.989Y-92.481
X115.989Y-97.159
X115.989Y-101.837
X115.989Y-106.515
X115.989Y-111.193
X115.989Y-115.871
X115.989Y-120.548
X117.005Y-142.265
X117.259Y-124.993
X119.482Y-128.867
X119.482Y-139.027
X123.609Y-129.692
X123.609Y-137.312
X124.879Y-124.993
X125.133Y-64.795
X125.133Y-67.295
X126.149Y-92.481
X126.149Y-97.159
X126.149Y-101.837
X126.149Y-106.515
X126.149Y-111.193
X126.149Y-115.871
X126.149Y-120.548
X127.165Y-129.819
X127.165Y-137.439
X127.165Y-142.265
X130.213Y-58.739
X130.213Y-61.239
X131.61Y-91.719
X131.61Y-101.879
X131.61Y-105.308
X131.61Y-115.468
X131.61Y-119.024
X131.61Y-129.184
X132.655Y-68.783
X133.769Y-135.661
X134.912Y-49.936
X134.912Y-53.365
X134.912Y-56.794
X134.912Y-60.223
X134.912Y-63.652
X135.155Y-68.783
X136.309Y-119.151
X136.309Y-129.311
X136.309Y-135.661
X136.436Y-105.435
X136.436Y-115.595
X136.563Y-91.719
X136.563Y-101.879
X137.655Y-68.783
X138.849Y-135.661
X141.008Y-119.278
X141.008Y-129.438
X141.135Y-102.34
X141.135Y-104.84
X141.135Y-107.34
X144.031Y-68.809
X145.072Y-49.936
X145.072Y-53.365
X145.072Y-56.794
X145.072Y-60.223
X145.072Y-63.652
X145.453Y-99.72
X145.453Y-102.26
X145.453Y-104.8
X145.453Y-107.34
X145.453Y-109.88
X145.453Y-112.42
X145.453Y-114.96
X145.453Y-120.167
X146.531Y-68.809
X147.993Y-125.882
X147.993Y-133.058
X147.993Y-140.233
X149.031Y-68.809
X150.533Y-125.882
X150.533Y-133.058
X150.533Y-140.233
X152.311Y-85.242
X152.311Y-87.782
X152.311Y-90.322
X152.311Y-92.862
X153.073Y-99.72
X153.073Y-102.26
X153.073Y-104.8
X153.073Y-107.34
X153.073Y-109.88
X153.073Y-112.42
X153.073Y-114.96
X153.073Y-125.882
X153.073Y-133.058
X153.073Y-140.233
X155.105Y-79.781
X155.613Y-120.167
X155.715Y-59.36
X155.715Y-63.081
X155.715Y-66.802
X155.766Y-73.127
X156.883Y-107.38
X156.883Y-109.88
X156.883Y-112.38
X157.605Y-79.781
X158.382Y-98.501
X158.382Y-102.184
X159.931Y-85.242
X159.931Y-87.782
X159.931Y-90.322
X159.931Y-92.862
X160.105Y-79.781
X160.947Y-106.515
X160.947Y-116.675
X164.297Y-84.837
X164.329Y-90.322
X164.503Y-79.019
X164.757Y-106.515
X164.757Y-116.675
X164.757Y-122.199
X164.757Y-129.819
X165.875Y-59.36
X165.875Y-63.081
X165.875Y-66.802
X165.925Y-73.127
X166.829Y-90.322
X167.043Y-79.019
X167.297Y-84.837
X168.504Y-106.515
X168.504Y-116.675
X168.504Y-122.199
X168.504Y-129.819
X168.542Y-98.501
X168.542Y-102.184
X169.297Y-84.837
X169.329Y-90.322
X169.583Y-79.019
X182.207Y-82.982
X182.207Y-85.522
X182.207Y-88.062
X182.207Y-90.602
X182.207Y-93.142
X182.207Y-95.682
X182.207Y-98.222
X182.207Y-100.762
X182.207Y-103.302
X182.207Y-105.842
X182.207Y-108.382
X182.207Y-110.922
X182.207Y-113.462
X182.207Y-116.002
X197.447Y-82.982
X197.447Y-85.522
X197.447Y-88.062
X197.447Y-90.602
X197.447Y-93.142
X197.447Y-95.682
X197.447Y-98.222
X197.447Y-100.762
X197.447Y-103.302
X197.447Y-105.842
X197.447Y-108.382
X197.447Y-110.922
X197.447Y-113.462
X197.447Y-116.002
T3
X105.321Y-92.481
X105.321Y-97.655
X105.321Y-100.195
X105.321Y-105.359
X105.321Y-110.522
X105.321Y-115.686
X105.321Y-120.849
X105.321Y-126.013
X105.321Y-131.176
X105.321Y-136.34
X105.321Y-141.503
X105.829Y-51.841
X105.829Y-54.381
X105.829Y-56.921
X105.829Y-59.461
X105.829Y-62.001
X105.829Y-72.161
X105.829Y-87.401
X107.861Y-92.481
X107.861Y-97.655
X107.861Y-100.195
X107.861Y-105.359
X107.861Y-110.522
X107.861Y-115.686
X107.861Y-120.849
X107.861Y-126.013
X107.861Y-131.176
X107.861Y-136.34
X107.861Y-141.503
X108.369Y-51.841
X108.369Y-54.381
X108.369Y-56.921
X108.369Y-59.461
X108.369Y-62.001
X108.369Y-72.161
X108.369Y-87.401
X110.401Y-97.655
X110.401Y-100.195
X110.401Y-105.359
X110.401Y-110.522
X110.401Y-115.686
X110.401Y-120.849
X110.909Y-72.161
X110.909Y-87.401
X113.449Y-72.161
X113.449Y-87.401
X115.989Y-72.161
X115.989Y-87.401
X118.275Y-57.937
X118.275Y-62.937
X118.529Y-72.161
X118.529Y-87.401
X121.069Y-72.161
X121.069Y-87.401
X123.609Y-72.161
X123.609Y-87.401
X126.149Y-49.635
X126.149Y-54.635
X126.149Y-72.161
X126.149Y-87.401
X128.689Y-72.161
X128.689Y-87.401
X131.229Y-72.161
X131.229Y-87.401
X133.769Y-72.161
X133.769Y-87.401
X136.309Y-72.161
X136.309Y-87.401
X138.849Y-72.161
X138.849Y-87.401
X141.389Y-72.161
X141.389Y-87.401
X155.613Y-50.825
X155.613Y-53.365
X158.153Y-50.825
X158.153Y-53.365
X160.693Y-50.825
X160.693Y-53.365
X163.233Y-50.825
X163.233Y-53.365
X165.773Y-50.825
X165.773Y-53.365
X185.077Y-48.285
X185.077Y-63.525
X185.077Y-68.859
X185.077Y-71.399
X187.617Y-48.285
X187.617Y-63.525
X187.617Y-68.859
X187.617Y-71.399
X190.157Y-48.285
X190.157Y-63.525
X190.157Y-68.859
X190.157Y-71.399
X192.697Y-48.285
X192.697Y-63.525
X192.697Y-68.859
X192.697Y-71.399
X195.237Y-48.285
X195.237Y-63.525
X195.237Y-68.859
X195.237Y-71.399
T4
X131.991Y-142.189
X142.151Y-142.189
X160.947Y-120.929
X160.947Y-131.089
T5
X185.077Y-126.009
X185.077Y-142.239
X191.427Y-126.009
X191.427Y-142.239
X197.777Y-126.009
X197.777Y-142.239
T0
M30
