%FSLAX45Y45*%
G04 Gerber Fmt 4.5, Leading zero omitted, Abs format (unit mm)*
G04 Created by KiCad (PCBNEW (5.1.10)-1) date 2022-09-29 16:57:20*
%MOMM*%
%LPD*%
G01*
G04 APERTURE LIST*
%TA.AperFunction,Profile*%
%ADD10C,0.150000*%
%TD*%
%TA.AperFunction,Profile*%
%ADD11C,0.050000*%
%TD*%
%ADD12C,0.200000*%
%ADD13C,0.300000*%
G04 APERTURE END LIST*
D10*
X18215710Y-12252540D02*
X19715710Y-12252540D01*
X18215710Y-12252540D02*
G75*
G02*
X18215710Y-12052540I0J100000D01*
G01*
X19715710Y-12052540D02*
X18215710Y-12052540D01*
X19715710Y-12052540D02*
G75*
G02*
X19715710Y-12252540I0J-100000D01*
G01*
X18215710Y-7752540D02*
X19715710Y-7752540D01*
X19715710Y-7552540D02*
X18215710Y-7552540D01*
X18215710Y-7752540D02*
G75*
G02*
X18215710Y-7552540I0J100000D01*
G01*
X19715710Y-7552540D02*
G75*
G02*
X19715710Y-7752540I0J-100000D01*
G01*
D11*
X17903010Y-12002540D02*
G75*
G02*
X17703010Y-12002540I-100000J0D01*
G01*
X17702976Y-10198198D02*
X17703010Y-12002540D01*
X17902976Y-10198198D02*
X17903010Y-12002540D01*
X17702976Y-10198198D02*
G75*
G02*
X17902976Y-10198198I100000J0D01*
G01*
X17702976Y-7898198D02*
G75*
G02*
X17902976Y-7898198I100000J0D01*
G01*
X17902976Y-7898198D02*
X17903010Y-9702540D01*
X17702976Y-7898198D02*
X17703010Y-9702540D01*
X17903010Y-9702540D02*
G75*
G02*
X17703010Y-9702540I-100000J0D01*
G01*
X17903010Y-7402540D02*
G75*
G02*
X17703010Y-7402540I-100000J0D01*
G01*
X17702976Y-5002540D02*
X17703010Y-7402540D01*
X17903010Y-5002540D02*
X17903010Y-7402540D01*
X17702976Y-5002540D02*
G75*
G02*
X17902976Y-5002540I100000J0D01*
G01*
X10100310Y-14599940D02*
X10100310Y-4599940D01*
X20100310Y-14599940D02*
X10100310Y-14599940D01*
X20100310Y-4599940D02*
X20100310Y-14599940D01*
X10100310Y-4599940D02*
X20100310Y-4599940D01*
D12*
X11540510Y-4973340D02*
X11860510Y-5293340D01*
X11860510Y-4973340D02*
X11540510Y-5293340D01*
X16747510Y-13787140D02*
X17067510Y-14107140D01*
X17067510Y-13787140D02*
X16747510Y-14107140D01*
D13*
X10384238Y-15068154D02*
X10384238Y-14768154D01*
X10455667Y-14768154D01*
X10498524Y-14782440D01*
X10527096Y-14811011D01*
X10541381Y-14839583D01*
X10555667Y-14896726D01*
X10555667Y-14939583D01*
X10541381Y-14996726D01*
X10527096Y-15025297D01*
X10498524Y-15053869D01*
X10455667Y-15068154D01*
X10384238Y-15068154D01*
X10684238Y-15068154D02*
X10684238Y-14868154D01*
X10684238Y-14925297D02*
X10698524Y-14896726D01*
X10712810Y-14882440D01*
X10741381Y-14868154D01*
X10769953Y-14868154D01*
X10869953Y-15068154D02*
X10869953Y-14868154D01*
X10869953Y-14768154D02*
X10855667Y-14782440D01*
X10869953Y-14796726D01*
X10884238Y-14782440D01*
X10869953Y-14768154D01*
X10869953Y-14796726D01*
X11055667Y-15068154D02*
X11027096Y-15053869D01*
X11012810Y-15025297D01*
X11012810Y-14768154D01*
X11212810Y-15068154D02*
X11184238Y-15053869D01*
X11169953Y-15025297D01*
X11169953Y-14768154D01*
X11555667Y-15068154D02*
X11555667Y-14768154D01*
X11655667Y-14982440D01*
X11755667Y-14768154D01*
X11755667Y-15068154D01*
X12027096Y-15068154D02*
X12027096Y-14911011D01*
X12012810Y-14882440D01*
X11984238Y-14868154D01*
X11927096Y-14868154D01*
X11898524Y-14882440D01*
X12027096Y-15053869D02*
X11998524Y-15068154D01*
X11927096Y-15068154D01*
X11898524Y-15053869D01*
X11884238Y-15025297D01*
X11884238Y-14996726D01*
X11898524Y-14968154D01*
X11927096Y-14953869D01*
X11998524Y-14953869D01*
X12027096Y-14939583D01*
X12169953Y-14868154D02*
X12169953Y-15168154D01*
X12169953Y-14882440D02*
X12198524Y-14868154D01*
X12255667Y-14868154D01*
X12284238Y-14882440D01*
X12298524Y-14896726D01*
X12312810Y-14925297D01*
X12312810Y-15011011D01*
X12298524Y-15039583D01*
X12284238Y-15053869D01*
X12255667Y-15068154D01*
X12198524Y-15068154D01*
X12169953Y-15053869D01*
X12441381Y-15039583D02*
X12455667Y-15053869D01*
X12441381Y-15068154D01*
X12427096Y-15053869D01*
X12441381Y-15039583D01*
X12441381Y-15068154D01*
X12441381Y-14882440D02*
X12455667Y-14896726D01*
X12441381Y-14911011D01*
X12427096Y-14896726D01*
X12441381Y-14882440D01*
X12441381Y-14911011D01*
X9777810Y-15402440D02*
X10097810Y-15722440D01*
X10097810Y-15402440D02*
X9777810Y-15722440D01*
X10355667Y-15398154D02*
X10541381Y-15398154D01*
X10441381Y-15512440D01*
X10484238Y-15512440D01*
X10512810Y-15526726D01*
X10527096Y-15541011D01*
X10541381Y-15569583D01*
X10541381Y-15641011D01*
X10527096Y-15669583D01*
X10512810Y-15683869D01*
X10484238Y-15698154D01*
X10398524Y-15698154D01*
X10369953Y-15683869D01*
X10355667Y-15669583D01*
X10669953Y-15669583D02*
X10684238Y-15683869D01*
X10669953Y-15698154D01*
X10655667Y-15683869D01*
X10669953Y-15669583D01*
X10669953Y-15698154D01*
X10798524Y-15426726D02*
X10812810Y-15412440D01*
X10841381Y-15398154D01*
X10912810Y-15398154D01*
X10941381Y-15412440D01*
X10955667Y-15426726D01*
X10969953Y-15455297D01*
X10969953Y-15483869D01*
X10955667Y-15526726D01*
X10784238Y-15698154D01*
X10969953Y-15698154D01*
X11155667Y-15398154D02*
X11184238Y-15398154D01*
X11212810Y-15412440D01*
X11227096Y-15426726D01*
X11241381Y-15455297D01*
X11255667Y-15512440D01*
X11255667Y-15583869D01*
X11241381Y-15641011D01*
X11227096Y-15669583D01*
X11212810Y-15683869D01*
X11184238Y-15698154D01*
X11155667Y-15698154D01*
X11127096Y-15683869D01*
X11112810Y-15669583D01*
X11098524Y-15641011D01*
X11084238Y-15583869D01*
X11084238Y-15512440D01*
X11098524Y-15455297D01*
X11112810Y-15426726D01*
X11127096Y-15412440D01*
X11155667Y-15398154D01*
X11441381Y-15398154D02*
X11469953Y-15398154D01*
X11498524Y-15412440D01*
X11512810Y-15426726D01*
X11527096Y-15455297D01*
X11541381Y-15512440D01*
X11541381Y-15583869D01*
X11527096Y-15641011D01*
X11512810Y-15669583D01*
X11498524Y-15683869D01*
X11469953Y-15698154D01*
X11441381Y-15698154D01*
X11412810Y-15683869D01*
X11398524Y-15669583D01*
X11384238Y-15641011D01*
X11369953Y-15583869D01*
X11369953Y-15512440D01*
X11384238Y-15455297D01*
X11398524Y-15426726D01*
X11412810Y-15412440D01*
X11441381Y-15398154D01*
X11669953Y-15698154D02*
X11669953Y-15498154D01*
X11669953Y-15526726D02*
X11684238Y-15512440D01*
X11712810Y-15498154D01*
X11755667Y-15498154D01*
X11784238Y-15512440D01*
X11798524Y-15541011D01*
X11798524Y-15698154D01*
X11798524Y-15541011D02*
X11812810Y-15512440D01*
X11841381Y-15498154D01*
X11884238Y-15498154D01*
X11912810Y-15512440D01*
X11927096Y-15541011D01*
X11927096Y-15698154D01*
X12069953Y-15698154D02*
X12069953Y-15498154D01*
X12069953Y-15526726D02*
X12084238Y-15512440D01*
X12112810Y-15498154D01*
X12155667Y-15498154D01*
X12184238Y-15512440D01*
X12198524Y-15541011D01*
X12198524Y-15698154D01*
X12198524Y-15541011D02*
X12212810Y-15512440D01*
X12241381Y-15498154D01*
X12284238Y-15498154D01*
X12312810Y-15512440D01*
X12327096Y-15541011D01*
X12327096Y-15698154D01*
X12912810Y-15383869D02*
X12655667Y-15769583D01*
X13298524Y-15398154D02*
X13327096Y-15398154D01*
X13355667Y-15412440D01*
X13369953Y-15426726D01*
X13384238Y-15455297D01*
X13398524Y-15512440D01*
X13398524Y-15583869D01*
X13384238Y-15641011D01*
X13369953Y-15669583D01*
X13355667Y-15683869D01*
X13327096Y-15698154D01*
X13298524Y-15698154D01*
X13269953Y-15683869D01*
X13255667Y-15669583D01*
X13241381Y-15641011D01*
X13227096Y-15583869D01*
X13227096Y-15512440D01*
X13241381Y-15455297D01*
X13255667Y-15426726D01*
X13269953Y-15412440D01*
X13298524Y-15398154D01*
X13527096Y-15669583D02*
X13541381Y-15683869D01*
X13527096Y-15698154D01*
X13512810Y-15683869D01*
X13527096Y-15669583D01*
X13527096Y-15698154D01*
X13827096Y-15698154D02*
X13655667Y-15698154D01*
X13741381Y-15698154D02*
X13741381Y-15398154D01*
X13712810Y-15441011D01*
X13684238Y-15469583D01*
X13655667Y-15483869D01*
X13941381Y-15426726D02*
X13955667Y-15412440D01*
X13984238Y-15398154D01*
X14055667Y-15398154D01*
X14084238Y-15412440D01*
X14098524Y-15426726D01*
X14112810Y-15455297D01*
X14112810Y-15483869D01*
X14098524Y-15526726D01*
X13927096Y-15698154D01*
X14112810Y-15698154D01*
X14369953Y-15398154D02*
X14312810Y-15398154D01*
X14284238Y-15412440D01*
X14269953Y-15426726D01*
X14241381Y-15469583D01*
X14227096Y-15526726D01*
X14227096Y-15641011D01*
X14241381Y-15669583D01*
X14255667Y-15683869D01*
X14284238Y-15698154D01*
X14341381Y-15698154D01*
X14369953Y-15683869D01*
X14384238Y-15669583D01*
X14398524Y-15641011D01*
X14398524Y-15569583D01*
X14384238Y-15541011D01*
X14369953Y-15526726D01*
X14341381Y-15512440D01*
X14284238Y-15512440D01*
X14255667Y-15526726D01*
X14241381Y-15541011D01*
X14227096Y-15569583D01*
X14584238Y-15398154D02*
X14612810Y-15398154D01*
X14641381Y-15412440D01*
X14655667Y-15426726D01*
X14669953Y-15455297D01*
X14684238Y-15512440D01*
X14684238Y-15583869D01*
X14669953Y-15641011D01*
X14655667Y-15669583D01*
X14641381Y-15683869D01*
X14612810Y-15698154D01*
X14584238Y-15698154D01*
X14555667Y-15683869D01*
X14541381Y-15669583D01*
X14527096Y-15641011D01*
X14512810Y-15583869D01*
X14512810Y-15512440D01*
X14527096Y-15455297D01*
X14541381Y-15426726D01*
X14555667Y-15412440D01*
X14584238Y-15398154D01*
X14798524Y-15398154D02*
X14798524Y-15455297D01*
X14912810Y-15398154D02*
X14912810Y-15455297D01*
X15355667Y-15812440D02*
X15341381Y-15798154D01*
X15312810Y-15755297D01*
X15298524Y-15726726D01*
X15284238Y-15683869D01*
X15269953Y-15612440D01*
X15269953Y-15555297D01*
X15284238Y-15483869D01*
X15298524Y-15441011D01*
X15312810Y-15412440D01*
X15341381Y-15369583D01*
X15355667Y-15355297D01*
X15455667Y-15426726D02*
X15469953Y-15412440D01*
X15498524Y-15398154D01*
X15569953Y-15398154D01*
X15598524Y-15412440D01*
X15612810Y-15426726D01*
X15627096Y-15455297D01*
X15627096Y-15483869D01*
X15612810Y-15526726D01*
X15441381Y-15698154D01*
X15627096Y-15698154D01*
X15984238Y-15698154D02*
X15984238Y-15398154D01*
X16112810Y-15698154D02*
X16112810Y-15541011D01*
X16098524Y-15512440D01*
X16069953Y-15498154D01*
X16027096Y-15498154D01*
X15998524Y-15512440D01*
X15984238Y-15526726D01*
X16298524Y-15698154D02*
X16269953Y-15683869D01*
X16255667Y-15669583D01*
X16241381Y-15641011D01*
X16241381Y-15555297D01*
X16255667Y-15526726D01*
X16269953Y-15512440D01*
X16298524Y-15498154D01*
X16341381Y-15498154D01*
X16369953Y-15512440D01*
X16384238Y-15526726D01*
X16398524Y-15555297D01*
X16398524Y-15641011D01*
X16384238Y-15669583D01*
X16369953Y-15683869D01*
X16341381Y-15698154D01*
X16298524Y-15698154D01*
X16569953Y-15698154D02*
X16541381Y-15683869D01*
X16527096Y-15655297D01*
X16527096Y-15398154D01*
X16798524Y-15683869D02*
X16769953Y-15698154D01*
X16712810Y-15698154D01*
X16684238Y-15683869D01*
X16669953Y-15655297D01*
X16669953Y-15541011D01*
X16684238Y-15512440D01*
X16712810Y-15498154D01*
X16769953Y-15498154D01*
X16798524Y-15512440D01*
X16812810Y-15541011D01*
X16812810Y-15569583D01*
X16669953Y-15598154D01*
X16927096Y-15683869D02*
X16955667Y-15698154D01*
X17012810Y-15698154D01*
X17041381Y-15683869D01*
X17055667Y-15655297D01*
X17055667Y-15641011D01*
X17041381Y-15612440D01*
X17012810Y-15598154D01*
X16969953Y-15598154D01*
X16941381Y-15583869D01*
X16927096Y-15555297D01*
X16927096Y-15541011D01*
X16941381Y-15512440D01*
X16969953Y-15498154D01*
X17012810Y-15498154D01*
X17041381Y-15512440D01*
X17155667Y-15812440D02*
X17169953Y-15798154D01*
X17198524Y-15755297D01*
X17212810Y-15726726D01*
X17227096Y-15683869D01*
X17241381Y-15612440D01*
X17241381Y-15555297D01*
X17227096Y-15483869D01*
X17212810Y-15441011D01*
X17198524Y-15412440D01*
X17169953Y-15369583D01*
X17155667Y-15355297D01*
X17698524Y-15812440D02*
X17684238Y-15798154D01*
X17655667Y-15755297D01*
X17641381Y-15726726D01*
X17627096Y-15683869D01*
X17612810Y-15612440D01*
X17612810Y-15555297D01*
X17627096Y-15483869D01*
X17641381Y-15441011D01*
X17655667Y-15412440D01*
X17684238Y-15369583D01*
X17698524Y-15355297D01*
X17812810Y-15498154D02*
X17812810Y-15698154D01*
X17812810Y-15526726D02*
X17827096Y-15512440D01*
X17855667Y-15498154D01*
X17898524Y-15498154D01*
X17927096Y-15512440D01*
X17941381Y-15541011D01*
X17941381Y-15698154D01*
X18127096Y-15698154D02*
X18098524Y-15683869D01*
X18084238Y-15669583D01*
X18069953Y-15641011D01*
X18069953Y-15555297D01*
X18084238Y-15526726D01*
X18098524Y-15512440D01*
X18127096Y-15498154D01*
X18169953Y-15498154D01*
X18198524Y-15512440D01*
X18212810Y-15526726D01*
X18227096Y-15555297D01*
X18227096Y-15641011D01*
X18212810Y-15669583D01*
X18198524Y-15683869D01*
X18169953Y-15698154D01*
X18127096Y-15698154D01*
X18312810Y-15498154D02*
X18427096Y-15498154D01*
X18355667Y-15398154D02*
X18355667Y-15655297D01*
X18369953Y-15683869D01*
X18398524Y-15698154D01*
X18427096Y-15698154D01*
X18755667Y-15498154D02*
X18755667Y-15798154D01*
X18755667Y-15512440D02*
X18784238Y-15498154D01*
X18841381Y-15498154D01*
X18869953Y-15512440D01*
X18884238Y-15526726D01*
X18898524Y-15555297D01*
X18898524Y-15641011D01*
X18884238Y-15669583D01*
X18869953Y-15683869D01*
X18841381Y-15698154D01*
X18784238Y-15698154D01*
X18755667Y-15683869D01*
X19069953Y-15698154D02*
X19041381Y-15683869D01*
X19027096Y-15655297D01*
X19027096Y-15398154D01*
X19312810Y-15698154D02*
X19312810Y-15541011D01*
X19298524Y-15512440D01*
X19269953Y-15498154D01*
X19212810Y-15498154D01*
X19184238Y-15512440D01*
X19312810Y-15683869D02*
X19284238Y-15698154D01*
X19212810Y-15698154D01*
X19184238Y-15683869D01*
X19169953Y-15655297D01*
X19169953Y-15626726D01*
X19184238Y-15598154D01*
X19212810Y-15583869D01*
X19284238Y-15583869D01*
X19312810Y-15569583D01*
X19412810Y-15498154D02*
X19527096Y-15498154D01*
X19455667Y-15398154D02*
X19455667Y-15655297D01*
X19469953Y-15683869D01*
X19498524Y-15698154D01*
X19527096Y-15698154D01*
X19741381Y-15683869D02*
X19712810Y-15698154D01*
X19655667Y-15698154D01*
X19627096Y-15683869D01*
X19612810Y-15655297D01*
X19612810Y-15541011D01*
X19627096Y-15512440D01*
X19655667Y-15498154D01*
X19712810Y-15498154D01*
X19741381Y-15512440D01*
X19755667Y-15541011D01*
X19755667Y-15569583D01*
X19612810Y-15598154D01*
X20012810Y-15698154D02*
X20012810Y-15398154D01*
X20012810Y-15683869D02*
X19984238Y-15698154D01*
X19927096Y-15698154D01*
X19898524Y-15683869D01*
X19884238Y-15669583D01*
X19869953Y-15641011D01*
X19869953Y-15555297D01*
X19884238Y-15526726D01*
X19898524Y-15512440D01*
X19927096Y-15498154D01*
X19984238Y-15498154D01*
X20012810Y-15512440D01*
X20127096Y-15812440D02*
X20141381Y-15798154D01*
X20169953Y-15755297D01*
X20184238Y-15726726D01*
X20198524Y-15683869D01*
X20212810Y-15612440D01*
X20212810Y-15555297D01*
X20198524Y-15483869D01*
X20184238Y-15441011D01*
X20169953Y-15412440D01*
X20141381Y-15369583D01*
X20127096Y-15355297D01*
M02*
