%TF.GenerationSoftware,KiCad,Pcbnew,(5.1.10)-1*%
%TF.CreationDate,2022-09-29T16:57:18+02:00*%
%TF.ProjectId,Arduino Quantizer TK V1,41726475-696e-46f2-9051-75616e74697a,rev?*%
%TF.SameCoordinates,Original*%
%TF.FileFunction,Profile,NP*%
%FSLAX46Y46*%
G04 Gerber Fmt 4.6, Leading zero omitted, Abs format (unit mm)*
G04 Created by KiCad (PCBNEW (5.1.10)-1) date 2022-09-29 16:57:18*
%MOMM*%
%LPD*%
G01*
G04 APERTURE LIST*
%TA.AperFunction,Profile*%
%ADD10C,0.150000*%
%TD*%
%TA.AperFunction,Profile*%
%ADD11C,0.050000*%
%TD*%
G04 APERTURE END LIST*
D10*
X182157100Y-122525400D02*
X197157100Y-122525400D01*
X182157100Y-122525400D02*
G75*
G02*
X182157100Y-120525400I0J1000000D01*
G01*
X197157100Y-120525400D02*
X182157100Y-120525400D01*
X197157100Y-120525400D02*
G75*
G02*
X197157100Y-122525400I0J-1000000D01*
G01*
X182157100Y-77525400D02*
X197157100Y-77525400D01*
X197157100Y-75525400D02*
X182157100Y-75525400D01*
X182157100Y-77525400D02*
G75*
G02*
X182157100Y-75525400I0J1000000D01*
G01*
X197157100Y-75525400D02*
G75*
G02*
X197157100Y-77525400I0J-1000000D01*
G01*
D11*
X179030100Y-120025400D02*
G75*
G02*
X177030100Y-120025400I-1000000J0D01*
G01*
X177029760Y-101981980D02*
X177030100Y-120025400D01*
X179029760Y-101981980D02*
X179030100Y-120025400D01*
X177029760Y-101981980D02*
G75*
G02*
X179029760Y-101981980I1000000J0D01*
G01*
X177029760Y-78981980D02*
G75*
G02*
X179029760Y-78981980I1000000J0D01*
G01*
X179029760Y-78981980D02*
X179030100Y-97025400D01*
X177029760Y-78981980D02*
X177030100Y-97025400D01*
X179030100Y-97025400D02*
G75*
G02*
X177030100Y-97025400I-1000000J0D01*
G01*
X179030100Y-74025400D02*
G75*
G02*
X177030100Y-74025400I-1000000J0D01*
G01*
X177029760Y-50025400D02*
X177030100Y-74025400D01*
X179030100Y-50025400D02*
X179030100Y-74025400D01*
X177029760Y-50025400D02*
G75*
G02*
X179029760Y-50025400I1000000J0D01*
G01*
X101003100Y-145999400D02*
X101003100Y-45999400D01*
X201003100Y-145999400D02*
X101003100Y-145999400D01*
X201003100Y-45999400D02*
X201003100Y-145999400D01*
X101003100Y-45999400D02*
X201003100Y-45999400D01*
M02*
