%TF.GenerationSoftware,KiCad,Pcbnew,(5.1.10)-1*%
%TF.CreationDate,2022-09-29T16:57:18+02:00*%
%TF.ProjectId,Arduino Quantizer TK V1,41726475-696e-46f2-9051-75616e74697a,rev?*%
%TF.SameCoordinates,Original*%
%TF.FileFunction,Soldermask,Bot*%
%TF.FilePolarity,Negative*%
%FSLAX46Y46*%
G04 Gerber Fmt 4.6, Leading zero omitted, Abs format (unit mm)*
G04 Created by KiCad (PCBNEW (5.1.10)-1) date 2022-09-29 16:57:18*
%MOMM*%
%LPD*%
G01*
G04 APERTURE LIST*
%ADD10O,1.600000X1.600000*%
%ADD11R,1.600000X1.600000*%
%ADD12C,3.200000*%
%ADD13C,1.600000*%
%ADD14R,2.000000X2.000000*%
%ADD15C,2.000000*%
%ADD16R,1.524000X2.524000*%
%ADD17O,1.524000X2.524000*%
%ADD18C,1.700000*%
%ADD19R,1.700000X1.700000*%
%ADD20O,1.700000X1.700000*%
%ADD21O,1.600000X2.400000*%
%ADD22R,2.400000X1.600000*%
%ADD23O,2.400000X1.600000*%
%ADD24C,3.000000*%
%ADD25R,2.200000X2.200000*%
%ADD26O,2.200000X2.200000*%
G04 APERTURE END LIST*
G36*
G01*
X187727300Y-94252400D02*
X187727300Y-94452400D01*
G75*
G02*
X187627300Y-94552400I-100000J0D01*
G01*
X186352300Y-94552400D01*
G75*
G02*
X186252300Y-94452400I0J100000D01*
G01*
X186252300Y-94252400D01*
G75*
G02*
X186352300Y-94152400I100000J0D01*
G01*
X187627300Y-94152400D01*
G75*
G02*
X187727300Y-94252400I0J-100000D01*
G01*
G37*
G36*
G01*
X187727300Y-94902400D02*
X187727300Y-95102400D01*
G75*
G02*
X187627300Y-95202400I-100000J0D01*
G01*
X186352300Y-95202400D01*
G75*
G02*
X186252300Y-95102400I0J100000D01*
G01*
X186252300Y-94902400D01*
G75*
G02*
X186352300Y-94802400I100000J0D01*
G01*
X187627300Y-94802400D01*
G75*
G02*
X187727300Y-94902400I0J-100000D01*
G01*
G37*
G36*
G01*
X187727300Y-95552400D02*
X187727300Y-95752400D01*
G75*
G02*
X187627300Y-95852400I-100000J0D01*
G01*
X186352300Y-95852400D01*
G75*
G02*
X186252300Y-95752400I0J100000D01*
G01*
X186252300Y-95552400D01*
G75*
G02*
X186352300Y-95452400I100000J0D01*
G01*
X187627300Y-95452400D01*
G75*
G02*
X187727300Y-95552400I0J-100000D01*
G01*
G37*
G36*
G01*
X187727300Y-96202400D02*
X187727300Y-96402400D01*
G75*
G02*
X187627300Y-96502400I-100000J0D01*
G01*
X186352300Y-96502400D01*
G75*
G02*
X186252300Y-96402400I0J100000D01*
G01*
X186252300Y-96202400D01*
G75*
G02*
X186352300Y-96102400I100000J0D01*
G01*
X187627300Y-96102400D01*
G75*
G02*
X187727300Y-96202400I0J-100000D01*
G01*
G37*
G36*
G01*
X187727300Y-96852400D02*
X187727300Y-97052400D01*
G75*
G02*
X187627300Y-97152400I-100000J0D01*
G01*
X186352300Y-97152400D01*
G75*
G02*
X186252300Y-97052400I0J100000D01*
G01*
X186252300Y-96852400D01*
G75*
G02*
X186352300Y-96752400I100000J0D01*
G01*
X187627300Y-96752400D01*
G75*
G02*
X187727300Y-96852400I0J-100000D01*
G01*
G37*
G36*
G01*
X187727300Y-97502400D02*
X187727300Y-97702400D01*
G75*
G02*
X187627300Y-97802400I-100000J0D01*
G01*
X186352300Y-97802400D01*
G75*
G02*
X186252300Y-97702400I0J100000D01*
G01*
X186252300Y-97502400D01*
G75*
G02*
X186352300Y-97402400I100000J0D01*
G01*
X187627300Y-97402400D01*
G75*
G02*
X187727300Y-97502400I0J-100000D01*
G01*
G37*
G36*
G01*
X187727300Y-98152400D02*
X187727300Y-98352400D01*
G75*
G02*
X187627300Y-98452400I-100000J0D01*
G01*
X186352300Y-98452400D01*
G75*
G02*
X186252300Y-98352400I0J100000D01*
G01*
X186252300Y-98152400D01*
G75*
G02*
X186352300Y-98052400I100000J0D01*
G01*
X187627300Y-98052400D01*
G75*
G02*
X187727300Y-98152400I0J-100000D01*
G01*
G37*
G36*
G01*
X187727300Y-98802400D02*
X187727300Y-99002400D01*
G75*
G02*
X187627300Y-99102400I-100000J0D01*
G01*
X186352300Y-99102400D01*
G75*
G02*
X186252300Y-99002400I0J100000D01*
G01*
X186252300Y-98802400D01*
G75*
G02*
X186352300Y-98702400I100000J0D01*
G01*
X187627300Y-98702400D01*
G75*
G02*
X187727300Y-98802400I0J-100000D01*
G01*
G37*
G36*
G01*
X187727300Y-99452400D02*
X187727300Y-99652400D01*
G75*
G02*
X187627300Y-99752400I-100000J0D01*
G01*
X186352300Y-99752400D01*
G75*
G02*
X186252300Y-99652400I0J100000D01*
G01*
X186252300Y-99452400D01*
G75*
G02*
X186352300Y-99352400I100000J0D01*
G01*
X187627300Y-99352400D01*
G75*
G02*
X187727300Y-99452400I0J-100000D01*
G01*
G37*
G36*
G01*
X187727300Y-100102400D02*
X187727300Y-100302400D01*
G75*
G02*
X187627300Y-100402400I-100000J0D01*
G01*
X186352300Y-100402400D01*
G75*
G02*
X186252300Y-100302400I0J100000D01*
G01*
X186252300Y-100102400D01*
G75*
G02*
X186352300Y-100002400I100000J0D01*
G01*
X187627300Y-100002400D01*
G75*
G02*
X187727300Y-100102400I0J-100000D01*
G01*
G37*
G36*
G01*
X187727300Y-100752400D02*
X187727300Y-100952400D01*
G75*
G02*
X187627300Y-101052400I-100000J0D01*
G01*
X186352300Y-101052400D01*
G75*
G02*
X186252300Y-100952400I0J100000D01*
G01*
X186252300Y-100752400D01*
G75*
G02*
X186352300Y-100652400I100000J0D01*
G01*
X187627300Y-100652400D01*
G75*
G02*
X187727300Y-100752400I0J-100000D01*
G01*
G37*
G36*
G01*
X187727300Y-101402400D02*
X187727300Y-101602400D01*
G75*
G02*
X187627300Y-101702400I-100000J0D01*
G01*
X186352300Y-101702400D01*
G75*
G02*
X186252300Y-101602400I0J100000D01*
G01*
X186252300Y-101402400D01*
G75*
G02*
X186352300Y-101302400I100000J0D01*
G01*
X187627300Y-101302400D01*
G75*
G02*
X187727300Y-101402400I0J-100000D01*
G01*
G37*
G36*
G01*
X187727300Y-102052400D02*
X187727300Y-102252400D01*
G75*
G02*
X187627300Y-102352400I-100000J0D01*
G01*
X186352300Y-102352400D01*
G75*
G02*
X186252300Y-102252400I0J100000D01*
G01*
X186252300Y-102052400D01*
G75*
G02*
X186352300Y-101952400I100000J0D01*
G01*
X187627300Y-101952400D01*
G75*
G02*
X187727300Y-102052400I0J-100000D01*
G01*
G37*
G36*
G01*
X187727300Y-102702400D02*
X187727300Y-102902400D01*
G75*
G02*
X187627300Y-103002400I-100000J0D01*
G01*
X186352300Y-103002400D01*
G75*
G02*
X186252300Y-102902400I0J100000D01*
G01*
X186252300Y-102702400D01*
G75*
G02*
X186352300Y-102602400I100000J0D01*
G01*
X187627300Y-102602400D01*
G75*
G02*
X187727300Y-102702400I0J-100000D01*
G01*
G37*
G36*
G01*
X193452300Y-102702400D02*
X193452300Y-102902400D01*
G75*
G02*
X193352300Y-103002400I-100000J0D01*
G01*
X192077300Y-103002400D01*
G75*
G02*
X191977300Y-102902400I0J100000D01*
G01*
X191977300Y-102702400D01*
G75*
G02*
X192077300Y-102602400I100000J0D01*
G01*
X193352300Y-102602400D01*
G75*
G02*
X193452300Y-102702400I0J-100000D01*
G01*
G37*
G36*
G01*
X193452300Y-102052400D02*
X193452300Y-102252400D01*
G75*
G02*
X193352300Y-102352400I-100000J0D01*
G01*
X192077300Y-102352400D01*
G75*
G02*
X191977300Y-102252400I0J100000D01*
G01*
X191977300Y-102052400D01*
G75*
G02*
X192077300Y-101952400I100000J0D01*
G01*
X193352300Y-101952400D01*
G75*
G02*
X193452300Y-102052400I0J-100000D01*
G01*
G37*
G36*
G01*
X193452300Y-101402400D02*
X193452300Y-101602400D01*
G75*
G02*
X193352300Y-101702400I-100000J0D01*
G01*
X192077300Y-101702400D01*
G75*
G02*
X191977300Y-101602400I0J100000D01*
G01*
X191977300Y-101402400D01*
G75*
G02*
X192077300Y-101302400I100000J0D01*
G01*
X193352300Y-101302400D01*
G75*
G02*
X193452300Y-101402400I0J-100000D01*
G01*
G37*
G36*
G01*
X193452300Y-100752400D02*
X193452300Y-100952400D01*
G75*
G02*
X193352300Y-101052400I-100000J0D01*
G01*
X192077300Y-101052400D01*
G75*
G02*
X191977300Y-100952400I0J100000D01*
G01*
X191977300Y-100752400D01*
G75*
G02*
X192077300Y-100652400I100000J0D01*
G01*
X193352300Y-100652400D01*
G75*
G02*
X193452300Y-100752400I0J-100000D01*
G01*
G37*
G36*
G01*
X193452300Y-100102400D02*
X193452300Y-100302400D01*
G75*
G02*
X193352300Y-100402400I-100000J0D01*
G01*
X192077300Y-100402400D01*
G75*
G02*
X191977300Y-100302400I0J100000D01*
G01*
X191977300Y-100102400D01*
G75*
G02*
X192077300Y-100002400I100000J0D01*
G01*
X193352300Y-100002400D01*
G75*
G02*
X193452300Y-100102400I0J-100000D01*
G01*
G37*
G36*
G01*
X193452300Y-99452400D02*
X193452300Y-99652400D01*
G75*
G02*
X193352300Y-99752400I-100000J0D01*
G01*
X192077300Y-99752400D01*
G75*
G02*
X191977300Y-99652400I0J100000D01*
G01*
X191977300Y-99452400D01*
G75*
G02*
X192077300Y-99352400I100000J0D01*
G01*
X193352300Y-99352400D01*
G75*
G02*
X193452300Y-99452400I0J-100000D01*
G01*
G37*
G36*
G01*
X193452300Y-98802400D02*
X193452300Y-99002400D01*
G75*
G02*
X193352300Y-99102400I-100000J0D01*
G01*
X192077300Y-99102400D01*
G75*
G02*
X191977300Y-99002400I0J100000D01*
G01*
X191977300Y-98802400D01*
G75*
G02*
X192077300Y-98702400I100000J0D01*
G01*
X193352300Y-98702400D01*
G75*
G02*
X193452300Y-98802400I0J-100000D01*
G01*
G37*
G36*
G01*
X193452300Y-98152400D02*
X193452300Y-98352400D01*
G75*
G02*
X193352300Y-98452400I-100000J0D01*
G01*
X192077300Y-98452400D01*
G75*
G02*
X191977300Y-98352400I0J100000D01*
G01*
X191977300Y-98152400D01*
G75*
G02*
X192077300Y-98052400I100000J0D01*
G01*
X193352300Y-98052400D01*
G75*
G02*
X193452300Y-98152400I0J-100000D01*
G01*
G37*
G36*
G01*
X193452300Y-97502400D02*
X193452300Y-97702400D01*
G75*
G02*
X193352300Y-97802400I-100000J0D01*
G01*
X192077300Y-97802400D01*
G75*
G02*
X191977300Y-97702400I0J100000D01*
G01*
X191977300Y-97502400D01*
G75*
G02*
X192077300Y-97402400I100000J0D01*
G01*
X193352300Y-97402400D01*
G75*
G02*
X193452300Y-97502400I0J-100000D01*
G01*
G37*
G36*
G01*
X193452300Y-96852400D02*
X193452300Y-97052400D01*
G75*
G02*
X193352300Y-97152400I-100000J0D01*
G01*
X192077300Y-97152400D01*
G75*
G02*
X191977300Y-97052400I0J100000D01*
G01*
X191977300Y-96852400D01*
G75*
G02*
X192077300Y-96752400I100000J0D01*
G01*
X193352300Y-96752400D01*
G75*
G02*
X193452300Y-96852400I0J-100000D01*
G01*
G37*
G36*
G01*
X193452300Y-96202400D02*
X193452300Y-96402400D01*
G75*
G02*
X193352300Y-96502400I-100000J0D01*
G01*
X192077300Y-96502400D01*
G75*
G02*
X191977300Y-96402400I0J100000D01*
G01*
X191977300Y-96202400D01*
G75*
G02*
X192077300Y-96102400I100000J0D01*
G01*
X193352300Y-96102400D01*
G75*
G02*
X193452300Y-96202400I0J-100000D01*
G01*
G37*
G36*
G01*
X193452300Y-95552400D02*
X193452300Y-95752400D01*
G75*
G02*
X193352300Y-95852400I-100000J0D01*
G01*
X192077300Y-95852400D01*
G75*
G02*
X191977300Y-95752400I0J100000D01*
G01*
X191977300Y-95552400D01*
G75*
G02*
X192077300Y-95452400I100000J0D01*
G01*
X193352300Y-95452400D01*
G75*
G02*
X193452300Y-95552400I0J-100000D01*
G01*
G37*
G36*
G01*
X193452300Y-94902400D02*
X193452300Y-95102400D01*
G75*
G02*
X193352300Y-95202400I-100000J0D01*
G01*
X192077300Y-95202400D01*
G75*
G02*
X191977300Y-95102400I0J100000D01*
G01*
X191977300Y-94902400D01*
G75*
G02*
X192077300Y-94802400I100000J0D01*
G01*
X193352300Y-94802400D01*
G75*
G02*
X193452300Y-94902400I0J-100000D01*
G01*
G37*
G36*
G01*
X193452300Y-94252400D02*
X193452300Y-94452400D01*
G75*
G02*
X193352300Y-94552400I-100000J0D01*
G01*
X192077300Y-94552400D01*
G75*
G02*
X191977300Y-94452400I0J100000D01*
G01*
X191977300Y-94252400D01*
G75*
G02*
X192077300Y-94152400I100000J0D01*
G01*
X193352300Y-94152400D01*
G75*
G02*
X193452300Y-94252400I0J-100000D01*
G01*
G37*
D10*
X197446900Y-82981800D03*
X182206900Y-116001800D03*
X197446900Y-85521800D03*
X182206900Y-113461800D03*
X197446900Y-88061800D03*
X182206900Y-110921800D03*
X197446900Y-90601800D03*
X182206900Y-108381800D03*
X197446900Y-93141800D03*
X182206900Y-105841800D03*
X197446900Y-95681800D03*
X182206900Y-103301800D03*
X197446900Y-98221800D03*
X182206900Y-100761800D03*
X197446900Y-100761800D03*
X182206900Y-98221800D03*
X197446900Y-103301800D03*
X182206900Y-95681800D03*
X197446900Y-105841800D03*
X182206900Y-93141800D03*
X197446900Y-108381800D03*
X182206900Y-90601800D03*
X197446900Y-110921800D03*
X182206900Y-88061800D03*
X197446900Y-113461800D03*
X182206900Y-85521800D03*
X197446900Y-116001800D03*
D11*
X182206900Y-82981800D03*
G36*
G01*
X186877300Y-94252400D02*
X186877300Y-94452400D01*
G75*
G02*
X186777300Y-94552400I-100000J0D01*
G01*
X185502300Y-94552400D01*
G75*
G02*
X185402300Y-94452400I0J100000D01*
G01*
X185402300Y-94252400D01*
G75*
G02*
X185502300Y-94152400I100000J0D01*
G01*
X186777300Y-94152400D01*
G75*
G02*
X186877300Y-94252400I0J-100000D01*
G01*
G37*
G36*
G01*
X186877300Y-94902400D02*
X186877300Y-95102400D01*
G75*
G02*
X186777300Y-95202400I-100000J0D01*
G01*
X185502300Y-95202400D01*
G75*
G02*
X185402300Y-95102400I0J100000D01*
G01*
X185402300Y-94902400D01*
G75*
G02*
X185502300Y-94802400I100000J0D01*
G01*
X186777300Y-94802400D01*
G75*
G02*
X186877300Y-94902400I0J-100000D01*
G01*
G37*
G36*
G01*
X186877300Y-95552400D02*
X186877300Y-95752400D01*
G75*
G02*
X186777300Y-95852400I-100000J0D01*
G01*
X185502300Y-95852400D01*
G75*
G02*
X185402300Y-95752400I0J100000D01*
G01*
X185402300Y-95552400D01*
G75*
G02*
X185502300Y-95452400I100000J0D01*
G01*
X186777300Y-95452400D01*
G75*
G02*
X186877300Y-95552400I0J-100000D01*
G01*
G37*
G36*
G01*
X186877300Y-96202400D02*
X186877300Y-96402400D01*
G75*
G02*
X186777300Y-96502400I-100000J0D01*
G01*
X185502300Y-96502400D01*
G75*
G02*
X185402300Y-96402400I0J100000D01*
G01*
X185402300Y-96202400D01*
G75*
G02*
X185502300Y-96102400I100000J0D01*
G01*
X186777300Y-96102400D01*
G75*
G02*
X186877300Y-96202400I0J-100000D01*
G01*
G37*
G36*
G01*
X186877300Y-96852400D02*
X186877300Y-97052400D01*
G75*
G02*
X186777300Y-97152400I-100000J0D01*
G01*
X185502300Y-97152400D01*
G75*
G02*
X185402300Y-97052400I0J100000D01*
G01*
X185402300Y-96852400D01*
G75*
G02*
X185502300Y-96752400I100000J0D01*
G01*
X186777300Y-96752400D01*
G75*
G02*
X186877300Y-96852400I0J-100000D01*
G01*
G37*
G36*
G01*
X186877300Y-97502400D02*
X186877300Y-97702400D01*
G75*
G02*
X186777300Y-97802400I-100000J0D01*
G01*
X185502300Y-97802400D01*
G75*
G02*
X185402300Y-97702400I0J100000D01*
G01*
X185402300Y-97502400D01*
G75*
G02*
X185502300Y-97402400I100000J0D01*
G01*
X186777300Y-97402400D01*
G75*
G02*
X186877300Y-97502400I0J-100000D01*
G01*
G37*
G36*
G01*
X186877300Y-98152400D02*
X186877300Y-98352400D01*
G75*
G02*
X186777300Y-98452400I-100000J0D01*
G01*
X185502300Y-98452400D01*
G75*
G02*
X185402300Y-98352400I0J100000D01*
G01*
X185402300Y-98152400D01*
G75*
G02*
X185502300Y-98052400I100000J0D01*
G01*
X186777300Y-98052400D01*
G75*
G02*
X186877300Y-98152400I0J-100000D01*
G01*
G37*
G36*
G01*
X186877300Y-98802400D02*
X186877300Y-99002400D01*
G75*
G02*
X186777300Y-99102400I-100000J0D01*
G01*
X185502300Y-99102400D01*
G75*
G02*
X185402300Y-99002400I0J100000D01*
G01*
X185402300Y-98802400D01*
G75*
G02*
X185502300Y-98702400I100000J0D01*
G01*
X186777300Y-98702400D01*
G75*
G02*
X186877300Y-98802400I0J-100000D01*
G01*
G37*
G36*
G01*
X186877300Y-99452400D02*
X186877300Y-99652400D01*
G75*
G02*
X186777300Y-99752400I-100000J0D01*
G01*
X185502300Y-99752400D01*
G75*
G02*
X185402300Y-99652400I0J100000D01*
G01*
X185402300Y-99452400D01*
G75*
G02*
X185502300Y-99352400I100000J0D01*
G01*
X186777300Y-99352400D01*
G75*
G02*
X186877300Y-99452400I0J-100000D01*
G01*
G37*
G36*
G01*
X186877300Y-100102400D02*
X186877300Y-100302400D01*
G75*
G02*
X186777300Y-100402400I-100000J0D01*
G01*
X185502300Y-100402400D01*
G75*
G02*
X185402300Y-100302400I0J100000D01*
G01*
X185402300Y-100102400D01*
G75*
G02*
X185502300Y-100002400I100000J0D01*
G01*
X186777300Y-100002400D01*
G75*
G02*
X186877300Y-100102400I0J-100000D01*
G01*
G37*
G36*
G01*
X186877300Y-100752400D02*
X186877300Y-100952400D01*
G75*
G02*
X186777300Y-101052400I-100000J0D01*
G01*
X185502300Y-101052400D01*
G75*
G02*
X185402300Y-100952400I0J100000D01*
G01*
X185402300Y-100752400D01*
G75*
G02*
X185502300Y-100652400I100000J0D01*
G01*
X186777300Y-100652400D01*
G75*
G02*
X186877300Y-100752400I0J-100000D01*
G01*
G37*
G36*
G01*
X186877300Y-101402400D02*
X186877300Y-101602400D01*
G75*
G02*
X186777300Y-101702400I-100000J0D01*
G01*
X185502300Y-101702400D01*
G75*
G02*
X185402300Y-101602400I0J100000D01*
G01*
X185402300Y-101402400D01*
G75*
G02*
X185502300Y-101302400I100000J0D01*
G01*
X186777300Y-101302400D01*
G75*
G02*
X186877300Y-101402400I0J-100000D01*
G01*
G37*
G36*
G01*
X186877300Y-102052400D02*
X186877300Y-102252400D01*
G75*
G02*
X186777300Y-102352400I-100000J0D01*
G01*
X185502300Y-102352400D01*
G75*
G02*
X185402300Y-102252400I0J100000D01*
G01*
X185402300Y-102052400D01*
G75*
G02*
X185502300Y-101952400I100000J0D01*
G01*
X186777300Y-101952400D01*
G75*
G02*
X186877300Y-102052400I0J-100000D01*
G01*
G37*
G36*
G01*
X186877300Y-102702400D02*
X186877300Y-102902400D01*
G75*
G02*
X186777300Y-103002400I-100000J0D01*
G01*
X185502300Y-103002400D01*
G75*
G02*
X185402300Y-102902400I0J100000D01*
G01*
X185402300Y-102702400D01*
G75*
G02*
X185502300Y-102602400I100000J0D01*
G01*
X186777300Y-102602400D01*
G75*
G02*
X186877300Y-102702400I0J-100000D01*
G01*
G37*
G36*
G01*
X194302300Y-102702400D02*
X194302300Y-102902400D01*
G75*
G02*
X194202300Y-103002400I-100000J0D01*
G01*
X192927300Y-103002400D01*
G75*
G02*
X192827300Y-102902400I0J100000D01*
G01*
X192827300Y-102702400D01*
G75*
G02*
X192927300Y-102602400I100000J0D01*
G01*
X194202300Y-102602400D01*
G75*
G02*
X194302300Y-102702400I0J-100000D01*
G01*
G37*
G36*
G01*
X194302300Y-102052400D02*
X194302300Y-102252400D01*
G75*
G02*
X194202300Y-102352400I-100000J0D01*
G01*
X192927300Y-102352400D01*
G75*
G02*
X192827300Y-102252400I0J100000D01*
G01*
X192827300Y-102052400D01*
G75*
G02*
X192927300Y-101952400I100000J0D01*
G01*
X194202300Y-101952400D01*
G75*
G02*
X194302300Y-102052400I0J-100000D01*
G01*
G37*
G36*
G01*
X194302300Y-101402400D02*
X194302300Y-101602400D01*
G75*
G02*
X194202300Y-101702400I-100000J0D01*
G01*
X192927300Y-101702400D01*
G75*
G02*
X192827300Y-101602400I0J100000D01*
G01*
X192827300Y-101402400D01*
G75*
G02*
X192927300Y-101302400I100000J0D01*
G01*
X194202300Y-101302400D01*
G75*
G02*
X194302300Y-101402400I0J-100000D01*
G01*
G37*
G36*
G01*
X194302300Y-100752400D02*
X194302300Y-100952400D01*
G75*
G02*
X194202300Y-101052400I-100000J0D01*
G01*
X192927300Y-101052400D01*
G75*
G02*
X192827300Y-100952400I0J100000D01*
G01*
X192827300Y-100752400D01*
G75*
G02*
X192927300Y-100652400I100000J0D01*
G01*
X194202300Y-100652400D01*
G75*
G02*
X194302300Y-100752400I0J-100000D01*
G01*
G37*
G36*
G01*
X194302300Y-100102400D02*
X194302300Y-100302400D01*
G75*
G02*
X194202300Y-100402400I-100000J0D01*
G01*
X192927300Y-100402400D01*
G75*
G02*
X192827300Y-100302400I0J100000D01*
G01*
X192827300Y-100102400D01*
G75*
G02*
X192927300Y-100002400I100000J0D01*
G01*
X194202300Y-100002400D01*
G75*
G02*
X194302300Y-100102400I0J-100000D01*
G01*
G37*
G36*
G01*
X194302300Y-99452400D02*
X194302300Y-99652400D01*
G75*
G02*
X194202300Y-99752400I-100000J0D01*
G01*
X192927300Y-99752400D01*
G75*
G02*
X192827300Y-99652400I0J100000D01*
G01*
X192827300Y-99452400D01*
G75*
G02*
X192927300Y-99352400I100000J0D01*
G01*
X194202300Y-99352400D01*
G75*
G02*
X194302300Y-99452400I0J-100000D01*
G01*
G37*
G36*
G01*
X194302300Y-98802400D02*
X194302300Y-99002400D01*
G75*
G02*
X194202300Y-99102400I-100000J0D01*
G01*
X192927300Y-99102400D01*
G75*
G02*
X192827300Y-99002400I0J100000D01*
G01*
X192827300Y-98802400D01*
G75*
G02*
X192927300Y-98702400I100000J0D01*
G01*
X194202300Y-98702400D01*
G75*
G02*
X194302300Y-98802400I0J-100000D01*
G01*
G37*
G36*
G01*
X194302300Y-98152400D02*
X194302300Y-98352400D01*
G75*
G02*
X194202300Y-98452400I-100000J0D01*
G01*
X192927300Y-98452400D01*
G75*
G02*
X192827300Y-98352400I0J100000D01*
G01*
X192827300Y-98152400D01*
G75*
G02*
X192927300Y-98052400I100000J0D01*
G01*
X194202300Y-98052400D01*
G75*
G02*
X194302300Y-98152400I0J-100000D01*
G01*
G37*
G36*
G01*
X194302300Y-97502400D02*
X194302300Y-97702400D01*
G75*
G02*
X194202300Y-97802400I-100000J0D01*
G01*
X192927300Y-97802400D01*
G75*
G02*
X192827300Y-97702400I0J100000D01*
G01*
X192827300Y-97502400D01*
G75*
G02*
X192927300Y-97402400I100000J0D01*
G01*
X194202300Y-97402400D01*
G75*
G02*
X194302300Y-97502400I0J-100000D01*
G01*
G37*
G36*
G01*
X194302300Y-96852400D02*
X194302300Y-97052400D01*
G75*
G02*
X194202300Y-97152400I-100000J0D01*
G01*
X192927300Y-97152400D01*
G75*
G02*
X192827300Y-97052400I0J100000D01*
G01*
X192827300Y-96852400D01*
G75*
G02*
X192927300Y-96752400I100000J0D01*
G01*
X194202300Y-96752400D01*
G75*
G02*
X194302300Y-96852400I0J-100000D01*
G01*
G37*
G36*
G01*
X194302300Y-96202400D02*
X194302300Y-96402400D01*
G75*
G02*
X194202300Y-96502400I-100000J0D01*
G01*
X192927300Y-96502400D01*
G75*
G02*
X192827300Y-96402400I0J100000D01*
G01*
X192827300Y-96202400D01*
G75*
G02*
X192927300Y-96102400I100000J0D01*
G01*
X194202300Y-96102400D01*
G75*
G02*
X194302300Y-96202400I0J-100000D01*
G01*
G37*
G36*
G01*
X194302300Y-95552400D02*
X194302300Y-95752400D01*
G75*
G02*
X194202300Y-95852400I-100000J0D01*
G01*
X192927300Y-95852400D01*
G75*
G02*
X192827300Y-95752400I0J100000D01*
G01*
X192827300Y-95552400D01*
G75*
G02*
X192927300Y-95452400I100000J0D01*
G01*
X194202300Y-95452400D01*
G75*
G02*
X194302300Y-95552400I0J-100000D01*
G01*
G37*
G36*
G01*
X194302300Y-94902400D02*
X194302300Y-95102400D01*
G75*
G02*
X194202300Y-95202400I-100000J0D01*
G01*
X192927300Y-95202400D01*
G75*
G02*
X192827300Y-95102400I0J100000D01*
G01*
X192827300Y-94902400D01*
G75*
G02*
X192927300Y-94802400I100000J0D01*
G01*
X194202300Y-94802400D01*
G75*
G02*
X194302300Y-94902400I0J-100000D01*
G01*
G37*
G36*
G01*
X194302300Y-94252400D02*
X194302300Y-94452400D01*
G75*
G02*
X194202300Y-94552400I-100000J0D01*
G01*
X192927300Y-94552400D01*
G75*
G02*
X192827300Y-94452400I0J100000D01*
G01*
X192827300Y-94252400D01*
G75*
G02*
X192927300Y-94152400I100000J0D01*
G01*
X194202300Y-94152400D01*
G75*
G02*
X194302300Y-94252400I0J-100000D01*
G01*
G37*
D12*
X169075100Y-139471400D03*
X117005100Y-51333400D03*
D11*
X130213100Y-61239400D03*
D13*
X130213100Y-58739400D03*
D11*
X125133100Y-64795400D03*
D13*
X125133100Y-67295400D03*
D14*
X126149100Y-49635400D03*
D15*
X126149100Y-54635400D03*
D14*
X118275100Y-57937400D03*
D15*
X118275100Y-62937400D03*
D16*
X195237100Y-63525400D03*
D17*
X192697100Y-63525400D03*
X190157100Y-63525400D03*
X187617100Y-63525400D03*
X185077100Y-63525400D03*
X185077100Y-48285400D03*
X187617100Y-48285400D03*
X190157100Y-48285400D03*
X192697100Y-48285400D03*
X195237100Y-48285400D03*
G36*
G01*
X185677100Y-72249400D02*
X184477100Y-72249400D01*
G75*
G02*
X184227100Y-71999400I0J250000D01*
G01*
X184227100Y-70799400D01*
G75*
G02*
X184477100Y-70549400I250000J0D01*
G01*
X185677100Y-70549400D01*
G75*
G02*
X185927100Y-70799400I0J-250000D01*
G01*
X185927100Y-71999400D01*
G75*
G02*
X185677100Y-72249400I-250000J0D01*
G01*
G37*
D18*
X187617100Y-71399400D03*
X190157100Y-71399400D03*
X192697100Y-71399400D03*
X195237100Y-71399400D03*
X185077100Y-68859400D03*
X187617100Y-68859400D03*
X190157100Y-68859400D03*
X192697100Y-68859400D03*
X195237100Y-68859400D03*
G36*
G01*
X104979100Y-52441400D02*
X104979100Y-51241400D01*
G75*
G02*
X105229100Y-50991400I250000J0D01*
G01*
X106429100Y-50991400D01*
G75*
G02*
X106679100Y-51241400I0J-250000D01*
G01*
X106679100Y-52441400D01*
G75*
G02*
X106429100Y-52691400I-250000J0D01*
G01*
X105229100Y-52691400D01*
G75*
G02*
X104979100Y-52441400I0J250000D01*
G01*
G37*
X105829100Y-54381400D03*
X105829100Y-56921400D03*
X105829100Y-59461400D03*
X105829100Y-62001400D03*
X108369100Y-51841400D03*
X108369100Y-54381400D03*
X108369100Y-56921400D03*
X108369100Y-59461400D03*
X108369100Y-62001400D03*
D19*
X105321100Y-105358510D03*
D20*
X107861100Y-105358510D03*
X110401100Y-105358510D03*
D19*
X105321100Y-92481400D03*
D20*
X107861100Y-92481400D03*
G36*
G01*
X165173100Y-49975400D02*
X166373100Y-49975400D01*
G75*
G02*
X166623100Y-50225400I0J-250000D01*
G01*
X166623100Y-51425400D01*
G75*
G02*
X166373100Y-51675400I-250000J0D01*
G01*
X165173100Y-51675400D01*
G75*
G02*
X164923100Y-51425400I0J250000D01*
G01*
X164923100Y-50225400D01*
G75*
G02*
X165173100Y-49975400I250000J0D01*
G01*
G37*
D18*
X163233100Y-50825400D03*
X160693100Y-50825400D03*
X158153100Y-50825400D03*
X155613100Y-50825400D03*
X165773100Y-53365400D03*
X163233100Y-53365400D03*
X160693100Y-53365400D03*
X158153100Y-53365400D03*
X155613100Y-53365400D03*
D21*
X153073100Y-140233400D03*
X150533100Y-140233400D03*
X147993100Y-140233400D03*
X153073100Y-133057900D03*
X150533100Y-133057900D03*
X147993100Y-133057900D03*
X138849100Y-135661400D03*
X133769100Y-135661400D03*
X136309100Y-135661400D03*
D22*
X152311100Y-85242400D03*
D23*
X159931100Y-92862400D03*
X152311100Y-87782400D03*
X159931100Y-90322400D03*
X152311100Y-90322400D03*
X159931100Y-87782400D03*
X152311100Y-92862400D03*
X159931100Y-85242400D03*
D22*
X145453100Y-99720400D03*
D23*
X153073100Y-114960400D03*
X145453100Y-102260400D03*
X153073100Y-112420400D03*
X145453100Y-104800400D03*
X153073100Y-109880400D03*
X145453100Y-107340400D03*
X153073100Y-107340400D03*
X145453100Y-109880400D03*
X153073100Y-104800400D03*
X145453100Y-112420400D03*
X153073100Y-102260400D03*
X145453100Y-114960400D03*
X153073100Y-99720400D03*
D19*
X105321100Y-120849175D03*
D20*
X107861100Y-120849175D03*
X110401100Y-120849175D03*
D19*
X105321100Y-115685620D03*
D20*
X107861100Y-115685620D03*
X110401100Y-115685620D03*
D19*
X105321100Y-110522065D03*
D20*
X107861100Y-110522065D03*
X110401100Y-110522065D03*
D19*
X105321100Y-100194955D03*
D20*
X105321100Y-97654955D03*
X107861100Y-100194955D03*
X107861100Y-97654955D03*
X110401100Y-100194955D03*
X110401100Y-97654955D03*
D21*
X153073100Y-125882400D03*
X150533100Y-125882400D03*
X147993100Y-125882400D03*
D13*
X126149100Y-120548400D03*
D10*
X115989100Y-120548400D03*
D13*
X126149100Y-115870565D03*
D10*
X115989100Y-115870565D03*
D13*
X126149100Y-111192732D03*
D10*
X115989100Y-111192732D03*
D13*
X126149100Y-106514899D03*
D10*
X115989100Y-106514899D03*
D13*
X131610100Y-129184400D03*
D10*
X131610100Y-119024400D03*
D13*
X131610100Y-115468400D03*
D10*
X131610100Y-105308400D03*
D13*
X136436100Y-105435400D03*
D10*
X136436100Y-115595400D03*
D13*
X165925500Y-73126600D03*
D10*
X155765500Y-73126600D03*
D13*
X145453100Y-120167400D03*
D10*
X155613100Y-120167400D03*
D13*
X126149100Y-92481400D03*
D10*
X115989100Y-92481400D03*
D13*
X136563100Y-101879400D03*
D10*
X136563100Y-91719400D03*
D13*
X141008100Y-119278400D03*
D10*
X141008100Y-129438400D03*
D13*
X136309100Y-129311400D03*
D10*
X136309100Y-119151400D03*
D13*
X117005100Y-142265400D03*
D10*
X127165100Y-142265400D03*
D13*
X131610100Y-91719400D03*
D10*
X131610100Y-101879400D03*
D13*
X115544600Y-139026900D03*
D10*
X115544600Y-128866900D03*
D13*
X119481600Y-139026900D03*
D10*
X119481600Y-128866900D03*
D13*
X145072100Y-49936400D03*
D10*
X134912100Y-49936400D03*
D13*
X145072100Y-53365400D03*
D10*
X134912100Y-53365400D03*
D13*
X158381700Y-102184200D03*
D10*
X168541700Y-102184200D03*
D13*
X145072100Y-56794400D03*
D10*
X134912100Y-56794400D03*
D13*
X145072100Y-60223400D03*
D10*
X134912100Y-60223400D03*
D13*
X126149100Y-101837066D03*
D10*
X115989100Y-101837066D03*
D13*
X158381700Y-98501200D03*
D10*
X168541700Y-98501200D03*
D13*
X145072100Y-63652400D03*
D10*
X134912100Y-63652400D03*
D13*
X165874700Y-59359800D03*
D10*
X155714700Y-59359800D03*
D13*
X165874700Y-63080900D03*
D10*
X155714700Y-63080900D03*
D13*
X165874700Y-66802000D03*
D10*
X155714700Y-66802000D03*
D13*
X126149100Y-97159233D03*
D10*
X115989100Y-97159233D03*
D13*
X160947100Y-116674900D03*
D10*
X160947100Y-106514900D03*
D13*
X168503600Y-106514900D03*
D10*
X168503600Y-116674900D03*
D13*
X164757100Y-106514900D03*
D10*
X164757100Y-116674900D03*
D24*
X191427100Y-126009400D03*
X197777100Y-126009400D03*
X185077100Y-126009400D03*
X191427100Y-142239400D03*
X197777100Y-142239400D03*
X185077100Y-142239400D03*
D19*
X105321100Y-141503400D03*
D20*
X107861100Y-141503400D03*
D19*
X105321100Y-136339840D03*
D20*
X107861100Y-136339840D03*
D19*
X105321100Y-131176285D03*
D20*
X107861100Y-131176285D03*
D19*
X105321100Y-126012730D03*
D20*
X107861100Y-126012730D03*
D21*
X164503100Y-79019400D03*
X169583100Y-79019400D03*
X167043100Y-79019400D03*
D11*
X127165100Y-129819400D03*
D10*
X127165100Y-137439400D03*
D25*
X131991100Y-142189200D03*
D26*
X142151100Y-142189200D03*
D11*
X123609100Y-129692400D03*
D10*
X123609100Y-137312400D03*
D11*
X117259100Y-124993400D03*
D10*
X124879100Y-124993400D03*
D25*
X160947100Y-120929400D03*
D26*
X160947100Y-131089400D03*
D11*
X164757100Y-122199400D03*
D10*
X164757100Y-129819400D03*
D11*
X168503600Y-129819400D03*
D10*
X168503600Y-122199400D03*
D13*
X135155300Y-68783200D03*
D11*
X137655300Y-68783200D03*
D13*
X132655300Y-68783200D03*
X146530700Y-68808600D03*
D11*
X149030700Y-68808600D03*
D13*
X144030700Y-68808600D03*
X156883100Y-109880400D03*
D11*
X156883100Y-107380400D03*
D13*
X156883100Y-112380400D03*
X141135100Y-104840400D03*
D11*
X141135100Y-102340400D03*
D13*
X141135100Y-107340400D03*
X157605100Y-79781400D03*
D11*
X160105100Y-79781400D03*
D13*
X155105100Y-79781400D03*
X166829100Y-90322400D03*
D11*
X169329100Y-90322400D03*
D13*
X164329100Y-90322400D03*
D11*
X164297100Y-84837400D03*
D13*
X169297100Y-84837400D03*
D11*
X167297100Y-84837400D03*
X141389100Y-72161400D03*
D10*
X108369100Y-87401400D03*
X138849100Y-72161400D03*
X110909100Y-87401400D03*
X136309100Y-72161400D03*
X113449100Y-87401400D03*
X133769100Y-72161400D03*
X115989100Y-87401400D03*
X131229100Y-72161400D03*
X118529100Y-87401400D03*
X128689100Y-72161400D03*
X121069100Y-87401400D03*
X126149100Y-72161400D03*
X123609100Y-87401400D03*
X123609100Y-72161400D03*
X126149100Y-87401400D03*
X121069100Y-72161400D03*
X128689100Y-87401400D03*
X118529100Y-72161400D03*
X131229100Y-87401400D03*
X115989100Y-72161400D03*
X133769100Y-87401400D03*
X113449100Y-72161400D03*
X136309100Y-87401400D03*
X110909100Y-72161400D03*
X138849100Y-87401400D03*
X108369100Y-72161400D03*
X141389100Y-87401400D03*
X105829100Y-72161400D03*
X105829100Y-87401400D03*
M02*
