%FSLAX45Y45*%
G04 Gerber Fmt 4.5, Leading zero omitted, Abs format (unit mm)*
G04 Created by KiCad (PCBNEW (5.1.10)-1) date 2022-09-29 16:57:20*
%MOMM*%
%LPD*%
G01*
G04 APERTURE LIST*
%TA.AperFunction,Profile*%
%ADD10C,0.150000*%
%TD*%
%TA.AperFunction,Profile*%
%ADD11C,0.050000*%
%TD*%
%ADD12C,0.200000*%
%ADD13C,0.300000*%
G04 APERTURE END LIST*
D10*
X18215710Y-12252540D02*
X19715710Y-12252540D01*
X18215710Y-12252540D02*
G75*
G02*
X18215710Y-12052540I0J100000D01*
G01*
X19715710Y-12052540D02*
X18215710Y-12052540D01*
X19715710Y-12052540D02*
G75*
G02*
X19715710Y-12252540I0J-100000D01*
G01*
X18215710Y-7752540D02*
X19715710Y-7752540D01*
X19715710Y-7552540D02*
X18215710Y-7552540D01*
X18215710Y-7752540D02*
G75*
G02*
X18215710Y-7552540I0J100000D01*
G01*
X19715710Y-7552540D02*
G75*
G02*
X19715710Y-7752540I0J-100000D01*
G01*
D11*
X17903010Y-12002540D02*
G75*
G02*
X17703010Y-12002540I-100000J0D01*
G01*
X17702976Y-10198198D02*
X17703010Y-12002540D01*
X17902976Y-10198198D02*
X17903010Y-12002540D01*
X17702976Y-10198198D02*
G75*
G02*
X17902976Y-10198198I100000J0D01*
G01*
X17702976Y-7898198D02*
G75*
G02*
X17902976Y-7898198I100000J0D01*
G01*
X17902976Y-7898198D02*
X17903010Y-9702540D01*
X17702976Y-7898198D02*
X17703010Y-9702540D01*
X17903010Y-9702540D02*
G75*
G02*
X17703010Y-9702540I-100000J0D01*
G01*
X17903010Y-7402540D02*
G75*
G02*
X17703010Y-7402540I-100000J0D01*
G01*
X17702976Y-5002540D02*
X17703010Y-7402540D01*
X17903010Y-5002540D02*
X17903010Y-7402540D01*
X17702976Y-5002540D02*
G75*
G02*
X17902976Y-5002540I100000J0D01*
G01*
X10100310Y-14599940D02*
X10100310Y-4599940D01*
X20100310Y-14599940D02*
X10100310Y-14599940D01*
X20100310Y-4599940D02*
X20100310Y-14599940D01*
X10100310Y-4599940D02*
X20100310Y-4599940D01*
D12*
X10651810Y-7798120D02*
X10691810Y-7838120D01*
X10691810Y-7798120D02*
X10651810Y-7838120D01*
X10900730Y-7681280D02*
X10940730Y-7721280D01*
X10940730Y-7681280D02*
X10900730Y-7721280D01*
X11774490Y-9426260D02*
X11814490Y-9466260D01*
X11814490Y-9426260D02*
X11774490Y-9466260D01*
X12107230Y-9370380D02*
X12147230Y-9410380D01*
X12147230Y-9370380D02*
X12107230Y-9410380D01*
X12155490Y-12197400D02*
X12195490Y-12237400D01*
X12195490Y-12197400D02*
X12155490Y-12237400D01*
X12869230Y-9327200D02*
X12909230Y-9367200D01*
X12909230Y-9327200D02*
X12869230Y-9367200D01*
X13382310Y-9520240D02*
X13422310Y-9560240D01*
X13422310Y-9520240D02*
X13382310Y-9560240D01*
X13758230Y-13152440D02*
X13798230Y-13192440D01*
X13798230Y-13152440D02*
X13758230Y-13192440D01*
X13760770Y-7572060D02*
X13800770Y-7612060D01*
X13800770Y-7572060D02*
X13760770Y-7612060D01*
X13773470Y-12395520D02*
X13813470Y-12435520D01*
X13813470Y-12395520D02*
X13773470Y-12435520D01*
X13811570Y-11488740D02*
X13851570Y-11528740D01*
X13851570Y-11488740D02*
X13811570Y-11528740D01*
X14103670Y-13660440D02*
X14143670Y-13700440D01*
X14143670Y-13660440D02*
X14103670Y-13700440D01*
X14469430Y-13401360D02*
X14509430Y-13441360D01*
X14509430Y-13401360D02*
X14469430Y-13441360D01*
X14786930Y-8108000D02*
X14826930Y-8148000D01*
X14826930Y-8108000D02*
X14786930Y-8148000D01*
X14883450Y-8006400D02*
X14923450Y-8046400D01*
X14923450Y-8006400D02*
X14883450Y-8046400D01*
X16039150Y-6876100D02*
X16079150Y-6916100D01*
X16079150Y-6876100D02*
X16039150Y-6916100D01*
X16313470Y-8643940D02*
X16353470Y-8683940D01*
X16353470Y-8643940D02*
X16313470Y-8683940D01*
X17022130Y-12443780D02*
X17062130Y-12483780D01*
X17062130Y-12443780D02*
X17022130Y-12483780D01*
X18820450Y-10564180D02*
X18860450Y-10604180D01*
X18860450Y-10564180D02*
X18820450Y-10604180D01*
X18843310Y-9233220D02*
X18883310Y-9273220D01*
X18883310Y-9233220D02*
X18843310Y-9273220D01*
X18906810Y-10437180D02*
X18946810Y-10477180D01*
X18946810Y-10437180D02*
X18906810Y-10477180D01*
X19031270Y-10355900D02*
X19071270Y-10395900D01*
X19071270Y-10355900D02*
X19031270Y-10395900D01*
X19076990Y-9235760D02*
X19116990Y-9275760D01*
X19116990Y-9235760D02*
X19076990Y-9275760D01*
X19127790Y-10564180D02*
X19167790Y-10604180D01*
X19167790Y-10564180D02*
X19127790Y-10604180D01*
X11594460Y-12886690D02*
G75*
G03*
X11594460Y-12886690I-40000J0D01*
G01*
X11594460Y-13902690D02*
G75*
G03*
X11594460Y-13902690I-40000J0D01*
G01*
X11638910Y-9248140D02*
G75*
G03*
X11638910Y-9248140I-40000J0D01*
G01*
X11638910Y-9715923D02*
G75*
G03*
X11638910Y-9715923I-40000J0D01*
G01*
X11638910Y-10183707D02*
G75*
G03*
X11638910Y-10183707I-40000J0D01*
G01*
X11638910Y-10651490D02*
G75*
G03*
X11638910Y-10651490I-40000J0D01*
G01*
X11638910Y-11119273D02*
G75*
G03*
X11638910Y-11119273I-40000J0D01*
G01*
X11638910Y-11587056D02*
G75*
G03*
X11638910Y-11587056I-40000J0D01*
G01*
X11638910Y-12054840D02*
G75*
G03*
X11638910Y-12054840I-40000J0D01*
G01*
X11740510Y-14226540D02*
G75*
G03*
X11740510Y-14226540I-40000J0D01*
G01*
X11765910Y-12499340D02*
G75*
G03*
X11765910Y-12499340I-40000J0D01*
G01*
X11988160Y-12886690D02*
G75*
G03*
X11988160Y-12886690I-40000J0D01*
G01*
X11988160Y-13902690D02*
G75*
G03*
X11988160Y-13902690I-40000J0D01*
G01*
X12400910Y-12969240D02*
G75*
G03*
X12400910Y-12969240I-40000J0D01*
G01*
X12400910Y-13731240D02*
G75*
G03*
X12400910Y-13731240I-40000J0D01*
G01*
X12527910Y-12499340D02*
G75*
G03*
X12527910Y-12499340I-40000J0D01*
G01*
X12553310Y-6479540D02*
G75*
G03*
X12553310Y-6479540I-40000J0D01*
G01*
X12553310Y-6729540D02*
G75*
G03*
X12553310Y-6729540I-40000J0D01*
G01*
X12654910Y-9248140D02*
G75*
G03*
X12654910Y-9248140I-40000J0D01*
G01*
X12654910Y-9715923D02*
G75*
G03*
X12654910Y-9715923I-40000J0D01*
G01*
X12654910Y-10183707D02*
G75*
G03*
X12654910Y-10183707I-40000J0D01*
G01*
X12654910Y-10651490D02*
G75*
G03*
X12654910Y-10651490I-40000J0D01*
G01*
X12654910Y-11119273D02*
G75*
G03*
X12654910Y-11119273I-40000J0D01*
G01*
X12654910Y-11587056D02*
G75*
G03*
X12654910Y-11587056I-40000J0D01*
G01*
X12654910Y-12054840D02*
G75*
G03*
X12654910Y-12054840I-40000J0D01*
G01*
X12756510Y-12981940D02*
G75*
G03*
X12756510Y-12981940I-40000J0D01*
G01*
X12756510Y-13743940D02*
G75*
G03*
X12756510Y-13743940I-40000J0D01*
G01*
X12756510Y-14226540D02*
G75*
G03*
X12756510Y-14226540I-40000J0D01*
G01*
X13061310Y-5873940D02*
G75*
G03*
X13061310Y-5873940I-40000J0D01*
G01*
X13061310Y-6123940D02*
G75*
G03*
X13061310Y-6123940I-40000J0D01*
G01*
X13201010Y-9171940D02*
G75*
G03*
X13201010Y-9171940I-40000J0D01*
G01*
X13201010Y-10187940D02*
G75*
G03*
X13201010Y-10187940I-40000J0D01*
G01*
X13201010Y-10530840D02*
G75*
G03*
X13201010Y-10530840I-40000J0D01*
G01*
X13201010Y-11546840D02*
G75*
G03*
X13201010Y-11546840I-40000J0D01*
G01*
X13201010Y-11902440D02*
G75*
G03*
X13201010Y-11902440I-40000J0D01*
G01*
X13201010Y-12918440D02*
G75*
G03*
X13201010Y-12918440I-40000J0D01*
G01*
X13305530Y-6878320D02*
G75*
G03*
X13305530Y-6878320I-40000J0D01*
G01*
X13416910Y-13566140D02*
G75*
G03*
X13416910Y-13566140I-40000J0D01*
G01*
X13531210Y-4993640D02*
G75*
G03*
X13531210Y-4993640I-40000J0D01*
G01*
X13531210Y-5336540D02*
G75*
G03*
X13531210Y-5336540I-40000J0D01*
G01*
X13531210Y-5679440D02*
G75*
G03*
X13531210Y-5679440I-40000J0D01*
G01*
X13531210Y-6022340D02*
G75*
G03*
X13531210Y-6022340I-40000J0D01*
G01*
X13531210Y-6365240D02*
G75*
G03*
X13531210Y-6365240I-40000J0D01*
G01*
X13555530Y-6878320D02*
G75*
G03*
X13555530Y-6878320I-40000J0D01*
G01*
X13670910Y-11915140D02*
G75*
G03*
X13670910Y-11915140I-40000J0D01*
G01*
X13670910Y-12931140D02*
G75*
G03*
X13670910Y-12931140I-40000J0D01*
G01*
X13670910Y-13566140D02*
G75*
G03*
X13670910Y-13566140I-40000J0D01*
G01*
X13683610Y-10543540D02*
G75*
G03*
X13683610Y-10543540I-40000J0D01*
G01*
X13683610Y-11559540D02*
G75*
G03*
X13683610Y-11559540I-40000J0D01*
G01*
X13696310Y-9171940D02*
G75*
G03*
X13696310Y-9171940I-40000J0D01*
G01*
X13696310Y-10187940D02*
G75*
G03*
X13696310Y-10187940I-40000J0D01*
G01*
X13805530Y-6878320D02*
G75*
G03*
X13805530Y-6878320I-40000J0D01*
G01*
X13924910Y-13566140D02*
G75*
G03*
X13924910Y-13566140I-40000J0D01*
G01*
X14140810Y-11927840D02*
G75*
G03*
X14140810Y-11927840I-40000J0D01*
G01*
X14140810Y-12943840D02*
G75*
G03*
X14140810Y-12943840I-40000J0D01*
G01*
X14153510Y-10234040D02*
G75*
G03*
X14153510Y-10234040I-40000J0D01*
G01*
X14153510Y-10484040D02*
G75*
G03*
X14153510Y-10484040I-40000J0D01*
G01*
X14153510Y-10734040D02*
G75*
G03*
X14153510Y-10734040I-40000J0D01*
G01*
X14443070Y-6880860D02*
G75*
G03*
X14443070Y-6880860I-40000J0D01*
G01*
X14547210Y-4993640D02*
G75*
G03*
X14547210Y-4993640I-40000J0D01*
G01*
X14547210Y-5336540D02*
G75*
G03*
X14547210Y-5336540I-40000J0D01*
G01*
X14547210Y-5679440D02*
G75*
G03*
X14547210Y-5679440I-40000J0D01*
G01*
X14547210Y-6022340D02*
G75*
G03*
X14547210Y-6022340I-40000J0D01*
G01*
X14547210Y-6365240D02*
G75*
G03*
X14547210Y-6365240I-40000J0D01*
G01*
X14585310Y-9972040D02*
G75*
G03*
X14585310Y-9972040I-40000J0D01*
G01*
X14585310Y-10226040D02*
G75*
G03*
X14585310Y-10226040I-40000J0D01*
G01*
X14585310Y-10480040D02*
G75*
G03*
X14585310Y-10480040I-40000J0D01*
G01*
X14585310Y-10734040D02*
G75*
G03*
X14585310Y-10734040I-40000J0D01*
G01*
X14585310Y-10988040D02*
G75*
G03*
X14585310Y-10988040I-40000J0D01*
G01*
X14585310Y-11242040D02*
G75*
G03*
X14585310Y-11242040I-40000J0D01*
G01*
X14585310Y-11496040D02*
G75*
G03*
X14585310Y-11496040I-40000J0D01*
G01*
X14585310Y-12016740D02*
G75*
G03*
X14585310Y-12016740I-40000J0D01*
G01*
X14693070Y-6880860D02*
G75*
G03*
X14693070Y-6880860I-40000J0D01*
G01*
X14839310Y-12588240D02*
G75*
G03*
X14839310Y-12588240I-40000J0D01*
G01*
X14839310Y-13305790D02*
G75*
G03*
X14839310Y-13305790I-40000J0D01*
G01*
X14839310Y-14023340D02*
G75*
G03*
X14839310Y-14023340I-40000J0D01*
G01*
X14943070Y-6880860D02*
G75*
G03*
X14943070Y-6880860I-40000J0D01*
G01*
X15093310Y-12588240D02*
G75*
G03*
X15093310Y-12588240I-40000J0D01*
G01*
X15093310Y-13305790D02*
G75*
G03*
X15093310Y-13305790I-40000J0D01*
G01*
X15093310Y-14023340D02*
G75*
G03*
X15093310Y-14023340I-40000J0D01*
G01*
X15271110Y-8524240D02*
G75*
G03*
X15271110Y-8524240I-40000J0D01*
G01*
X15271110Y-8778240D02*
G75*
G03*
X15271110Y-8778240I-40000J0D01*
G01*
X15271110Y-9032240D02*
G75*
G03*
X15271110Y-9032240I-40000J0D01*
G01*
X15271110Y-9286240D02*
G75*
G03*
X15271110Y-9286240I-40000J0D01*
G01*
X15347310Y-9972040D02*
G75*
G03*
X15347310Y-9972040I-40000J0D01*
G01*
X15347310Y-10226040D02*
G75*
G03*
X15347310Y-10226040I-40000J0D01*
G01*
X15347310Y-10480040D02*
G75*
G03*
X15347310Y-10480040I-40000J0D01*
G01*
X15347310Y-10734040D02*
G75*
G03*
X15347310Y-10734040I-40000J0D01*
G01*
X15347310Y-10988040D02*
G75*
G03*
X15347310Y-10988040I-40000J0D01*
G01*
X15347310Y-11242040D02*
G75*
G03*
X15347310Y-11242040I-40000J0D01*
G01*
X15347310Y-11496040D02*
G75*
G03*
X15347310Y-11496040I-40000J0D01*
G01*
X15347310Y-12588240D02*
G75*
G03*
X15347310Y-12588240I-40000J0D01*
G01*
X15347310Y-13305790D02*
G75*
G03*
X15347310Y-13305790I-40000J0D01*
G01*
X15347310Y-14023340D02*
G75*
G03*
X15347310Y-14023340I-40000J0D01*
G01*
X15550510Y-7978140D02*
G75*
G03*
X15550510Y-7978140I-40000J0D01*
G01*
X15601310Y-12016740D02*
G75*
G03*
X15601310Y-12016740I-40000J0D01*
G01*
X15611470Y-5935980D02*
G75*
G03*
X15611470Y-5935980I-40000J0D01*
G01*
X15611470Y-6308090D02*
G75*
G03*
X15611470Y-6308090I-40000J0D01*
G01*
X15611470Y-6680200D02*
G75*
G03*
X15611470Y-6680200I-40000J0D01*
G01*
X15616550Y-7312660D02*
G75*
G03*
X15616550Y-7312660I-40000J0D01*
G01*
X15728310Y-10738040D02*
G75*
G03*
X15728310Y-10738040I-40000J0D01*
G01*
X15728310Y-10988040D02*
G75*
G03*
X15728310Y-10988040I-40000J0D01*
G01*
X15728310Y-11238040D02*
G75*
G03*
X15728310Y-11238040I-40000J0D01*
G01*
X15800510Y-7978140D02*
G75*
G03*
X15800510Y-7978140I-40000J0D01*
G01*
X15878170Y-9850120D02*
G75*
G03*
X15878170Y-9850120I-40000J0D01*
G01*
X15878170Y-10218420D02*
G75*
G03*
X15878170Y-10218420I-40000J0D01*
G01*
X16033110Y-8524240D02*
G75*
G03*
X16033110Y-8524240I-40000J0D01*
G01*
X16033110Y-8778240D02*
G75*
G03*
X16033110Y-8778240I-40000J0D01*
G01*
X16033110Y-9032240D02*
G75*
G03*
X16033110Y-9032240I-40000J0D01*
G01*
X16033110Y-9286240D02*
G75*
G03*
X16033110Y-9286240I-40000J0D01*
G01*
X16050510Y-7978140D02*
G75*
G03*
X16050510Y-7978140I-40000J0D01*
G01*
X16134710Y-10651490D02*
G75*
G03*
X16134710Y-10651490I-40000J0D01*
G01*
X16134710Y-11667490D02*
G75*
G03*
X16134710Y-11667490I-40000J0D01*
G01*
X16469710Y-8483740D02*
G75*
G03*
X16469710Y-8483740I-40000J0D01*
G01*
X16472910Y-9032240D02*
G75*
G03*
X16472910Y-9032240I-40000J0D01*
G01*
X16490310Y-7901940D02*
G75*
G03*
X16490310Y-7901940I-40000J0D01*
G01*
X16515710Y-10651490D02*
G75*
G03*
X16515710Y-10651490I-40000J0D01*
G01*
X16515710Y-11667490D02*
G75*
G03*
X16515710Y-11667490I-40000J0D01*
G01*
X16515710Y-12219940D02*
G75*
G03*
X16515710Y-12219940I-40000J0D01*
G01*
X16515710Y-12981940D02*
G75*
G03*
X16515710Y-12981940I-40000J0D01*
G01*
X16627470Y-5935980D02*
G75*
G03*
X16627470Y-5935980I-40000J0D01*
G01*
X16627470Y-6308090D02*
G75*
G03*
X16627470Y-6308090I-40000J0D01*
G01*
X16627470Y-6680200D02*
G75*
G03*
X16627470Y-6680200I-40000J0D01*
G01*
X16632550Y-7312660D02*
G75*
G03*
X16632550Y-7312660I-40000J0D01*
G01*
X16722910Y-9032240D02*
G75*
G03*
X16722910Y-9032240I-40000J0D01*
G01*
X16744310Y-7901940D02*
G75*
G03*
X16744310Y-7901940I-40000J0D01*
G01*
X16769710Y-8483740D02*
G75*
G03*
X16769710Y-8483740I-40000J0D01*
G01*
X16890360Y-10651490D02*
G75*
G03*
X16890360Y-10651490I-40000J0D01*
G01*
X16890360Y-11667490D02*
G75*
G03*
X16890360Y-11667490I-40000J0D01*
G01*
X16890360Y-12219940D02*
G75*
G03*
X16890360Y-12219940I-40000J0D01*
G01*
X16890360Y-12981940D02*
G75*
G03*
X16890360Y-12981940I-40000J0D01*
G01*
X16894170Y-9850120D02*
G75*
G03*
X16894170Y-9850120I-40000J0D01*
G01*
X16894170Y-10218420D02*
G75*
G03*
X16894170Y-10218420I-40000J0D01*
G01*
X16969710Y-8483740D02*
G75*
G03*
X16969710Y-8483740I-40000J0D01*
G01*
X16972910Y-9032240D02*
G75*
G03*
X16972910Y-9032240I-40000J0D01*
G01*
X16998310Y-7901940D02*
G75*
G03*
X16998310Y-7901940I-40000J0D01*
G01*
X18260690Y-8298180D02*
G75*
G03*
X18260690Y-8298180I-40000J0D01*
G01*
X18260690Y-8552180D02*
G75*
G03*
X18260690Y-8552180I-40000J0D01*
G01*
X18260690Y-8806180D02*
G75*
G03*
X18260690Y-8806180I-40000J0D01*
G01*
X18260690Y-9060180D02*
G75*
G03*
X18260690Y-9060180I-40000J0D01*
G01*
X18260690Y-9314180D02*
G75*
G03*
X18260690Y-9314180I-40000J0D01*
G01*
X18260690Y-9568180D02*
G75*
G03*
X18260690Y-9568180I-40000J0D01*
G01*
X18260690Y-9822180D02*
G75*
G03*
X18260690Y-9822180I-40000J0D01*
G01*
X18260690Y-10076180D02*
G75*
G03*
X18260690Y-10076180I-40000J0D01*
G01*
X18260690Y-10330180D02*
G75*
G03*
X18260690Y-10330180I-40000J0D01*
G01*
X18260690Y-10584180D02*
G75*
G03*
X18260690Y-10584180I-40000J0D01*
G01*
X18260690Y-10838180D02*
G75*
G03*
X18260690Y-10838180I-40000J0D01*
G01*
X18260690Y-11092180D02*
G75*
G03*
X18260690Y-11092180I-40000J0D01*
G01*
X18260690Y-11346180D02*
G75*
G03*
X18260690Y-11346180I-40000J0D01*
G01*
X18260690Y-11600180D02*
G75*
G03*
X18260690Y-11600180I-40000J0D01*
G01*
X19784690Y-8298180D02*
G75*
G03*
X19784690Y-8298180I-40000J0D01*
G01*
X19784690Y-8552180D02*
G75*
G03*
X19784690Y-8552180I-40000J0D01*
G01*
X19784690Y-8806180D02*
G75*
G03*
X19784690Y-8806180I-40000J0D01*
G01*
X19784690Y-9060180D02*
G75*
G03*
X19784690Y-9060180I-40000J0D01*
G01*
X19784690Y-9314180D02*
G75*
G03*
X19784690Y-9314180I-40000J0D01*
G01*
X19784690Y-9568180D02*
G75*
G03*
X19784690Y-9568180I-40000J0D01*
G01*
X19784690Y-9822180D02*
G75*
G03*
X19784690Y-9822180I-40000J0D01*
G01*
X19784690Y-10076180D02*
G75*
G03*
X19784690Y-10076180I-40000J0D01*
G01*
X19784690Y-10330180D02*
G75*
G03*
X19784690Y-10330180I-40000J0D01*
G01*
X19784690Y-10584180D02*
G75*
G03*
X19784690Y-10584180I-40000J0D01*
G01*
X19784690Y-10838180D02*
G75*
G03*
X19784690Y-10838180I-40000J0D01*
G01*
X19784690Y-11092180D02*
G75*
G03*
X19784690Y-11092180I-40000J0D01*
G01*
X19784690Y-11346180D02*
G75*
G03*
X19784690Y-11346180I-40000J0D01*
G01*
X19784690Y-11600180D02*
G75*
G03*
X19784690Y-11600180I-40000J0D01*
G01*
X10532110Y-9198140D02*
X10532110Y-9298140D01*
X10482110Y-9248140D02*
X10582110Y-9248140D01*
X10532110Y-9715496D02*
X10532110Y-9815496D01*
X10482110Y-9765496D02*
X10582110Y-9765496D01*
X10532110Y-9969496D02*
X10532110Y-10069496D01*
X10482110Y-10019496D02*
X10582110Y-10019496D01*
X10532110Y-10485851D02*
X10532110Y-10585851D01*
X10482110Y-10535851D02*
X10582110Y-10535851D01*
X10532110Y-11002207D02*
X10532110Y-11102207D01*
X10482110Y-11052207D02*
X10582110Y-11052207D01*
X10532110Y-11518562D02*
X10532110Y-11618562D01*
X10482110Y-11568562D02*
X10582110Y-11568562D01*
X10532110Y-12034917D02*
X10532110Y-12134917D01*
X10482110Y-12084917D02*
X10582110Y-12084917D01*
X10532110Y-12551273D02*
X10532110Y-12651273D01*
X10482110Y-12601273D02*
X10582110Y-12601273D01*
X10532110Y-13067628D02*
X10532110Y-13167628D01*
X10482110Y-13117628D02*
X10582110Y-13117628D01*
X10532110Y-13583984D02*
X10532110Y-13683984D01*
X10482110Y-13633984D02*
X10582110Y-13633984D01*
X10532110Y-14100340D02*
X10532110Y-14200340D01*
X10482110Y-14150340D02*
X10582110Y-14150340D01*
X10582910Y-5134140D02*
X10582910Y-5234140D01*
X10532910Y-5184140D02*
X10632910Y-5184140D01*
X10582910Y-5388140D02*
X10582910Y-5488140D01*
X10532910Y-5438140D02*
X10632910Y-5438140D01*
X10582910Y-5642140D02*
X10582910Y-5742140D01*
X10532910Y-5692140D02*
X10632910Y-5692140D01*
X10582910Y-5896140D02*
X10582910Y-5996140D01*
X10532910Y-5946140D02*
X10632910Y-5946140D01*
X10582910Y-6150140D02*
X10582910Y-6250140D01*
X10532910Y-6200140D02*
X10632910Y-6200140D01*
X10582910Y-7166140D02*
X10582910Y-7266140D01*
X10532910Y-7216140D02*
X10632910Y-7216140D01*
X10582910Y-8690140D02*
X10582910Y-8790140D01*
X10532910Y-8740140D02*
X10632910Y-8740140D01*
X10786110Y-9198140D02*
X10786110Y-9298140D01*
X10736110Y-9248140D02*
X10836110Y-9248140D01*
X10786110Y-9715496D02*
X10786110Y-9815496D01*
X10736110Y-9765496D02*
X10836110Y-9765496D01*
X10786110Y-9969496D02*
X10786110Y-10069496D01*
X10736110Y-10019496D02*
X10836110Y-10019496D01*
X10786110Y-10485851D02*
X10786110Y-10585851D01*
X10736110Y-10535851D02*
X10836110Y-10535851D01*
X10786110Y-11002207D02*
X10786110Y-11102207D01*
X10736110Y-11052207D02*
X10836110Y-11052207D01*
X10786110Y-11518562D02*
X10786110Y-11618562D01*
X10736110Y-11568562D02*
X10836110Y-11568562D01*
X10786110Y-12034917D02*
X10786110Y-12134917D01*
X10736110Y-12084917D02*
X10836110Y-12084917D01*
X10786110Y-12551273D02*
X10786110Y-12651273D01*
X10736110Y-12601273D02*
X10836110Y-12601273D01*
X10786110Y-13067628D02*
X10786110Y-13167628D01*
X10736110Y-13117628D02*
X10836110Y-13117628D01*
X10786110Y-13583984D02*
X10786110Y-13683984D01*
X10736110Y-13633984D02*
X10836110Y-13633984D01*
X10786110Y-14100340D02*
X10786110Y-14200340D01*
X10736110Y-14150340D02*
X10836110Y-14150340D01*
X10836910Y-5134140D02*
X10836910Y-5234140D01*
X10786910Y-5184140D02*
X10886910Y-5184140D01*
X10836910Y-5388140D02*
X10836910Y-5488140D01*
X10786910Y-5438140D02*
X10886910Y-5438140D01*
X10836910Y-5642140D02*
X10836910Y-5742140D01*
X10786910Y-5692140D02*
X10886910Y-5692140D01*
X10836910Y-5896140D02*
X10836910Y-5996140D01*
X10786910Y-5946140D02*
X10886910Y-5946140D01*
X10836910Y-6150140D02*
X10836910Y-6250140D01*
X10786910Y-6200140D02*
X10886910Y-6200140D01*
X10836910Y-7166140D02*
X10836910Y-7266140D01*
X10786910Y-7216140D02*
X10886910Y-7216140D01*
X10836910Y-8690140D02*
X10836910Y-8790140D01*
X10786910Y-8740140D02*
X10886910Y-8740140D01*
X11040110Y-9715496D02*
X11040110Y-9815496D01*
X10990110Y-9765496D02*
X11090110Y-9765496D01*
X11040110Y-9969496D02*
X11040110Y-10069496D01*
X10990110Y-10019496D02*
X11090110Y-10019496D01*
X11040110Y-10485851D02*
X11040110Y-10585851D01*
X10990110Y-10535851D02*
X11090110Y-10535851D01*
X11040110Y-11002207D02*
X11040110Y-11102207D01*
X10990110Y-11052207D02*
X11090110Y-11052207D01*
X11040110Y-11518562D02*
X11040110Y-11618562D01*
X10990110Y-11568562D02*
X11090110Y-11568562D01*
X11040110Y-12034917D02*
X11040110Y-12134917D01*
X10990110Y-12084917D02*
X11090110Y-12084917D01*
X11090910Y-7166140D02*
X11090910Y-7266140D01*
X11040910Y-7216140D02*
X11140910Y-7216140D01*
X11090910Y-8690140D02*
X11090910Y-8790140D01*
X11040910Y-8740140D02*
X11140910Y-8740140D01*
X11344910Y-7166140D02*
X11344910Y-7266140D01*
X11294910Y-7216140D02*
X11394910Y-7216140D01*
X11344910Y-8690140D02*
X11344910Y-8790140D01*
X11294910Y-8740140D02*
X11394910Y-8740140D01*
X11598910Y-7166140D02*
X11598910Y-7266140D01*
X11548910Y-7216140D02*
X11648910Y-7216140D01*
X11598910Y-8690140D02*
X11598910Y-8790140D01*
X11548910Y-8740140D02*
X11648910Y-8740140D01*
X11827510Y-5743740D02*
X11827510Y-5843740D01*
X11777510Y-5793740D02*
X11877510Y-5793740D01*
X11827510Y-6243740D02*
X11827510Y-6343740D01*
X11777510Y-6293740D02*
X11877510Y-6293740D01*
X11852910Y-7166140D02*
X11852910Y-7266140D01*
X11802910Y-7216140D02*
X11902910Y-7216140D01*
X11852910Y-8690140D02*
X11852910Y-8790140D01*
X11802910Y-8740140D02*
X11902910Y-8740140D01*
X12106910Y-7166140D02*
X12106910Y-7266140D01*
X12056910Y-7216140D02*
X12156910Y-7216140D01*
X12106910Y-8690140D02*
X12106910Y-8790140D01*
X12056910Y-8740140D02*
X12156910Y-8740140D01*
X12360910Y-7166140D02*
X12360910Y-7266140D01*
X12310910Y-7216140D02*
X12410910Y-7216140D01*
X12360910Y-8690140D02*
X12360910Y-8790140D01*
X12310910Y-8740140D02*
X12410910Y-8740140D01*
X12614910Y-4913540D02*
X12614910Y-5013540D01*
X12564910Y-4963540D02*
X12664910Y-4963540D01*
X12614910Y-5413540D02*
X12614910Y-5513540D01*
X12564910Y-5463540D02*
X12664910Y-5463540D01*
X12614910Y-7166140D02*
X12614910Y-7266140D01*
X12564910Y-7216140D02*
X12664910Y-7216140D01*
X12614910Y-8690140D02*
X12614910Y-8790140D01*
X12564910Y-8740140D02*
X12664910Y-8740140D01*
X12868910Y-7166140D02*
X12868910Y-7266140D01*
X12818910Y-7216140D02*
X12918910Y-7216140D01*
X12868910Y-8690140D02*
X12868910Y-8790140D01*
X12818910Y-8740140D02*
X12918910Y-8740140D01*
X13122910Y-7166140D02*
X13122910Y-7266140D01*
X13072910Y-7216140D02*
X13172910Y-7216140D01*
X13122910Y-8690140D02*
X13122910Y-8790140D01*
X13072910Y-8740140D02*
X13172910Y-8740140D01*
X13376910Y-7166140D02*
X13376910Y-7266140D01*
X13326910Y-7216140D02*
X13426910Y-7216140D01*
X13376910Y-8690140D02*
X13376910Y-8790140D01*
X13326910Y-8740140D02*
X13426910Y-8740140D01*
X13630910Y-7166140D02*
X13630910Y-7266140D01*
X13580910Y-7216140D02*
X13680910Y-7216140D01*
X13630910Y-8690140D02*
X13630910Y-8790140D01*
X13580910Y-8740140D02*
X13680910Y-8740140D01*
X13884910Y-7166140D02*
X13884910Y-7266140D01*
X13834910Y-7216140D02*
X13934910Y-7216140D01*
X13884910Y-8690140D02*
X13884910Y-8790140D01*
X13834910Y-8740140D02*
X13934910Y-8740140D01*
X14138910Y-7166140D02*
X14138910Y-7266140D01*
X14088910Y-7216140D02*
X14188910Y-7216140D01*
X14138910Y-8690140D02*
X14138910Y-8790140D01*
X14088910Y-8740140D02*
X14188910Y-8740140D01*
X15561310Y-5032540D02*
X15561310Y-5132540D01*
X15511310Y-5082540D02*
X15611310Y-5082540D01*
X15561310Y-5286540D02*
X15561310Y-5386540D01*
X15511310Y-5336540D02*
X15611310Y-5336540D01*
X15815310Y-5032540D02*
X15815310Y-5132540D01*
X15765310Y-5082540D02*
X15865310Y-5082540D01*
X15815310Y-5286540D02*
X15815310Y-5386540D01*
X15765310Y-5336540D02*
X15865310Y-5336540D01*
X16069310Y-5032540D02*
X16069310Y-5132540D01*
X16019310Y-5082540D02*
X16119310Y-5082540D01*
X16069310Y-5286540D02*
X16069310Y-5386540D01*
X16019310Y-5336540D02*
X16119310Y-5336540D01*
X16323310Y-5032540D02*
X16323310Y-5132540D01*
X16273310Y-5082540D02*
X16373310Y-5082540D01*
X16323310Y-5286540D02*
X16323310Y-5386540D01*
X16273310Y-5336540D02*
X16373310Y-5336540D01*
X16577310Y-5032540D02*
X16577310Y-5132540D01*
X16527310Y-5082540D02*
X16627310Y-5082540D01*
X16577310Y-5286540D02*
X16577310Y-5386540D01*
X16527310Y-5336540D02*
X16627310Y-5336540D01*
X18507710Y-4778540D02*
X18507710Y-4878540D01*
X18457710Y-4828540D02*
X18557710Y-4828540D01*
X18507710Y-6302540D02*
X18507710Y-6402540D01*
X18457710Y-6352540D02*
X18557710Y-6352540D01*
X18507710Y-6835940D02*
X18507710Y-6935940D01*
X18457710Y-6885940D02*
X18557710Y-6885940D01*
X18507710Y-7089940D02*
X18507710Y-7189940D01*
X18457710Y-7139940D02*
X18557710Y-7139940D01*
X18761710Y-4778540D02*
X18761710Y-4878540D01*
X18711710Y-4828540D02*
X18811710Y-4828540D01*
X18761710Y-6302540D02*
X18761710Y-6402540D01*
X18711710Y-6352540D02*
X18811710Y-6352540D01*
X18761710Y-6835940D02*
X18761710Y-6935940D01*
X18711710Y-6885940D02*
X18811710Y-6885940D01*
X18761710Y-7089940D02*
X18761710Y-7189940D01*
X18711710Y-7139940D02*
X18811710Y-7139940D01*
X19015710Y-4778540D02*
X19015710Y-4878540D01*
X18965710Y-4828540D02*
X19065710Y-4828540D01*
X19015710Y-6302540D02*
X19015710Y-6402540D01*
X18965710Y-6352540D02*
X19065710Y-6352540D01*
X19015710Y-6835940D02*
X19015710Y-6935940D01*
X18965710Y-6885940D02*
X19065710Y-6885940D01*
X19015710Y-7089940D02*
X19015710Y-7189940D01*
X18965710Y-7139940D02*
X19065710Y-7139940D01*
X19269710Y-4778540D02*
X19269710Y-4878540D01*
X19219710Y-4828540D02*
X19319710Y-4828540D01*
X19269710Y-6302540D02*
X19269710Y-6402540D01*
X19219710Y-6352540D02*
X19319710Y-6352540D01*
X19269710Y-6835940D02*
X19269710Y-6935940D01*
X19219710Y-6885940D02*
X19319710Y-6885940D01*
X19269710Y-7089940D02*
X19269710Y-7189940D01*
X19219710Y-7139940D02*
X19319710Y-7139940D01*
X19523710Y-4778540D02*
X19523710Y-4878540D01*
X19473710Y-4828540D02*
X19573710Y-4828540D01*
X19523710Y-6302540D02*
X19523710Y-6402540D01*
X19473710Y-6352540D02*
X19573710Y-6352540D01*
X19523710Y-6835940D02*
X19523710Y-6935940D01*
X19473710Y-6885940D02*
X19573710Y-6885940D01*
X19523710Y-7089940D02*
X19523710Y-7189940D01*
X19473710Y-7139940D02*
X19573710Y-7139940D01*
X13238001Y-14257811D02*
X13238001Y-14180029D01*
X13160219Y-14180029D01*
X13160219Y-14257811D01*
X13238001Y-14257811D01*
X14254001Y-14257811D02*
X14254001Y-14180029D01*
X14176219Y-14180029D01*
X14176219Y-14257811D01*
X14254001Y-14257811D01*
X16133601Y-12131831D02*
X16133601Y-12054049D01*
X16055819Y-12054049D01*
X16055819Y-12131831D01*
X16133601Y-12131831D01*
X16133601Y-13147831D02*
X16133601Y-13070049D01*
X16055819Y-13070049D01*
X16055819Y-13147831D01*
X16133601Y-13147831D01*
X18507710Y-12670940D02*
X18577710Y-12600940D01*
X18507710Y-12530940D01*
X18437710Y-12600940D01*
X18507710Y-12670940D01*
X18507710Y-14293940D02*
X18577710Y-14223940D01*
X18507710Y-14153940D01*
X18437710Y-14223940D01*
X18507710Y-14293940D01*
X19142710Y-12670940D02*
X19212710Y-12600940D01*
X19142710Y-12530940D01*
X19072710Y-12600940D01*
X19142710Y-12670940D01*
X19142710Y-14293940D02*
X19212710Y-14223940D01*
X19142710Y-14153940D01*
X19072710Y-14223940D01*
X19142710Y-14293940D01*
X19777710Y-12670940D02*
X19847710Y-12600940D01*
X19777710Y-12530940D01*
X19707710Y-12600940D01*
X19777710Y-12670940D01*
X19777710Y-14293940D02*
X19847710Y-14223940D01*
X19777710Y-14153940D01*
X19707710Y-14223940D01*
X19777710Y-14293940D01*
D13*
X10384238Y-15068154D02*
X10384238Y-14768154D01*
X10455667Y-14768154D01*
X10498524Y-14782440D01*
X10527096Y-14811011D01*
X10541381Y-14839583D01*
X10555667Y-14896726D01*
X10555667Y-14939583D01*
X10541381Y-14996726D01*
X10527096Y-15025297D01*
X10498524Y-15053869D01*
X10455667Y-15068154D01*
X10384238Y-15068154D01*
X10684238Y-15068154D02*
X10684238Y-14868154D01*
X10684238Y-14925297D02*
X10698524Y-14896726D01*
X10712810Y-14882440D01*
X10741381Y-14868154D01*
X10769953Y-14868154D01*
X10869953Y-15068154D02*
X10869953Y-14868154D01*
X10869953Y-14768154D02*
X10855667Y-14782440D01*
X10869953Y-14796726D01*
X10884238Y-14782440D01*
X10869953Y-14768154D01*
X10869953Y-14796726D01*
X11055667Y-15068154D02*
X11027096Y-15053869D01*
X11012810Y-15025297D01*
X11012810Y-14768154D01*
X11212810Y-15068154D02*
X11184238Y-15053869D01*
X11169953Y-15025297D01*
X11169953Y-14768154D01*
X11555667Y-15068154D02*
X11555667Y-14768154D01*
X11655667Y-14982440D01*
X11755667Y-14768154D01*
X11755667Y-15068154D01*
X12027096Y-15068154D02*
X12027096Y-14911011D01*
X12012810Y-14882440D01*
X11984238Y-14868154D01*
X11927096Y-14868154D01*
X11898524Y-14882440D01*
X12027096Y-15053869D02*
X11998524Y-15068154D01*
X11927096Y-15068154D01*
X11898524Y-15053869D01*
X11884238Y-15025297D01*
X11884238Y-14996726D01*
X11898524Y-14968154D01*
X11927096Y-14953869D01*
X11998524Y-14953869D01*
X12027096Y-14939583D01*
X12169953Y-14868154D02*
X12169953Y-15168154D01*
X12169953Y-14882440D02*
X12198524Y-14868154D01*
X12255667Y-14868154D01*
X12284238Y-14882440D01*
X12298524Y-14896726D01*
X12312810Y-14925297D01*
X12312810Y-15011011D01*
X12298524Y-15039583D01*
X12284238Y-15053869D01*
X12255667Y-15068154D01*
X12198524Y-15068154D01*
X12169953Y-15053869D01*
X12441381Y-15039583D02*
X12455667Y-15053869D01*
X12441381Y-15068154D01*
X12427096Y-15053869D01*
X12441381Y-15039583D01*
X12441381Y-15068154D01*
X12441381Y-14882440D02*
X12455667Y-14896726D01*
X12441381Y-14911011D01*
X12427096Y-14896726D01*
X12441381Y-14882440D01*
X12441381Y-14911011D01*
X10057810Y-15542440D02*
X10097810Y-15582440D01*
X10097810Y-15542440D02*
X10057810Y-15582440D01*
X10441381Y-15398154D02*
X10469953Y-15398154D01*
X10498524Y-15412440D01*
X10512810Y-15426726D01*
X10527096Y-15455297D01*
X10541381Y-15512440D01*
X10541381Y-15583869D01*
X10527096Y-15641011D01*
X10512810Y-15669583D01*
X10498524Y-15683869D01*
X10469953Y-15698154D01*
X10441381Y-15698154D01*
X10412810Y-15683869D01*
X10398524Y-15669583D01*
X10384238Y-15641011D01*
X10369953Y-15583869D01*
X10369953Y-15512440D01*
X10384238Y-15455297D01*
X10398524Y-15426726D01*
X10412810Y-15412440D01*
X10441381Y-15398154D01*
X10669953Y-15669583D02*
X10684238Y-15683869D01*
X10669953Y-15698154D01*
X10655667Y-15683869D01*
X10669953Y-15669583D01*
X10669953Y-15698154D01*
X10941381Y-15498154D02*
X10941381Y-15698154D01*
X10869953Y-15383869D02*
X10798524Y-15598154D01*
X10984238Y-15598154D01*
X11155667Y-15398154D02*
X11184238Y-15398154D01*
X11212810Y-15412440D01*
X11227096Y-15426726D01*
X11241381Y-15455297D01*
X11255667Y-15512440D01*
X11255667Y-15583869D01*
X11241381Y-15641011D01*
X11227096Y-15669583D01*
X11212810Y-15683869D01*
X11184238Y-15698154D01*
X11155667Y-15698154D01*
X11127096Y-15683869D01*
X11112810Y-15669583D01*
X11098524Y-15641011D01*
X11084238Y-15583869D01*
X11084238Y-15512440D01*
X11098524Y-15455297D01*
X11112810Y-15426726D01*
X11127096Y-15412440D01*
X11155667Y-15398154D01*
X11441381Y-15398154D02*
X11469953Y-15398154D01*
X11498524Y-15412440D01*
X11512810Y-15426726D01*
X11527096Y-15455297D01*
X11541381Y-15512440D01*
X11541381Y-15583869D01*
X11527096Y-15641011D01*
X11512810Y-15669583D01*
X11498524Y-15683869D01*
X11469953Y-15698154D01*
X11441381Y-15698154D01*
X11412810Y-15683869D01*
X11398524Y-15669583D01*
X11384238Y-15641011D01*
X11369953Y-15583869D01*
X11369953Y-15512440D01*
X11384238Y-15455297D01*
X11398524Y-15426726D01*
X11412810Y-15412440D01*
X11441381Y-15398154D01*
X11669953Y-15698154D02*
X11669953Y-15498154D01*
X11669953Y-15526726D02*
X11684238Y-15512440D01*
X11712810Y-15498154D01*
X11755667Y-15498154D01*
X11784238Y-15512440D01*
X11798524Y-15541011D01*
X11798524Y-15698154D01*
X11798524Y-15541011D02*
X11812810Y-15512440D01*
X11841381Y-15498154D01*
X11884238Y-15498154D01*
X11912810Y-15512440D01*
X11927096Y-15541011D01*
X11927096Y-15698154D01*
X12069953Y-15698154D02*
X12069953Y-15498154D01*
X12069953Y-15526726D02*
X12084238Y-15512440D01*
X12112810Y-15498154D01*
X12155667Y-15498154D01*
X12184238Y-15512440D01*
X12198524Y-15541011D01*
X12198524Y-15698154D01*
X12198524Y-15541011D02*
X12212810Y-15512440D01*
X12241381Y-15498154D01*
X12284238Y-15498154D01*
X12312810Y-15512440D01*
X12327096Y-15541011D01*
X12327096Y-15698154D01*
X12912810Y-15383869D02*
X12655667Y-15769583D01*
X13298524Y-15398154D02*
X13327096Y-15398154D01*
X13355667Y-15412440D01*
X13369953Y-15426726D01*
X13384238Y-15455297D01*
X13398524Y-15512440D01*
X13398524Y-15583869D01*
X13384238Y-15641011D01*
X13369953Y-15669583D01*
X13355667Y-15683869D01*
X13327096Y-15698154D01*
X13298524Y-15698154D01*
X13269953Y-15683869D01*
X13255667Y-15669583D01*
X13241381Y-15641011D01*
X13227096Y-15583869D01*
X13227096Y-15512440D01*
X13241381Y-15455297D01*
X13255667Y-15426726D01*
X13269953Y-15412440D01*
X13298524Y-15398154D01*
X13527096Y-15669583D02*
X13541381Y-15683869D01*
X13527096Y-15698154D01*
X13512810Y-15683869D01*
X13527096Y-15669583D01*
X13527096Y-15698154D01*
X13727096Y-15398154D02*
X13755667Y-15398154D01*
X13784238Y-15412440D01*
X13798524Y-15426726D01*
X13812810Y-15455297D01*
X13827096Y-15512440D01*
X13827096Y-15583869D01*
X13812810Y-15641011D01*
X13798524Y-15669583D01*
X13784238Y-15683869D01*
X13755667Y-15698154D01*
X13727096Y-15698154D01*
X13698524Y-15683869D01*
X13684238Y-15669583D01*
X13669953Y-15641011D01*
X13655667Y-15583869D01*
X13655667Y-15512440D01*
X13669953Y-15455297D01*
X13684238Y-15426726D01*
X13698524Y-15412440D01*
X13727096Y-15398154D01*
X14112810Y-15698154D02*
X13941381Y-15698154D01*
X14027096Y-15698154D02*
X14027096Y-15398154D01*
X13998524Y-15441011D01*
X13969953Y-15469583D01*
X13941381Y-15483869D01*
X14384238Y-15398154D02*
X14241381Y-15398154D01*
X14227096Y-15541011D01*
X14241381Y-15526726D01*
X14269953Y-15512440D01*
X14341381Y-15512440D01*
X14369953Y-15526726D01*
X14384238Y-15541011D01*
X14398524Y-15569583D01*
X14398524Y-15641011D01*
X14384238Y-15669583D01*
X14369953Y-15683869D01*
X14341381Y-15698154D01*
X14269953Y-15698154D01*
X14241381Y-15683869D01*
X14227096Y-15669583D01*
X14498524Y-15398154D02*
X14698524Y-15398154D01*
X14569953Y-15698154D01*
X14798524Y-15398154D02*
X14798524Y-15455297D01*
X14912810Y-15398154D02*
X14912810Y-15455297D01*
X15355667Y-15812440D02*
X15341381Y-15798154D01*
X15312810Y-15755297D01*
X15298524Y-15726726D01*
X15284238Y-15683869D01*
X15269953Y-15612440D01*
X15269953Y-15555297D01*
X15284238Y-15483869D01*
X15298524Y-15441011D01*
X15312810Y-15412440D01*
X15341381Y-15369583D01*
X15355667Y-15355297D01*
X15455667Y-15426726D02*
X15469953Y-15412440D01*
X15498524Y-15398154D01*
X15569953Y-15398154D01*
X15598524Y-15412440D01*
X15612810Y-15426726D01*
X15627096Y-15455297D01*
X15627096Y-15483869D01*
X15612810Y-15526726D01*
X15441381Y-15698154D01*
X15627096Y-15698154D01*
X15884238Y-15498154D02*
X15884238Y-15698154D01*
X15812810Y-15383869D02*
X15741381Y-15598154D01*
X15927096Y-15598154D01*
X16269953Y-15698154D02*
X16269953Y-15398154D01*
X16398524Y-15698154D02*
X16398524Y-15541011D01*
X16384238Y-15512440D01*
X16355667Y-15498154D01*
X16312810Y-15498154D01*
X16284238Y-15512440D01*
X16269953Y-15526726D01*
X16584238Y-15698154D02*
X16555667Y-15683869D01*
X16541381Y-15669583D01*
X16527096Y-15641011D01*
X16527096Y-15555297D01*
X16541381Y-15526726D01*
X16555667Y-15512440D01*
X16584238Y-15498154D01*
X16627096Y-15498154D01*
X16655667Y-15512440D01*
X16669953Y-15526726D01*
X16684238Y-15555297D01*
X16684238Y-15641011D01*
X16669953Y-15669583D01*
X16655667Y-15683869D01*
X16627096Y-15698154D01*
X16584238Y-15698154D01*
X16855667Y-15698154D02*
X16827096Y-15683869D01*
X16812810Y-15655297D01*
X16812810Y-15398154D01*
X17084238Y-15683869D02*
X17055667Y-15698154D01*
X16998524Y-15698154D01*
X16969953Y-15683869D01*
X16955667Y-15655297D01*
X16955667Y-15541011D01*
X16969953Y-15512440D01*
X16998524Y-15498154D01*
X17055667Y-15498154D01*
X17084238Y-15512440D01*
X17098524Y-15541011D01*
X17098524Y-15569583D01*
X16955667Y-15598154D01*
X17212810Y-15683869D02*
X17241381Y-15698154D01*
X17298524Y-15698154D01*
X17327096Y-15683869D01*
X17341381Y-15655297D01*
X17341381Y-15641011D01*
X17327096Y-15612440D01*
X17298524Y-15598154D01*
X17255667Y-15598154D01*
X17227096Y-15583869D01*
X17212810Y-15555297D01*
X17212810Y-15541011D01*
X17227096Y-15512440D01*
X17255667Y-15498154D01*
X17298524Y-15498154D01*
X17327096Y-15512440D01*
X17441381Y-15812440D02*
X17455667Y-15798154D01*
X17484238Y-15755297D01*
X17498524Y-15726726D01*
X17512810Y-15683869D01*
X17527096Y-15612440D01*
X17527096Y-15555297D01*
X17512810Y-15483869D01*
X17498524Y-15441011D01*
X17484238Y-15412440D01*
X17455667Y-15369583D01*
X17441381Y-15355297D01*
X10097810Y-15958440D02*
G75*
G03*
X10097810Y-15958440I-40000J0D01*
G01*
X10441381Y-15794154D02*
X10469953Y-15794154D01*
X10498524Y-15808440D01*
X10512810Y-15822726D01*
X10527096Y-15851297D01*
X10541381Y-15908440D01*
X10541381Y-15979869D01*
X10527096Y-16037011D01*
X10512810Y-16065583D01*
X10498524Y-16079869D01*
X10469953Y-16094154D01*
X10441381Y-16094154D01*
X10412810Y-16079869D01*
X10398524Y-16065583D01*
X10384238Y-16037011D01*
X10369953Y-15979869D01*
X10369953Y-15908440D01*
X10384238Y-15851297D01*
X10398524Y-15822726D01*
X10412810Y-15808440D01*
X10441381Y-15794154D01*
X10669953Y-16065583D02*
X10684238Y-16079869D01*
X10669953Y-16094154D01*
X10655667Y-16079869D01*
X10669953Y-16065583D01*
X10669953Y-16094154D01*
X10855667Y-15922726D02*
X10827096Y-15908440D01*
X10812810Y-15894154D01*
X10798524Y-15865583D01*
X10798524Y-15851297D01*
X10812810Y-15822726D01*
X10827096Y-15808440D01*
X10855667Y-15794154D01*
X10912810Y-15794154D01*
X10941381Y-15808440D01*
X10955667Y-15822726D01*
X10969953Y-15851297D01*
X10969953Y-15865583D01*
X10955667Y-15894154D01*
X10941381Y-15908440D01*
X10912810Y-15922726D01*
X10855667Y-15922726D01*
X10827096Y-15937011D01*
X10812810Y-15951297D01*
X10798524Y-15979869D01*
X10798524Y-16037011D01*
X10812810Y-16065583D01*
X10827096Y-16079869D01*
X10855667Y-16094154D01*
X10912810Y-16094154D01*
X10941381Y-16079869D01*
X10955667Y-16065583D01*
X10969953Y-16037011D01*
X10969953Y-15979869D01*
X10955667Y-15951297D01*
X10941381Y-15937011D01*
X10912810Y-15922726D01*
X11155667Y-15794154D02*
X11184238Y-15794154D01*
X11212810Y-15808440D01*
X11227096Y-15822726D01*
X11241381Y-15851297D01*
X11255667Y-15908440D01*
X11255667Y-15979869D01*
X11241381Y-16037011D01*
X11227096Y-16065583D01*
X11212810Y-16079869D01*
X11184238Y-16094154D01*
X11155667Y-16094154D01*
X11127096Y-16079869D01*
X11112810Y-16065583D01*
X11098524Y-16037011D01*
X11084238Y-15979869D01*
X11084238Y-15908440D01*
X11098524Y-15851297D01*
X11112810Y-15822726D01*
X11127096Y-15808440D01*
X11155667Y-15794154D01*
X11441381Y-15794154D02*
X11469953Y-15794154D01*
X11498524Y-15808440D01*
X11512810Y-15822726D01*
X11527096Y-15851297D01*
X11541381Y-15908440D01*
X11541381Y-15979869D01*
X11527096Y-16037011D01*
X11512810Y-16065583D01*
X11498524Y-16079869D01*
X11469953Y-16094154D01*
X11441381Y-16094154D01*
X11412810Y-16079869D01*
X11398524Y-16065583D01*
X11384238Y-16037011D01*
X11369953Y-15979869D01*
X11369953Y-15908440D01*
X11384238Y-15851297D01*
X11398524Y-15822726D01*
X11412810Y-15808440D01*
X11441381Y-15794154D01*
X11669953Y-16094154D02*
X11669953Y-15894154D01*
X11669953Y-15922726D02*
X11684238Y-15908440D01*
X11712810Y-15894154D01*
X11755667Y-15894154D01*
X11784238Y-15908440D01*
X11798524Y-15937011D01*
X11798524Y-16094154D01*
X11798524Y-15937011D02*
X11812810Y-15908440D01*
X11841381Y-15894154D01*
X11884238Y-15894154D01*
X11912810Y-15908440D01*
X11927096Y-15937011D01*
X11927096Y-16094154D01*
X12069953Y-16094154D02*
X12069953Y-15894154D01*
X12069953Y-15922726D02*
X12084238Y-15908440D01*
X12112810Y-15894154D01*
X12155667Y-15894154D01*
X12184238Y-15908440D01*
X12198524Y-15937011D01*
X12198524Y-16094154D01*
X12198524Y-15937011D02*
X12212810Y-15908440D01*
X12241381Y-15894154D01*
X12284238Y-15894154D01*
X12312810Y-15908440D01*
X12327096Y-15937011D01*
X12327096Y-16094154D01*
X12912810Y-15779869D02*
X12655667Y-16165583D01*
X13298524Y-15794154D02*
X13327096Y-15794154D01*
X13355667Y-15808440D01*
X13369953Y-15822726D01*
X13384238Y-15851297D01*
X13398524Y-15908440D01*
X13398524Y-15979869D01*
X13384238Y-16037011D01*
X13369953Y-16065583D01*
X13355667Y-16079869D01*
X13327096Y-16094154D01*
X13298524Y-16094154D01*
X13269953Y-16079869D01*
X13255667Y-16065583D01*
X13241381Y-16037011D01*
X13227096Y-15979869D01*
X13227096Y-15908440D01*
X13241381Y-15851297D01*
X13255667Y-15822726D01*
X13269953Y-15808440D01*
X13298524Y-15794154D01*
X13527096Y-16065583D02*
X13541381Y-16079869D01*
X13527096Y-16094154D01*
X13512810Y-16079869D01*
X13527096Y-16065583D01*
X13527096Y-16094154D01*
X13727096Y-15794154D02*
X13755667Y-15794154D01*
X13784238Y-15808440D01*
X13798524Y-15822726D01*
X13812810Y-15851297D01*
X13827096Y-15908440D01*
X13827096Y-15979869D01*
X13812810Y-16037011D01*
X13798524Y-16065583D01*
X13784238Y-16079869D01*
X13755667Y-16094154D01*
X13727096Y-16094154D01*
X13698524Y-16079869D01*
X13684238Y-16065583D01*
X13669953Y-16037011D01*
X13655667Y-15979869D01*
X13655667Y-15908440D01*
X13669953Y-15851297D01*
X13684238Y-15822726D01*
X13698524Y-15808440D01*
X13727096Y-15794154D01*
X13927096Y-15794154D02*
X14112810Y-15794154D01*
X14012810Y-15908440D01*
X14055667Y-15908440D01*
X14084238Y-15922726D01*
X14098524Y-15937011D01*
X14112810Y-15965583D01*
X14112810Y-16037011D01*
X14098524Y-16065583D01*
X14084238Y-16079869D01*
X14055667Y-16094154D01*
X13969953Y-16094154D01*
X13941381Y-16079869D01*
X13927096Y-16065583D01*
X14398524Y-16094154D02*
X14227096Y-16094154D01*
X14312810Y-16094154D02*
X14312810Y-15794154D01*
X14284238Y-15837011D01*
X14255667Y-15865583D01*
X14227096Y-15879869D01*
X14669953Y-15794154D02*
X14527096Y-15794154D01*
X14512810Y-15937011D01*
X14527096Y-15922726D01*
X14555667Y-15908440D01*
X14627096Y-15908440D01*
X14655667Y-15922726D01*
X14669953Y-15937011D01*
X14684238Y-15965583D01*
X14684238Y-16037011D01*
X14669953Y-16065583D01*
X14655667Y-16079869D01*
X14627096Y-16094154D01*
X14555667Y-16094154D01*
X14527096Y-16079869D01*
X14512810Y-16065583D01*
X14798524Y-15794154D02*
X14798524Y-15851297D01*
X14912810Y-15794154D02*
X14912810Y-15851297D01*
X15355667Y-16208440D02*
X15341381Y-16194154D01*
X15312810Y-16151297D01*
X15298524Y-16122726D01*
X15284238Y-16079869D01*
X15269953Y-16008440D01*
X15269953Y-15951297D01*
X15284238Y-15879869D01*
X15298524Y-15837011D01*
X15312810Y-15808440D01*
X15341381Y-15765583D01*
X15355667Y-15751297D01*
X15627096Y-16094154D02*
X15455667Y-16094154D01*
X15541381Y-16094154D02*
X15541381Y-15794154D01*
X15512810Y-15837011D01*
X15484238Y-15865583D01*
X15455667Y-15879869D01*
X15884238Y-15794154D02*
X15827096Y-15794154D01*
X15798524Y-15808440D01*
X15784238Y-15822726D01*
X15755667Y-15865583D01*
X15741381Y-15922726D01*
X15741381Y-16037011D01*
X15755667Y-16065583D01*
X15769953Y-16079869D01*
X15798524Y-16094154D01*
X15855667Y-16094154D01*
X15884238Y-16079869D01*
X15898524Y-16065583D01*
X15912810Y-16037011D01*
X15912810Y-15965583D01*
X15898524Y-15937011D01*
X15884238Y-15922726D01*
X15855667Y-15908440D01*
X15798524Y-15908440D01*
X15769953Y-15922726D01*
X15755667Y-15937011D01*
X15741381Y-15965583D01*
X16169953Y-15894154D02*
X16169953Y-16094154D01*
X16098524Y-15779869D02*
X16027096Y-15994154D01*
X16212810Y-15994154D01*
X16555667Y-16094154D02*
X16555667Y-15794154D01*
X16684238Y-16094154D02*
X16684238Y-15937011D01*
X16669953Y-15908440D01*
X16641381Y-15894154D01*
X16598524Y-15894154D01*
X16569953Y-15908440D01*
X16555667Y-15922726D01*
X16869953Y-16094154D02*
X16841381Y-16079869D01*
X16827096Y-16065583D01*
X16812810Y-16037011D01*
X16812810Y-15951297D01*
X16827096Y-15922726D01*
X16841381Y-15908440D01*
X16869953Y-15894154D01*
X16912810Y-15894154D01*
X16941381Y-15908440D01*
X16955667Y-15922726D01*
X16969953Y-15951297D01*
X16969953Y-16037011D01*
X16955667Y-16065583D01*
X16941381Y-16079869D01*
X16912810Y-16094154D01*
X16869953Y-16094154D01*
X17141381Y-16094154D02*
X17112810Y-16079869D01*
X17098524Y-16051297D01*
X17098524Y-15794154D01*
X17369953Y-16079869D02*
X17341381Y-16094154D01*
X17284238Y-16094154D01*
X17255667Y-16079869D01*
X17241381Y-16051297D01*
X17241381Y-15937011D01*
X17255667Y-15908440D01*
X17284238Y-15894154D01*
X17341381Y-15894154D01*
X17369953Y-15908440D01*
X17384238Y-15937011D01*
X17384238Y-15965583D01*
X17241381Y-15994154D01*
X17498524Y-16079869D02*
X17527096Y-16094154D01*
X17584238Y-16094154D01*
X17612810Y-16079869D01*
X17627096Y-16051297D01*
X17627096Y-16037011D01*
X17612810Y-16008440D01*
X17584238Y-15994154D01*
X17541381Y-15994154D01*
X17512810Y-15979869D01*
X17498524Y-15951297D01*
X17498524Y-15937011D01*
X17512810Y-15908440D01*
X17541381Y-15894154D01*
X17584238Y-15894154D01*
X17612810Y-15908440D01*
X17727096Y-16208440D02*
X17741381Y-16194154D01*
X17769953Y-16151297D01*
X17784238Y-16122726D01*
X17798524Y-16079869D01*
X17812810Y-16008440D01*
X17812810Y-15951297D01*
X17798524Y-15879869D01*
X17784238Y-15837011D01*
X17769953Y-15808440D01*
X17741381Y-15765583D01*
X17727096Y-15751297D01*
X10047810Y-16304440D02*
X10047810Y-16404440D01*
X9997810Y-16354440D02*
X10097810Y-16354440D01*
X10541381Y-16490154D02*
X10369953Y-16490154D01*
X10455667Y-16490154D02*
X10455667Y-16190154D01*
X10427096Y-16233011D01*
X10398524Y-16261583D01*
X10369953Y-16275869D01*
X10669953Y-16461583D02*
X10684238Y-16475869D01*
X10669953Y-16490154D01*
X10655667Y-16475869D01*
X10669953Y-16461583D01*
X10669953Y-16490154D01*
X10869953Y-16190154D02*
X10898524Y-16190154D01*
X10927096Y-16204440D01*
X10941381Y-16218726D01*
X10955667Y-16247297D01*
X10969953Y-16304440D01*
X10969953Y-16375869D01*
X10955667Y-16433011D01*
X10941381Y-16461583D01*
X10927096Y-16475869D01*
X10898524Y-16490154D01*
X10869953Y-16490154D01*
X10841381Y-16475869D01*
X10827096Y-16461583D01*
X10812810Y-16433011D01*
X10798524Y-16375869D01*
X10798524Y-16304440D01*
X10812810Y-16247297D01*
X10827096Y-16218726D01*
X10841381Y-16204440D01*
X10869953Y-16190154D01*
X11155667Y-16190154D02*
X11184238Y-16190154D01*
X11212810Y-16204440D01*
X11227096Y-16218726D01*
X11241381Y-16247297D01*
X11255667Y-16304440D01*
X11255667Y-16375869D01*
X11241381Y-16433011D01*
X11227096Y-16461583D01*
X11212810Y-16475869D01*
X11184238Y-16490154D01*
X11155667Y-16490154D01*
X11127096Y-16475869D01*
X11112810Y-16461583D01*
X11098524Y-16433011D01*
X11084238Y-16375869D01*
X11084238Y-16304440D01*
X11098524Y-16247297D01*
X11112810Y-16218726D01*
X11127096Y-16204440D01*
X11155667Y-16190154D01*
X11441381Y-16190154D02*
X11469953Y-16190154D01*
X11498524Y-16204440D01*
X11512810Y-16218726D01*
X11527096Y-16247297D01*
X11541381Y-16304440D01*
X11541381Y-16375869D01*
X11527096Y-16433011D01*
X11512810Y-16461583D01*
X11498524Y-16475869D01*
X11469953Y-16490154D01*
X11441381Y-16490154D01*
X11412810Y-16475869D01*
X11398524Y-16461583D01*
X11384238Y-16433011D01*
X11369953Y-16375869D01*
X11369953Y-16304440D01*
X11384238Y-16247297D01*
X11398524Y-16218726D01*
X11412810Y-16204440D01*
X11441381Y-16190154D01*
X11669953Y-16490154D02*
X11669953Y-16290154D01*
X11669953Y-16318726D02*
X11684238Y-16304440D01*
X11712810Y-16290154D01*
X11755667Y-16290154D01*
X11784238Y-16304440D01*
X11798524Y-16333011D01*
X11798524Y-16490154D01*
X11798524Y-16333011D02*
X11812810Y-16304440D01*
X11841381Y-16290154D01*
X11884238Y-16290154D01*
X11912810Y-16304440D01*
X11927096Y-16333011D01*
X11927096Y-16490154D01*
X12069953Y-16490154D02*
X12069953Y-16290154D01*
X12069953Y-16318726D02*
X12084238Y-16304440D01*
X12112810Y-16290154D01*
X12155667Y-16290154D01*
X12184238Y-16304440D01*
X12198524Y-16333011D01*
X12198524Y-16490154D01*
X12198524Y-16333011D02*
X12212810Y-16304440D01*
X12241381Y-16290154D01*
X12284238Y-16290154D01*
X12312810Y-16304440D01*
X12327096Y-16333011D01*
X12327096Y-16490154D01*
X12912810Y-16175869D02*
X12655667Y-16561583D01*
X13298524Y-16190154D02*
X13327096Y-16190154D01*
X13355667Y-16204440D01*
X13369953Y-16218726D01*
X13384238Y-16247297D01*
X13398524Y-16304440D01*
X13398524Y-16375869D01*
X13384238Y-16433011D01*
X13369953Y-16461583D01*
X13355667Y-16475869D01*
X13327096Y-16490154D01*
X13298524Y-16490154D01*
X13269953Y-16475869D01*
X13255667Y-16461583D01*
X13241381Y-16433011D01*
X13227096Y-16375869D01*
X13227096Y-16304440D01*
X13241381Y-16247297D01*
X13255667Y-16218726D01*
X13269953Y-16204440D01*
X13298524Y-16190154D01*
X13527096Y-16461583D02*
X13541381Y-16475869D01*
X13527096Y-16490154D01*
X13512810Y-16475869D01*
X13527096Y-16461583D01*
X13527096Y-16490154D01*
X13727096Y-16190154D02*
X13755667Y-16190154D01*
X13784238Y-16204440D01*
X13798524Y-16218726D01*
X13812810Y-16247297D01*
X13827096Y-16304440D01*
X13827096Y-16375869D01*
X13812810Y-16433011D01*
X13798524Y-16461583D01*
X13784238Y-16475869D01*
X13755667Y-16490154D01*
X13727096Y-16490154D01*
X13698524Y-16475869D01*
X13684238Y-16461583D01*
X13669953Y-16433011D01*
X13655667Y-16375869D01*
X13655667Y-16304440D01*
X13669953Y-16247297D01*
X13684238Y-16218726D01*
X13698524Y-16204440D01*
X13727096Y-16190154D01*
X13927096Y-16190154D02*
X14112810Y-16190154D01*
X14012810Y-16304440D01*
X14055667Y-16304440D01*
X14084238Y-16318726D01*
X14098524Y-16333011D01*
X14112810Y-16361583D01*
X14112810Y-16433011D01*
X14098524Y-16461583D01*
X14084238Y-16475869D01*
X14055667Y-16490154D01*
X13969953Y-16490154D01*
X13941381Y-16475869D01*
X13927096Y-16461583D01*
X14255667Y-16490154D02*
X14312810Y-16490154D01*
X14341381Y-16475869D01*
X14355667Y-16461583D01*
X14384238Y-16418726D01*
X14398524Y-16361583D01*
X14398524Y-16247297D01*
X14384238Y-16218726D01*
X14369953Y-16204440D01*
X14341381Y-16190154D01*
X14284238Y-16190154D01*
X14255667Y-16204440D01*
X14241381Y-16218726D01*
X14227096Y-16247297D01*
X14227096Y-16318726D01*
X14241381Y-16347297D01*
X14255667Y-16361583D01*
X14284238Y-16375869D01*
X14341381Y-16375869D01*
X14369953Y-16361583D01*
X14384238Y-16347297D01*
X14398524Y-16318726D01*
X14655667Y-16290154D02*
X14655667Y-16490154D01*
X14584238Y-16175869D02*
X14512810Y-16390154D01*
X14698524Y-16390154D01*
X14798524Y-16190154D02*
X14798524Y-16247297D01*
X14912810Y-16190154D02*
X14912810Y-16247297D01*
X15355667Y-16604440D02*
X15341381Y-16590154D01*
X15312810Y-16547297D01*
X15298524Y-16518726D01*
X15284238Y-16475869D01*
X15269953Y-16404440D01*
X15269953Y-16347297D01*
X15284238Y-16275869D01*
X15298524Y-16233011D01*
X15312810Y-16204440D01*
X15341381Y-16161583D01*
X15355667Y-16147297D01*
X15627096Y-16490154D02*
X15455667Y-16490154D01*
X15541381Y-16490154D02*
X15541381Y-16190154D01*
X15512810Y-16233011D01*
X15484238Y-16261583D01*
X15455667Y-16275869D01*
X15812810Y-16190154D02*
X15841381Y-16190154D01*
X15869953Y-16204440D01*
X15884238Y-16218726D01*
X15898524Y-16247297D01*
X15912810Y-16304440D01*
X15912810Y-16375869D01*
X15898524Y-16433011D01*
X15884238Y-16461583D01*
X15869953Y-16475869D01*
X15841381Y-16490154D01*
X15812810Y-16490154D01*
X15784238Y-16475869D01*
X15769953Y-16461583D01*
X15755667Y-16433011D01*
X15741381Y-16375869D01*
X15741381Y-16304440D01*
X15755667Y-16247297D01*
X15769953Y-16218726D01*
X15784238Y-16204440D01*
X15812810Y-16190154D01*
X16027096Y-16218726D02*
X16041381Y-16204440D01*
X16069953Y-16190154D01*
X16141381Y-16190154D01*
X16169953Y-16204440D01*
X16184238Y-16218726D01*
X16198524Y-16247297D01*
X16198524Y-16275869D01*
X16184238Y-16318726D01*
X16012810Y-16490154D01*
X16198524Y-16490154D01*
X16555667Y-16490154D02*
X16555667Y-16190154D01*
X16684238Y-16490154D02*
X16684238Y-16333011D01*
X16669953Y-16304440D01*
X16641381Y-16290154D01*
X16598524Y-16290154D01*
X16569953Y-16304440D01*
X16555667Y-16318726D01*
X16869953Y-16490154D02*
X16841381Y-16475869D01*
X16827096Y-16461583D01*
X16812810Y-16433011D01*
X16812810Y-16347297D01*
X16827096Y-16318726D01*
X16841381Y-16304440D01*
X16869953Y-16290154D01*
X16912810Y-16290154D01*
X16941381Y-16304440D01*
X16955667Y-16318726D01*
X16969953Y-16347297D01*
X16969953Y-16433011D01*
X16955667Y-16461583D01*
X16941381Y-16475869D01*
X16912810Y-16490154D01*
X16869953Y-16490154D01*
X17141381Y-16490154D02*
X17112810Y-16475869D01*
X17098524Y-16447297D01*
X17098524Y-16190154D01*
X17369953Y-16475869D02*
X17341381Y-16490154D01*
X17284238Y-16490154D01*
X17255667Y-16475869D01*
X17241381Y-16447297D01*
X17241381Y-16333011D01*
X17255667Y-16304440D01*
X17284238Y-16290154D01*
X17341381Y-16290154D01*
X17369953Y-16304440D01*
X17384238Y-16333011D01*
X17384238Y-16361583D01*
X17241381Y-16390154D01*
X17498524Y-16475869D02*
X17527096Y-16490154D01*
X17584238Y-16490154D01*
X17612810Y-16475869D01*
X17627096Y-16447297D01*
X17627096Y-16433011D01*
X17612810Y-16404440D01*
X17584238Y-16390154D01*
X17541381Y-16390154D01*
X17512810Y-16375869D01*
X17498524Y-16347297D01*
X17498524Y-16333011D01*
X17512810Y-16304440D01*
X17541381Y-16290154D01*
X17584238Y-16290154D01*
X17612810Y-16304440D01*
X17727096Y-16604440D02*
X17741381Y-16590154D01*
X17769953Y-16547297D01*
X17784238Y-16518726D01*
X17798524Y-16475869D01*
X17812810Y-16404440D01*
X17812810Y-16347297D01*
X17798524Y-16275869D01*
X17784238Y-16233011D01*
X17769953Y-16204440D01*
X17741381Y-16161583D01*
X17727096Y-16147297D01*
X10081701Y-16789331D02*
X10081701Y-16711549D01*
X10003919Y-16711549D01*
X10003919Y-16789331D01*
X10081701Y-16789331D01*
X10541381Y-16886154D02*
X10369953Y-16886154D01*
X10455667Y-16886154D02*
X10455667Y-16586154D01*
X10427096Y-16629011D01*
X10398524Y-16657583D01*
X10369953Y-16671869D01*
X10669953Y-16857583D02*
X10684238Y-16871869D01*
X10669953Y-16886154D01*
X10655667Y-16871869D01*
X10669953Y-16857583D01*
X10669953Y-16886154D01*
X10969953Y-16886154D02*
X10798524Y-16886154D01*
X10884238Y-16886154D02*
X10884238Y-16586154D01*
X10855667Y-16629011D01*
X10827096Y-16657583D01*
X10798524Y-16671869D01*
X11155667Y-16586154D02*
X11184238Y-16586154D01*
X11212810Y-16600440D01*
X11227096Y-16614726D01*
X11241381Y-16643297D01*
X11255667Y-16700440D01*
X11255667Y-16771869D01*
X11241381Y-16829012D01*
X11227096Y-16857583D01*
X11212810Y-16871869D01*
X11184238Y-16886154D01*
X11155667Y-16886154D01*
X11127096Y-16871869D01*
X11112810Y-16857583D01*
X11098524Y-16829012D01*
X11084238Y-16771869D01*
X11084238Y-16700440D01*
X11098524Y-16643297D01*
X11112810Y-16614726D01*
X11127096Y-16600440D01*
X11155667Y-16586154D01*
X11441381Y-16586154D02*
X11469953Y-16586154D01*
X11498524Y-16600440D01*
X11512810Y-16614726D01*
X11527096Y-16643297D01*
X11541381Y-16700440D01*
X11541381Y-16771869D01*
X11527096Y-16829012D01*
X11512810Y-16857583D01*
X11498524Y-16871869D01*
X11469953Y-16886154D01*
X11441381Y-16886154D01*
X11412810Y-16871869D01*
X11398524Y-16857583D01*
X11384238Y-16829012D01*
X11369953Y-16771869D01*
X11369953Y-16700440D01*
X11384238Y-16643297D01*
X11398524Y-16614726D01*
X11412810Y-16600440D01*
X11441381Y-16586154D01*
X11669953Y-16886154D02*
X11669953Y-16686154D01*
X11669953Y-16714726D02*
X11684238Y-16700440D01*
X11712810Y-16686154D01*
X11755667Y-16686154D01*
X11784238Y-16700440D01*
X11798524Y-16729011D01*
X11798524Y-16886154D01*
X11798524Y-16729011D02*
X11812810Y-16700440D01*
X11841381Y-16686154D01*
X11884238Y-16686154D01*
X11912810Y-16700440D01*
X11927096Y-16729011D01*
X11927096Y-16886154D01*
X12069953Y-16886154D02*
X12069953Y-16686154D01*
X12069953Y-16714726D02*
X12084238Y-16700440D01*
X12112810Y-16686154D01*
X12155667Y-16686154D01*
X12184238Y-16700440D01*
X12198524Y-16729011D01*
X12198524Y-16886154D01*
X12198524Y-16729011D02*
X12212810Y-16700440D01*
X12241381Y-16686154D01*
X12284238Y-16686154D01*
X12312810Y-16700440D01*
X12327096Y-16729011D01*
X12327096Y-16886154D01*
X12912810Y-16571869D02*
X12655667Y-16957583D01*
X13298524Y-16586154D02*
X13327096Y-16586154D01*
X13355667Y-16600440D01*
X13369953Y-16614726D01*
X13384238Y-16643297D01*
X13398524Y-16700440D01*
X13398524Y-16771869D01*
X13384238Y-16829012D01*
X13369953Y-16857583D01*
X13355667Y-16871869D01*
X13327096Y-16886154D01*
X13298524Y-16886154D01*
X13269953Y-16871869D01*
X13255667Y-16857583D01*
X13241381Y-16829012D01*
X13227096Y-16771869D01*
X13227096Y-16700440D01*
X13241381Y-16643297D01*
X13255667Y-16614726D01*
X13269953Y-16600440D01*
X13298524Y-16586154D01*
X13527096Y-16857583D02*
X13541381Y-16871869D01*
X13527096Y-16886154D01*
X13512810Y-16871869D01*
X13527096Y-16857583D01*
X13527096Y-16886154D01*
X13727096Y-16586154D02*
X13755667Y-16586154D01*
X13784238Y-16600440D01*
X13798524Y-16614726D01*
X13812810Y-16643297D01*
X13827096Y-16700440D01*
X13827096Y-16771869D01*
X13812810Y-16829012D01*
X13798524Y-16857583D01*
X13784238Y-16871869D01*
X13755667Y-16886154D01*
X13727096Y-16886154D01*
X13698524Y-16871869D01*
X13684238Y-16857583D01*
X13669953Y-16829012D01*
X13655667Y-16771869D01*
X13655667Y-16700440D01*
X13669953Y-16643297D01*
X13684238Y-16614726D01*
X13698524Y-16600440D01*
X13727096Y-16586154D01*
X14084238Y-16686154D02*
X14084238Y-16886154D01*
X14012810Y-16571869D02*
X13941381Y-16786154D01*
X14127096Y-16786154D01*
X14212810Y-16586154D02*
X14398524Y-16586154D01*
X14298524Y-16700440D01*
X14341381Y-16700440D01*
X14369953Y-16714726D01*
X14384238Y-16729011D01*
X14398524Y-16757583D01*
X14398524Y-16829012D01*
X14384238Y-16857583D01*
X14369953Y-16871869D01*
X14341381Y-16886154D01*
X14255667Y-16886154D01*
X14227096Y-16871869D01*
X14212810Y-16857583D01*
X14498524Y-16586154D02*
X14684238Y-16586154D01*
X14584238Y-16700440D01*
X14627096Y-16700440D01*
X14655667Y-16714726D01*
X14669953Y-16729011D01*
X14684238Y-16757583D01*
X14684238Y-16829012D01*
X14669953Y-16857583D01*
X14655667Y-16871869D01*
X14627096Y-16886154D01*
X14541381Y-16886154D01*
X14512810Y-16871869D01*
X14498524Y-16857583D01*
X14798524Y-16586154D02*
X14798524Y-16643297D01*
X14912810Y-16586154D02*
X14912810Y-16643297D01*
X15355667Y-17000440D02*
X15341381Y-16986154D01*
X15312810Y-16943297D01*
X15298524Y-16914726D01*
X15284238Y-16871869D01*
X15269953Y-16800440D01*
X15269953Y-16743297D01*
X15284238Y-16671869D01*
X15298524Y-16629011D01*
X15312810Y-16600440D01*
X15341381Y-16557583D01*
X15355667Y-16543297D01*
X15598524Y-16686154D02*
X15598524Y-16886154D01*
X15527096Y-16571869D02*
X15455667Y-16786154D01*
X15641381Y-16786154D01*
X15984238Y-16886154D02*
X15984238Y-16586154D01*
X16112810Y-16886154D02*
X16112810Y-16729011D01*
X16098524Y-16700440D01*
X16069953Y-16686154D01*
X16027096Y-16686154D01*
X15998524Y-16700440D01*
X15984238Y-16714726D01*
X16298524Y-16886154D02*
X16269953Y-16871869D01*
X16255667Y-16857583D01*
X16241381Y-16829012D01*
X16241381Y-16743297D01*
X16255667Y-16714726D01*
X16269953Y-16700440D01*
X16298524Y-16686154D01*
X16341381Y-16686154D01*
X16369953Y-16700440D01*
X16384238Y-16714726D01*
X16398524Y-16743297D01*
X16398524Y-16829012D01*
X16384238Y-16857583D01*
X16369953Y-16871869D01*
X16341381Y-16886154D01*
X16298524Y-16886154D01*
X16569953Y-16886154D02*
X16541381Y-16871869D01*
X16527096Y-16843297D01*
X16527096Y-16586154D01*
X16798524Y-16871869D02*
X16769953Y-16886154D01*
X16712810Y-16886154D01*
X16684238Y-16871869D01*
X16669953Y-16843297D01*
X16669953Y-16729011D01*
X16684238Y-16700440D01*
X16712810Y-16686154D01*
X16769953Y-16686154D01*
X16798524Y-16700440D01*
X16812810Y-16729011D01*
X16812810Y-16757583D01*
X16669953Y-16786154D01*
X16927096Y-16871869D02*
X16955667Y-16886154D01*
X17012810Y-16886154D01*
X17041381Y-16871869D01*
X17055667Y-16843297D01*
X17055667Y-16829012D01*
X17041381Y-16800440D01*
X17012810Y-16786154D01*
X16969953Y-16786154D01*
X16941381Y-16771869D01*
X16927096Y-16743297D01*
X16927096Y-16729011D01*
X16941381Y-16700440D01*
X16969953Y-16686154D01*
X17012810Y-16686154D01*
X17041381Y-16700440D01*
X17155667Y-17000440D02*
X17169953Y-16986154D01*
X17198524Y-16943297D01*
X17212810Y-16914726D01*
X17227096Y-16871869D01*
X17241381Y-16800440D01*
X17241381Y-16743297D01*
X17227096Y-16671869D01*
X17212810Y-16629011D01*
X17198524Y-16600440D01*
X17169953Y-16557583D01*
X17155667Y-16543297D01*
X10027810Y-17216440D02*
X10097810Y-17146440D01*
X10027810Y-17076440D01*
X9957810Y-17146440D01*
X10027810Y-17216440D01*
X10541381Y-17282154D02*
X10369953Y-17282154D01*
X10455667Y-17282154D02*
X10455667Y-16982154D01*
X10427096Y-17025012D01*
X10398524Y-17053583D01*
X10369953Y-17067869D01*
X10669953Y-17253583D02*
X10684238Y-17267869D01*
X10669953Y-17282154D01*
X10655667Y-17267869D01*
X10669953Y-17253583D01*
X10669953Y-17282154D01*
X10941381Y-17082154D02*
X10941381Y-17282154D01*
X10869953Y-16967869D02*
X10798524Y-17182154D01*
X10984238Y-17182154D01*
X11155667Y-16982154D02*
X11184238Y-16982154D01*
X11212810Y-16996440D01*
X11227096Y-17010726D01*
X11241381Y-17039297D01*
X11255667Y-17096440D01*
X11255667Y-17167869D01*
X11241381Y-17225012D01*
X11227096Y-17253583D01*
X11212810Y-17267869D01*
X11184238Y-17282154D01*
X11155667Y-17282154D01*
X11127096Y-17267869D01*
X11112810Y-17253583D01*
X11098524Y-17225012D01*
X11084238Y-17167869D01*
X11084238Y-17096440D01*
X11098524Y-17039297D01*
X11112810Y-17010726D01*
X11127096Y-16996440D01*
X11155667Y-16982154D01*
X11441381Y-16982154D02*
X11469953Y-16982154D01*
X11498524Y-16996440D01*
X11512810Y-17010726D01*
X11527096Y-17039297D01*
X11541381Y-17096440D01*
X11541381Y-17167869D01*
X11527096Y-17225012D01*
X11512810Y-17253583D01*
X11498524Y-17267869D01*
X11469953Y-17282154D01*
X11441381Y-17282154D01*
X11412810Y-17267869D01*
X11398524Y-17253583D01*
X11384238Y-17225012D01*
X11369953Y-17167869D01*
X11369953Y-17096440D01*
X11384238Y-17039297D01*
X11398524Y-17010726D01*
X11412810Y-16996440D01*
X11441381Y-16982154D01*
X11669953Y-17282154D02*
X11669953Y-17082154D01*
X11669953Y-17110726D02*
X11684238Y-17096440D01*
X11712810Y-17082154D01*
X11755667Y-17082154D01*
X11784238Y-17096440D01*
X11798524Y-17125012D01*
X11798524Y-17282154D01*
X11798524Y-17125012D02*
X11812810Y-17096440D01*
X11841381Y-17082154D01*
X11884238Y-17082154D01*
X11912810Y-17096440D01*
X11927096Y-17125012D01*
X11927096Y-17282154D01*
X12069953Y-17282154D02*
X12069953Y-17082154D01*
X12069953Y-17110726D02*
X12084238Y-17096440D01*
X12112810Y-17082154D01*
X12155667Y-17082154D01*
X12184238Y-17096440D01*
X12198524Y-17125012D01*
X12198524Y-17282154D01*
X12198524Y-17125012D02*
X12212810Y-17096440D01*
X12241381Y-17082154D01*
X12284238Y-17082154D01*
X12312810Y-17096440D01*
X12327096Y-17125012D01*
X12327096Y-17282154D01*
X12912810Y-16967869D02*
X12655667Y-17353583D01*
X13298524Y-16982154D02*
X13327096Y-16982154D01*
X13355667Y-16996440D01*
X13369953Y-17010726D01*
X13384238Y-17039297D01*
X13398524Y-17096440D01*
X13398524Y-17167869D01*
X13384238Y-17225012D01*
X13369953Y-17253583D01*
X13355667Y-17267869D01*
X13327096Y-17282154D01*
X13298524Y-17282154D01*
X13269953Y-17267869D01*
X13255667Y-17253583D01*
X13241381Y-17225012D01*
X13227096Y-17167869D01*
X13227096Y-17096440D01*
X13241381Y-17039297D01*
X13255667Y-17010726D01*
X13269953Y-16996440D01*
X13298524Y-16982154D01*
X13527096Y-17253583D02*
X13541381Y-17267869D01*
X13527096Y-17282154D01*
X13512810Y-17267869D01*
X13527096Y-17253583D01*
X13527096Y-17282154D01*
X13727096Y-16982154D02*
X13755667Y-16982154D01*
X13784238Y-16996440D01*
X13798524Y-17010726D01*
X13812810Y-17039297D01*
X13827096Y-17096440D01*
X13827096Y-17167869D01*
X13812810Y-17225012D01*
X13798524Y-17253583D01*
X13784238Y-17267869D01*
X13755667Y-17282154D01*
X13727096Y-17282154D01*
X13698524Y-17267869D01*
X13684238Y-17253583D01*
X13669953Y-17225012D01*
X13655667Y-17167869D01*
X13655667Y-17096440D01*
X13669953Y-17039297D01*
X13684238Y-17010726D01*
X13698524Y-16996440D01*
X13727096Y-16982154D01*
X14098524Y-16982154D02*
X13955667Y-16982154D01*
X13941381Y-17125012D01*
X13955667Y-17110726D01*
X13984238Y-17096440D01*
X14055667Y-17096440D01*
X14084238Y-17110726D01*
X14098524Y-17125012D01*
X14112810Y-17153583D01*
X14112810Y-17225012D01*
X14098524Y-17253583D01*
X14084238Y-17267869D01*
X14055667Y-17282154D01*
X13984238Y-17282154D01*
X13955667Y-17267869D01*
X13941381Y-17253583D01*
X14384238Y-16982154D02*
X14241381Y-16982154D01*
X14227096Y-17125012D01*
X14241381Y-17110726D01*
X14269953Y-17096440D01*
X14341381Y-17096440D01*
X14369953Y-17110726D01*
X14384238Y-17125012D01*
X14398524Y-17153583D01*
X14398524Y-17225012D01*
X14384238Y-17253583D01*
X14369953Y-17267869D01*
X14341381Y-17282154D01*
X14269953Y-17282154D01*
X14241381Y-17267869D01*
X14227096Y-17253583D01*
X14684238Y-17282154D02*
X14512810Y-17282154D01*
X14598524Y-17282154D02*
X14598524Y-16982154D01*
X14569953Y-17025012D01*
X14541381Y-17053583D01*
X14512810Y-17067869D01*
X14798524Y-16982154D02*
X14798524Y-17039297D01*
X14912810Y-16982154D02*
X14912810Y-17039297D01*
X15355667Y-17396440D02*
X15341381Y-17382154D01*
X15312810Y-17339297D01*
X15298524Y-17310726D01*
X15284238Y-17267869D01*
X15269953Y-17196440D01*
X15269953Y-17139297D01*
X15284238Y-17067869D01*
X15298524Y-17025012D01*
X15312810Y-16996440D01*
X15341381Y-16953583D01*
X15355667Y-16939297D01*
X15598524Y-16982154D02*
X15541381Y-16982154D01*
X15512810Y-16996440D01*
X15498524Y-17010726D01*
X15469953Y-17053583D01*
X15455667Y-17110726D01*
X15455667Y-17225012D01*
X15469953Y-17253583D01*
X15484238Y-17267869D01*
X15512810Y-17282154D01*
X15569953Y-17282154D01*
X15598524Y-17267869D01*
X15612810Y-17253583D01*
X15627096Y-17225012D01*
X15627096Y-17153583D01*
X15612810Y-17125012D01*
X15598524Y-17110726D01*
X15569953Y-17096440D01*
X15512810Y-17096440D01*
X15484238Y-17110726D01*
X15469953Y-17125012D01*
X15455667Y-17153583D01*
X15984238Y-17282154D02*
X15984238Y-16982154D01*
X16112810Y-17282154D02*
X16112810Y-17125012D01*
X16098524Y-17096440D01*
X16069953Y-17082154D01*
X16027096Y-17082154D01*
X15998524Y-17096440D01*
X15984238Y-17110726D01*
X16298524Y-17282154D02*
X16269953Y-17267869D01*
X16255667Y-17253583D01*
X16241381Y-17225012D01*
X16241381Y-17139297D01*
X16255667Y-17110726D01*
X16269953Y-17096440D01*
X16298524Y-17082154D01*
X16341381Y-17082154D01*
X16369953Y-17096440D01*
X16384238Y-17110726D01*
X16398524Y-17139297D01*
X16398524Y-17225012D01*
X16384238Y-17253583D01*
X16369953Y-17267869D01*
X16341381Y-17282154D01*
X16298524Y-17282154D01*
X16569953Y-17282154D02*
X16541381Y-17267869D01*
X16527096Y-17239297D01*
X16527096Y-16982154D01*
X16798524Y-17267869D02*
X16769953Y-17282154D01*
X16712810Y-17282154D01*
X16684238Y-17267869D01*
X16669953Y-17239297D01*
X16669953Y-17125012D01*
X16684238Y-17096440D01*
X16712810Y-17082154D01*
X16769953Y-17082154D01*
X16798524Y-17096440D01*
X16812810Y-17125012D01*
X16812810Y-17153583D01*
X16669953Y-17182154D01*
X16927096Y-17267869D02*
X16955667Y-17282154D01*
X17012810Y-17282154D01*
X17041381Y-17267869D01*
X17055667Y-17239297D01*
X17055667Y-17225012D01*
X17041381Y-17196440D01*
X17012810Y-17182154D01*
X16969953Y-17182154D01*
X16941381Y-17167869D01*
X16927096Y-17139297D01*
X16927096Y-17125012D01*
X16941381Y-17096440D01*
X16969953Y-17082154D01*
X17012810Y-17082154D01*
X17041381Y-17096440D01*
X17155667Y-17396440D02*
X17169953Y-17382154D01*
X17198524Y-17339297D01*
X17212810Y-17310726D01*
X17227096Y-17267869D01*
X17241381Y-17196440D01*
X17241381Y-17139297D01*
X17227096Y-17067869D01*
X17212810Y-17025012D01*
X17198524Y-16996440D01*
X17169953Y-16953583D01*
X17155667Y-16939297D01*
M02*
